NeoHanSans-Variable.glyphspackage
{
color = 9;
glyphname = "comma-han";
layers = (
{
layerId = m01;
shapes = (
{
closed = 1;
nodes = (
(251,59,o),
(163,148,o),
(89,206,c),
(64,182,l),
(134,128,o),
(221,44,o),
(291,-43,c),
(320,-19,l)
);
}
);
width = 1000;
},
{
layerId = "5029AEDF-C899-4409-998A-C73D58F94579";
shapes = (
{
closed = 1;
nodes = (
(332,89,o),
(240,186,o),
(160,252,c),
(33,143,l),
(102,84,o),
(195,-14,o),
(245,-76,c),
(374,35,l)
);
}
);
width = 1000;
}
);
unicode = 12289;
}
{
color = 9;
glyphname = "period-han";
layers = (
{
layerId = m01;
shapes = (
{
closed = 1;
nodes = (
(117.243,240,o),
(52,176.348,o),
(52,97,cs),
(52,18.638,o),
(116.638,-46,o),
(195,-46,cs),
(274.348,-46,o),
(338,19.243,o),
(338,97,cs),
(338,176.143,o),
(274.143,240,o),
(195,240,cs)
);
},
{
closed = 1;
nodes = (
(129.84,-16,o),
(82,36.835,o),
(82,97,cs),
(82,158.788,o),
(133.212,210,o),
(195,210,cs),
(258.772,210,o),
(308,159.333,o),
(308,97,cs),
(308,34.333,o),
(257.667,-16,o),
(195,-16,cs)
);
}
);
width = 1000;
},
{
layerId = "5029AEDF-C899-4409-998A-C73D58F94579";
shapes = (
{
closed = 1;
nodes = (
(131,250,o),
(56,176,o),
(56,83,cs),
(56,-9,o),
(130,-84,o),
(223,-84,cs),
(317,-84,o),
(390,-9,o),
(390,83,cs),
(390,176,o),
(316,250,o),
(223,250,cs)
);
},
{
closed = 1;
nodes = (
(176,0,o),
(140,38,o),
(140,83,cs),
(140,130,o),
(178,166,o),
(223,166,cs),
(270,166,o),
(306,130,o),
(306,83,cs),
(306,37,o),
(270,0,o),
(223,0,cs)
);
}
);
width = 1000;
}
);
unicode = 12290;
}
{
color = 7;
glyphname = uni4E00;
layers = (
{
layerId = m01;
shapes = (
{
closed = 1;
nodes = (
(50,407,l),
(50,374,l),
(955,374,l),
(955,407,l)
);
}
);
vertWidth = 1000;
width = 1000;
},
{
layerId = "5029AEDF-C899-4409-998A-C73D58F94579";
shapes = (
{
closed = 1;
nodes = (
(35,469,l),
(35,310,l),
(967,310,l),
(967,469,l)
);
}
);
vertWidth = 1000;
width = 1000;
}
);
note = cid09481;
unicode = 19968;
}
{
color = 4;
glyphname = uni4E01;
layers = (
{
layerId = m01;
shapes = (
{
closed = 1;
nodes = (
(67,723,l),
(67,694,l),
(932,694,l),
(932,723,l)
);
},
{
closed = 1;
nodes = (
(515,713,l),
(515,4,ls),
(515,-20,o),
(506,-27,o),
(481,-28,cs),
(456,-30,o),
(369,-31,o),
(262,-28,c),
(276,-59,l),
(400,-59,o),
(467,-60,o),
(499,-54,cs),
(529,-48,o),
(544,-34,o),
(544,5,cs),
(544,713,l)
);
}
);
vertWidth = 1000;
width = 1000;
},
{
layerId = "5029AEDF-C899-4409-998A-C73D58F94579";
shapes = (
{
closed = 1;
nodes = (
(50,788,l),
(50,636,l),
(951,636,l),
(951,788,l)
);
},
{
closed = 1;
nodes = (
(443,721,l),
(443,105,ls),
(443,84,o),
(433,78,o),
(408,77,cs),
(380,77,o),
(285,78,o),
(212,82,c),
(283,-90,l),
(386,-90,o),
(473,-86,o),
(535,-60,cs),
(597,-35,o),
(618,8,o),
(618,102,cs),
(618,721,l)
);
}
);
vertWidth = 1000;
width = 1000;
}
);
note = cid09482;
unicode = 19969;
}
{
color = 4;
glyphname = uni4E03;
layers = (
{
layerId = m01;
shapes = (
{
closed = 1;
nodes = (
(57,416,l),
(63,388,l),
(941,537,l),
(935,566,l)
);
},
{
closed = 1;
nodes = (
(353,817,l),
(353,75,ls),
(353,-12,o),
(384,-31,o),
(481,-31,cs),
(504,-31,o),
(761,-31,o),
(784,-31,cs),
(882,-31,o),
(895,12,o),
(904,144,c),
(873,159,l),
(866,32,o),
(856,-2,o),
(789,-2,cs),
(736,-2,o),
(515,-2,o),
(476,-2,cs),
(399,-2,o),
(382,16,o),
(382,73,cs),
(382,817,l)
);
}
);
vertWidth = 1000;
width = 1000;
},
{
layerId = "5029AEDF-C899-4409-998A-C73D58F94579";
shapes = (
{
closed = 1;
nodes = (
(37,482,l),
(60,334,l),
(975,465,l),
(952,616,l)
);
},
{
closed = 1;
nodes = (
(316,832,l),
(316,159,ls),
(316,-15,o),
(364,-66,o),
(532,-66,cs),
(568,-66,o),
(691,-66,o),
(729,-66,cs),
(893,-66,o),
(937,14,o),
(955,232,c),
(807,301,l),
(794,117,o),
(784,80,o),
(716,80,cs),
(688,80,o),
(577,80,o),
(547,80,cs),
(483,80,o),
(476,88,o),
(476,158,cs),
(476,832,l)
);
}
);
vertWidth = 1000;
width = 1000;
}
);
note = cid09485;
unicode = 19971;
}
{
color = 4;
glyphname = uni4E07;
layers = (
{
layerId = m01;
shapes = (
{
closed = 1;
nodes = (
(66,749,l),
(66,719,l),
(935,719,l),
(935,749,l)
);
},
{
closed = 1;
nodes = (
(371,473,l),
(371,443,l),
(813,443,l),
(813,473,l)
);
},
{
closed = 1;
nodes = (
(804,473,l),
(791,242,o),
(778,14,o),
(732,-28,cs),
(722,-38,o),
(710,-40,o),
(685,-39,cs),
(661,-39,o),
(584,-39,o),
(504,-31,c),
(514,-61,l),
(585,-66,o),
(657,-68,o),
(691,-67,cs),
(723,-66,o),
(741,-62,o),
(758,-44,cs),
(808,6,o),
(820,227,o),
(834,473,c)
);
},
{
closed = 1;
nodes = (
(373,729,l),
(367,456,o),
(351,96,o),
(48,-57,c),
(71,-75,l),
(378,82,o),
(395,445,o),
(402,729,c)
);
}
);
vertWidth = 1000;
width = 1000;
},
{
layerId = "5029AEDF-C899-4409-998A-C73D58F94579";
shapes = (
{
closed = 1;
nodes = (
(57,790,l),
(57,648,l),
(944,648,l),
(944,790,l)
);
},
{
closed = 1;
nodes = (
(381,508,l),
(381,368,l),
(769,368,l),
(769,508,l)
);
},
{
closed = 1;
nodes = (
(716,508,l),
(710,335,o),
(703,104,o),
(662,67,cs),
(648,55,o),
(635,53,o),
(614,53,cs),
(583,53,o),
(517,53,o),
(450,59,c),
(502,-84,l),
(567,-86,o),
(635,-87,o),
(677,-81,cs),
(726,-75,o),
(762,-63,o),
(795,-24,cs),
(846,36,o),
(856,231,o),
(869,508,c)
);
},
{
closed = 1;
nodes = (
(271,668,l),
(263,428,o),
(265,174,o),
(11,28,c),
(116,-92,l),
(395,84,o),
(415,384,o),
(425,668,c)
);
}
);
vertWidth = 1000;
width = 1000;
}
);
note = cid09490;
unicode = 19975;
}
{
color = 4;
glyphname = uni4E08;
layers = (
{
layerId = m01;
shapes = (
{
closed = 1;
nodes = (
(71,621,l),
(71,592,l),
(931,592,l),
(931,621,l)
);
},
{
closed = 1;
nodes = (
(238,523,l),
(325,168,o),
(527,-16,o),
(933,-72,c),
(951,-46,l),
(546,6,o),
(347,188,o),
(265,531,c)
);
},
{
closed = 1;
nodes = (
(596,817,l),
(594,345,o),
(605,63,o),
(82,-42,c),
(98,-67,l),
(628,40,o),
(625,335,o),
(626,817,c)
);
}
);
vertWidth = 1000;
width = 1000;
},
{
layerId = "5029AEDF-C899-4409-998A-C73D58F94579";
shapes = (
{
closed = 1;
nodes = (
(53,683,l),
(53,541,l),
(949,541,l),
(949,683,l)
);
},
{
closed = 1;
nodes = (
(148,484,l),
(260,136,o),
(440,-38,o),
(869,-92,c),
(957,48,l),
(557,86,o),
(369,231,o),
(287,517,c)
);
},
{
closed = 1;
nodes = (
(526,838,l),
(522,390,o),
(552,154,o),
(44,46,c),
(128,-83,l),
(686,47,o),
(683,360,o),
(687,838,c)
);
}
);
vertWidth = 1000;
width = 1000;
}
);
note = cid09491;
unicode = 19976;
}
{
color = 7;
glyphname = uni4E09;
layers = (
{
layerId = m01;
shapes = (
{
closed = 1;
nodes = (
(127,732,l),
(127,703,l),
(877,703,l),
(877,732,l)
);
},
{
closed = 1;
nodes = (
(186,400,l),
(186,371,l),
(800,371,l),
(800,400,l)
);
},
{
closed = 1;
nodes = (
(68,44,l),
(68,15,l),
(933,15,l),
(933,44,l)
);
}
);
vertWidth = 1000;
width = 1000;
},
{
layerId = "5029AEDF-C899-4409-998A-C73D58F94579";
shapes = (
{
closed = 1;
nodes = (
(117,760,l),
(117,611,l),
(883,611,l),
(883,760,l)
);
},
{
closed = 1;
nodes = (
(189,441,l),
(189,293,l),
(802,293,l),
(802,441,l)
);
},
{
closed = 1;
nodes = (
(61,107,l),
(61,-42,l),
(935,-42,l),
(935,107,l)
);
}
);
vertWidth = 1000;
width = 1000;
}
);
note = cid09492;
unicode = 19977;
}
{
color = 7;
glyphname = uni4E0A;
layers = (
{
layerId = m01;
shapes = (
{
closed = 1;
nodes = (
(469,483,l),
(469,454,l),
(875,454,l),
(875,483,l)
);
},
{
closed = 1;
nodes = (
(59,5,l),
(59,-24,l),
(942,-24,l),
(942,5,l)
);
},
{
closed = 1;
nodes = (
(451,813,l),
(451,-8,l),
(480,-8,l),
(480,813,l)
);
}
);
vertWidth = 1000;
width = 1000;
},
{
layerId = "5029AEDF-C899-4409-998A-C73D58F94579";
shapes = (
{
closed = 1;
nodes = (
(472,568,l),
(472,421,l),
(891,421,l),
(891,568,l)
);
},
{
closed = 1;
nodes = (
(39,102,l),
(39,-45,l),
(962,-45,l),
(962,102,l)
);
},
{
closed = 1;
nodes = (
(390,844,l),
(390,20,l),
(547,20,l),
(547,844,l)
);
}
);
vertWidth = 1000;
width = 1000;
}
);
note = cid09493;
unicode = 19978;
}
{
color = 7;
glyphname = uni4E0B;
layers = (
{
layerId = m01;
shapes = (
{
closed = 1;
nodes = (
(59,756,l),
(59,726,l),
(942,726,l),
(942,756,l)
);
},
{
closed = 1;
nodes = (
(467,746,l),
(467,-70,l),
(496,-70,l),
(496,746,l)
);
},
{
closed = 1;
nodes = (
(486,514,l),
(616,450,o),
(776,354,o),
(859,293,c),
(876,319,l),
(793,378,o),
(633,472,o),
(503,534,c)
);
}
);
vertWidth = 1000;
width = 1000;
},
{
layerId = "5029AEDF-C899-4409-998A-C73D58F94579";
shapes = (
{
closed = 1;
nodes = (
(50,782,l),
(50,635,l),
(951,635,l),
(951,782,l)
);
},
{
closed = 1;
nodes = (
(400,646,l),
(400,-92,l),
(557,-92,l),
(557,646,l)
);
},
{
closed = 1;
nodes = (
(482,400,l),
(590,340,o),
(740,247,o),
(807,183,c),
(916,317,l),
(841,380,o),
(685,465,o),
(582,517,c)
);
}
);
vertWidth = 1000;
width = 1000;
}
);
note = cid09494;
unicode = 19979;
}
{
color = 4;
glyphname = uni4E0C;
layers = (
{
layerId = m01;
shapes = (
{
closed = 1;
nodes = (
(85,714,l),
(85,684,l),
(916,684,l),
(916,714,l)
);
},
{
closed = 1;
nodes = (
(683,705,l),
(683,-67,l),
(713,-67,l),
(713,705,l)
);
},
{
closed = 1;
nodes = (
(287,709,l),
(287,460,ls),
(287,281,o),
(266,92,o),
(47,-54,c),
(69,-74,l),
(293,76,o),
(317,272,o),
(317,460,cs),
(317,709,l)
);
}
);
vertWidth = 1000;
width = 1000;
},
{
layerId = "5029AEDF-C899-4409-998A-C73D58F94579";
shapes = (
{
closed = 1;
nodes = (
(66,795,l),
(66,645,l),
(944,645,l),
(944,795,l)
);
},
{
closed = 1;
nodes = (
(612,737,l),
(612,-87,l),
(767,-87,l),
(767,737,l)
);
},
{
closed = 1;
nodes = (
(239,737,l),
(239,476,ls),
(239,324,o),
(217,138,o),
(28,20,c),
(142,-102,l),
(368,45,o),
(396,280,o),
(396,475,cs),
(396,737,l)
);
}
);
vertWidth = 1000;
width = 1000;
}
);
note = cid09495;
unicode = 19980;
}
{
color = 4;
glyphname = uni4E0D;
layers = (
{
layerId = m01;
shapes = (
{
closed = 1;
nodes = (
(74,757,l),
(74,727,l),
(925,727,l),
(925,757,l)
);
},
{
closed = 1;
nodes = (
(571,509,l),
(698,433,o),
(850,321,o),
(925,246,c),
(945,269,l),
(869,343,o),
(718,453,o),
(590,527,c)
);
},
{
closed = 1;
nodes = (
(574,749,l),
(471,552,o),
(276,361,o),
(55,245,c),
(75,223,l),
(298,342,o),
(490,534,o),
(603,737,c)
);
},
{
closed = 1;
nodes = (
(483,592,l),
(483,-69,l),
(513,-69,l),
(513,621,l),
(513,621,l)
);
}
);
vertWidth = 1000;
width = 1000;
},
{
layerId = "5029AEDF-C899-4409-998A-C73D58F94579";
shapes = (
{
closed = 1;
nodes = (
(62,790,l),
(62,641,l),
(940,641,l),
(940,790,l)
);
},
{
closed = 1;
nodes = (
(541,430,l),
(647,343,o),
(794,217,o),
(858,136,c),
(983,248,l),
(911,329,o),
(756,446,o),
(655,525,c)
);
},
{
closed = 1;
nodes = (
(489,734,l),
(411,561,o),
(239,367,o),
(27,270,c),
(127,137,l),
(359,257,o),
(538,464,o),
(652,677,c)
);
},
{
closed = 1;
nodes = (
(421,468,l),
(421,-93,l),
(581,-93,l),
(581,627,l),
(581,628,l)
);
}
);
vertWidth = 1000;
width = 1000;
}
);
note = cid09496;
unicode = 19981;
}
{
color = 4;
glyphname = uni4E0E;
layers = (
{
layerId = m01;
shapes = (
{
closed = 1;
nodes = (
(194,422,l),
(194,392,l),
(848,392,l),
(848,422,l)
);
},
{
closed = 1;
nodes = (
(250,675,l),
(250,646,l),
(864,646,l),
(864,675,l)
);
},
{
closed = 1;
nodes = (
(66,215,l),
(66,185,l),
(688,185,l),
(688,215,l)
);
},
{
closed = 1;
nodes = (
(837,422,l),
(816,217,o),
(793,28,o),
(737,-20,cs),
(726,-30,o),
(713,-31,o),
(687,-31,cs),
(662,-31,o),
(588,-30,o),
(511,-23,c),
(521,-52,l),
(591,-58,o),
(661,-60,o),
(692,-60,cs),
(725,-59,o),
(743,-55,o),
(762,-38,cs),
(820,14,o),
(843,204,o),
(868,422,c)
);
},
{
closed = 1;
nodes = (
(273,803,l),
(173,392,l),
(204,392,l),
(301,799,l)
);
}
);
vertWidth = 1000;
width = 1000;
},
{
layerId = "5029AEDF-C899-4409-998A-C73D58F94579";
shapes = (
{
closed = 1;
nodes = (
(278,493,l),
(278,359,l),
(810,359,l),
(810,493,l)
);
},
{
closed = 1;
nodes = (
(318,743,l),
(318,604,l),
(895,604,l),
(895,743,l)
);
},
{
closed = 1;
nodes = (
(44,274,l),
(44,135,l),
(670,135,l),
(670,274,l)
);
},
{
closed = 1;
nodes = (
(777,493,l),
(764,309,o),
(746,107,o),
(697,70,cs),
(681,58,o),
(665,57,o),
(641,57,cs),
(605,57,o),
(521,57,o),
(441,64,c),
(498,-82,l),
(571,-84,o),
(645,-85,o),
(690,-80,cs),
(748,-75,o),
(786,-64,o),
(824,-24,cs),
(886,41,o),
(905,223,o),
(927,493,c)
);
},
{
closed = 1;
nodes = (
(241,842,l),
(150,360,l),
(305,359,l),
(391,828,l)
);
}
);
vertWidth = 1000;
width = 1000;
}
);
note = cid09498;
unicode = 19982;
}
{
color = 4;
glyphname = uni4E10;
layers = (
{
layerId = m01;
shapes = (
{
closed = 1;
nodes = (
(179,297,l),
(179,268,l),
(894,268,l),
(894,297,l)
);
},
{
closed = 1;
nodes = (
(79,752,l),
(79,722,l),
(926,722,l),
(926,752,l)
);
},
{
closed = 1;
nodes = (
(498,526,l),
(498,497,l),
(865,497,l),
(865,526,l)
);
},
{
closed = 1;
nodes = (
(883,297,l),
(866,142,o),
(847,1,o),
(803,-36,cs),
(793,-45,o),
(780,-46,o),
(755,-46,cs),
(731,-46,o),
(657,-45,o),
(580,-37,c),
(590,-66,l),
(662,-72,o),
(730,-73,o),
(761,-73,cs),
(792,-72,o),
(809,-69,o),
(825,-55,cs),
(875,-12,o),
(893,129,o),
(914,297,c)
);
},
{
closed = 1;
nodes = (
(482,726,l),
(482,294,l),
(513,294,l),
(513,726,l)
);
},
{
closed = 1;
nodes = (
(199,573,l),
(153,268,l),
(184,268,l),
(230,571,l)
);
}
);
vertWidth = 1000;
width = 1000;
},
{
layerId = "5029AEDF-C899-4409-998A-C73D58F94579";
shapes = (
{
closed = 1;
nodes = (
(199,347,l),
(199,207,l),
(812,207,l),
(812,347,l)
);
},
{
closed = 1;
nodes = (
(58,795,l),
(58,656,l),
(945,656,l),
(945,795,l)
);
},
{
closed = 1;
nodes = (
(498,572,l),
(498,437,l),
(890,437,l),
(890,572,l)
);
},
{
closed = 1;
nodes = (
(783,347,l),
(771,217,o),
(757,81,o),
(714,52,cs),
(697,42,o),
(678,42,o),
(651,42,cs),
(607,42,o),
(500,43,o),
(408,50,c),
(469,-92,l),
(553,-94,o),
(636,-95,o),
(686,-92,cs),
(755,-89,o),
(798,-79,o),
(838,-41,cs),
(893,10,o),
(913,133,o),
(935,347,c)
);
},
{
closed = 1;
nodes = (
(414,727,l),
(414,299,l),
(571,299,l),
(571,727,l)
);
},
{
closed = 1;
nodes = (
(146,596,l),
(103,207,l),
(257,207,l),
(299,587,l)
);
}
);
vertWidth = 1000;
width = 1000;
}
);
note = cid09504;
unicode = 19984;
}
{
color = 4;
glyphname = uni4E11;
layers = (
{
layerId = m01;
shapes = (
{
closed = 1;
nodes = (
(112,743,l),
(112,714,l),
(766,714,l),
(766,743,l)
);
},
{
closed = 1;
nodes = (
(50,-9,l),
(50,-38,l),
(951,-38,l),
(951,-9,l)
);
},
{
closed = 1;
nodes = (
(133,388,l),
(133,359,l),
(746,359,l),
(746,388,l)
);
},
{
closed = 1;
nodes = (
(373,734,l),
(301,-34,l),
(331,-34,l),
(402,734,l)
);
},
{
closed = 1;
nodes = (
(756,743,l),
(707,-34,l),
(736,-34,l),
(784,743,l)
);
}
);
vertWidth = 1000;
width = 1000;
},
{
layerId = "5029AEDF-C899-4409-998A-C73D58F94579";
shapes = (
{
closed = 1;
nodes = (
(111,827,l),
(111,681,l),
(760,681,l),
(760,827,l)
);
},
{
closed = 1;
nodes = (
(40,74,l),
(40,-69,l),
(963,-69,l),
(963,74,l)
);
},
{
closed = 1;
nodes = (
(136,468,l),
(136,321,l),
(744,321,l),
(744,468,l)
);
},
{
closed = 1;
nodes = (
(334,724,l),
(265,21,l),
(421,21,l),
(487,724,l)
);
},
{
closed = 1;
nodes = (
(706,827,l),
(666,17,l),
(825,17,l),
(863,827,l)
);
}
);
vertWidth = 1000;
width = 1000;
}
);
note = cid09507;
unicode = 19985;
}
{
color = 4;
glyphname = uni4E13;
layers = (
{
layerId = m01;
shapes = (
{
closed = 1;
nodes = (
(63,517,l),
(63,487,l),
(915,487,l),
(915,517,l)
);
},
{
closed = 1;
nodes = (
(141,699,l),
(141,670,l),
(843,670,l),
(843,699,l)
);
},
{
closed = 1;
nodes = (
(291,347,l),
(291,318,l),
(786,318,l),
(786,347,l)
);
},
{
closed = 1;
nodes = (
(780,347,l),
(780,341,l),
(491,62,l),
(517,45,l),
(816,335,l),
(795,347,l)
);
},
{
closed = 1;
nodes = (
(269,125,l),
(416,76,o),
(597,-7,o),
(689,-66,c),
(710,-42,l),
(615,19,o),
(434,98,o),
(289,145,c)
);
},
{
closed = 1;
nodes = (
(455,828,l),
(268,318,l),
(298,318,l),
(482,823,l)
);
}
);
vertWidth = 1000;
width = 1000;
},
{
layerId = "5029AEDF-C899-4409-998A-C73D58F94579";
shapes = (
{
closed = 1;
nodes = (
(46,570,l),
(46,431,l),
(951,431,l),
(951,570,l)
);
},
{
closed = 1;
nodes = (
(131,774,l),
(131,636,l),
(879,636,l),
(879,774,l)
);
},
{
closed = 1;
nodes = (
(328,363,l),
(328,228,l),
(806,228,l),
(806,363,l)
);
},
{
closed = 1;
nodes = (
(757,363,l),
(757,348,l),
(477,68,l),
(608,-8,l),
(919,306,l),
(834,363,l)
);
},
{
closed = 1;
nodes = (
(239,76,l),
(403,36,o),
(629,-44,o),
(737,-104,c),
(821,23,l),
(703,82,o),
(472,154,o),
(316,186,c)
);
},
{
closed = 1;
nodes = (
(379,864,l),
(211,229,l),
(367,228,l),
(532,845,l)
);
}
);
vertWidth = 1000;
width = 1000;
}
);
note = cid09509;
unicode = 19987;
}
{
color = 7;
glyphname = uni4E14;
layers = (
{
layerId = m01;
shapes = (
{
closed = 1;
nodes = (
(59,5,l),
(59,-24,l),
(942,-24,l),
(942,5,l)
);
},
{
closed = 1;
nodes = (
(240,517,l),
(240,487,l),
(766,487,l),
(766,517,l)
);
},
{
closed = 1;
nodes = (
(240,258,l),
(240,229,l),
(766,229,l),
(766,258,l)
);
},
{
closed = 1;
nodes = (
(224,768,l),
(224,-10,l),
(253,-10,l),
(253,738,l),
(752,738,l),
(752,-10,l),
(781,-10,l),
(781,768,l)
);
}
);
vertWidth = 1000;
width = 1000;
},
{
layerId = "5029AEDF-C899-4409-998A-C73D58F94579";
shapes = (
{
closed = 1;
nodes = (
(46,87,l),
(46,-55,l),
(956,-55,l),
(956,87,l)
);
},
{
closed = 1;
nodes = (
(276,565,l),
(276,431,l),
(722,431,l),
(722,565,l)
);
},
{
closed = 1;
nodes = (
(276,331,l),
(276,191,l),
(722,191,l),
(722,331,l)
);
},
{
closed = 1;
nodes = (
(193,804,l),
(193,16,l),
(338,16,l),
(338,664,l),
(678,664,l),
(678,16,l),
(830,16,l),
(830,804,l)
);
}
);
vertWidth = 1000;
width = 1000;
}
);
note = cid09510;
unicode = 19988;
}
{
color = 4;
glyphname = uni4E15;
layers = (
{
layerId = m01;
shapes = (
{
closed = 1;
nodes = (
(81,751,l),
(81,721,l),
(919,721,l),
(919,751,l)
);
},
{
closed = 1;
nodes = (
(59,8,l),
(59,-21,l),
(942,-21,l),
(942,8,l)
);
},
{
closed = 1;
nodes = (
(563,739,l),
(452,526,o),
(267,357,o),
(50,253,c),
(75,229,l),
(287,339,o),
(474,507,o),
(590,728,c)
);
},
{
closed = 1;
nodes = (
(558,523,l),
(681,435,o),
(830,309,o),
(905,231,c),
(927,252,l),
(852,329,o),
(703,452,o),
(579,539,c)
);
},
{
closed = 1;
nodes = (
(483,592,l),
(483,62,l),
(513,62,l),
(513,621,l),
(513,621,l)
);
}
);
vertWidth = 1000;
width = 1000;
},
{
layerId = "5029AEDF-C899-4409-998A-C73D58F94579";
shapes = (
{
closed = 1;
nodes = (
(67,801,l),
(67,663,l),
(927,663,l),
(927,801,l)
);
},
{
closed = 1;
nodes = (
(50,73,l),
(50,-65,l),
(951,-65,l),
(951,73,l)
);
},
{
closed = 1;
nodes = (
(513,745,l),
(410,574,o),
(224,428,o),
(26,347,c),
(135,221,l),
(333,320,o),
(534,488,o),
(659,686,c)
);
},
{
closed = 1;
nodes = (
(591,464,l),
(677,390,o),
(795,284,o),
(847,217,c),
(963,316,l),
(905,383,o),
(781,483,o),
(698,550,c)
);
},
{
closed = 1;
nodes = (
(424,529,l),
(424,98,l),
(575,98,l),
(575,630,l),
(537,642,l)
);
}
);
vertWidth = 1000;
width = 1000;
}
);
note = cid09511;
unicode = 19989;
}
{
color = 7;
glyphname = uni4E16;
layers = (
{
layerId = m01;
shapes = (
{
closed = 1;
nodes = (
(58,571,l),
(58,541,l),
(945,541,l),
(945,571,l)
);
},
{
closed = 1;
nodes = (
(214,806,l),
(214,6,l),
(914,6,l),
(914,35,l),
(246,35,l),
(246,806,l)
);
},
{
closed = 1;
nodes = (
(475,829,l),
(475,206,l),
(778,206,l),
(778,817,l),
(749,817,l),
(749,235,l),
(504,235,l),
(504,829,l)
);
}
);
vertWidth = 1000;
width = 1000;
},
{
layerId = "5029AEDF-C899-4409-998A-C73D58F94579";
shapes = (
{
closed = 1;
nodes = (
(40,619,l),
(40,479,l),
(959,479,l),
(959,619,l)
);
},
{
closed = 1;
nodes = (
(170,824,l),
(170,-47,l),
(935,-47,l),
(935,94,l),
(321,94,l),
(321,824,l)
);
},
{
closed = 1;
nodes = (
(430,845,l),
(430,190,l),
(836,190,l),
(836,836,l),
(683,836,l),
(683,323,l),
(575,323,l),
(575,845,l)
);
}
);
vertWidth = 1000;
width = 1000;
}
);
note = cid09514;
unicode = 19990;
}
{
color = 7;
glyphname = uni4E18;
layers = (
{
layerId = m01;
shapes = (
{
closed = 1;
nodes = (
(59,17,l),
(59,-13,l),
(942,-13,l),
(942,17,l)
);
},
{
closed = 1;
nodes = (
(243,459,l),
(243,429,l),
(897,429,l),
(897,459,l)
);
},
{
closed = 1;
nodes = (
(225,708,l),
(225,-5,l),
(254,-5,l),
(254,705,l)
);
},
{
closed = 1;
nodes = (
(675,450,l),
(675,-5,l),
(705,-5,l),
(705,450,l)
);
},
{
closed = 1;
nodes = (
(809,787,l),
(686,742,o),
(422,718,o),
(225,708,c),
(229,700,o),
(232,688,o),
(233,680,c),
(432,690,o),
(695,715,o),
(826,762,c)
);
}
);
vertWidth = 1000;
width = 1000;
},
{
layerId = "5029AEDF-C899-4409-998A-C73D58F94579";
shapes = (
{
closed = 1;
nodes = (
(34,95,l),
(34,-48,l),
(966,-48,l),
(966,95,l)
);
},
{
closed = 1;
nodes = (
(254,506,l),
(254,364,l),
(907,364,l),
(907,506,l)
);
},
{
closed = 1;
nodes = (
(184,759,l),
(184,-13,l),
(334,-13,l),
(334,728,l)
);
},
{
closed = 1;
nodes = (
(625,431,l),
(625,8,l),
(775,8,l),
(775,431,l)
);
},
{
closed = 1;
nodes = (
(744,850,l),
(598,801,o),
(386,771,o),
(184,759,c),
(201,724,o),
(220,666,o),
(224,628,c),
(427,637,o),
(656,664,o),
(833,720,c)
);
}
);
vertWidth = 1000;
width = 1000;
}
);
note = cid09517;
unicode = 19992;
}
{
color = 4;
glyphname = uni4E19;
layers = (
{
layerId = m01;
shapes = (
{
closed = 1;
nodes = (
(73,756,l),
(73,726,l),
(929,726,l),
(929,756,l)
);
},
{
closed = 1;
nodes = (
(119,544,l),
(119,-70,l),
(148,-70,l),
(148,515,l),
(868,515,l),
(868,544,l)
);
},
{
closed = 1;
nodes = (
(854,544,l),
(854,-13,ls),
(854,-29,o),
(850,-34,o),
(831,-35,cs),
(811,-36,o),
(748,-37,o),
(667,-35,c),
(679,-67,l),
(767,-67,o),
(823,-67,o),
(849,-62,cs),
(875,-56,o),
(883,-42,o),
(883,-12,cs),
(883,544,l)
);
},
{
closed = 1;
nodes = (
(466,398,l),
(574,315,o),
(703,195,o),
(766,121,c),
(789,140,l),
(724,215,o),
(596,331,o),
(488,414,c)
);
},
{
closed = 1;
nodes = (
(479,742,l),
(479,573,ls),
(479,442,o),
(467,257,o),
(197,127,c),
(217,104,l),
(491,242,o),
(509,433,o),
(509,573,cs),
(509,742,l)
);
}
);
vertWidth = 1000;
width = 1000;
},
{
layerId = "5029AEDF-C899-4409-998A-C73D58F94579";
shapes = (
{
closed = 1;
nodes = (
(59,800,l),
(59,657,l),
(937,657,l),
(937,800,l)
);
},
{
closed = 1;
nodes = (
(84,556,l),
(84,-93,l),
(230,-93,l),
(230,420,l),
(823,420,l),
(823,556,l)
);
},
{
closed = 1;
nodes = (
(773,556,l),
(773,72,ls),
(773,56,o),
(766,51,o),
(747,51,cs),
(728,51,o),
(654,50,o),
(602,54,c),
(649,-89,l),
(740,-89,o),
(806,-87,o),
(855,-65,cs),
(905,-43,o),
(920,-3,o),
(920,69,cs),
(920,556,l)
);
},
{
closed = 1;
nodes = (
(441,294,l),
(523,237,o),
(635,153,o),
(685,96,c),
(784,212,l),
(729,267,o),
(612,344,o),
(532,395,c)
);
},
{
closed = 1;
nodes = (
(418,693,l),
(418,520,ls),
(418,422,o),
(400,278,o),
(205,186,c),
(316,73,l),
(528,194,o),
(577,376,o),
(577,518,cs),
(577,693,l)
);
}
);
vertWidth = 1000;
width = 1000;
}
);
note = cid09518;
unicode = 19993;
}
{
color = 7;
glyphname = uni4E1A;
layers = (
{
layerId = m01;
shapes = (
{
closed = 1;
nodes = (
(69,16,l),
(69,-14,l),
(934,-14,l),
(934,16,l)
);
},
{
closed = 1;
nodes = (
(370,819,l),
(370,-1,l),
(399,-1,l),
(399,819,l)
);
},
{
closed = 1;
nodes = (
(604,817,l),
(604,-4,l),
(633,-4,l),
(633,817,l)
);
},
{
closed = 1;
nodes = (
(874,578,l),
(830,479,o),
(752,339,o),
(693,251,c),
(718,237,l),
(778,327,o),
(851,461,o),
(902,566,c)
);
},
{
closed = 1;
nodes = (
(100,573,l),
(160,470,o),
(226,328,o),
(253,247,c),
(283,260,l),
(254,340,o),
(188,478,o),
(129,582,c)
);
}
);
vertWidth = 1000;
width = 1000;
},
{
layerId = "5029AEDF-C899-4409-998A-C73D58F94579";
shapes = (
{
closed = 1;
nodes = (
(46,94,l),
(46,-51,l),
(956,-51,l),
(956,94,l)
);
},
{
closed = 1;
nodes = (
(294,842,l),
(294,41,l),
(444,41,l),
(444,842,l)
);
},
{
closed = 1;
nodes = (
(556,843,l),
(556,33,l),
(706,33,l),
(706,843,l)
);
},
{
closed = 1;
nodes = (
(822,653,l),
(790,524,o),
(729,371,o),
(680,275,c),
(800,213,l),
(850,312,o),
(910,457,o),
(954,590,c)
);
},
{
closed = 1;
nodes = (
(54,615,l),
(95,487,o),
(145,319,o),
(165,218,c),
(310,270,l),
(286,370,o),
(230,532,o),
(187,655,c)
);
}
);
vertWidth = 1000;
width = 1000;
}
);
note = cid09519;
unicode = 19994;
}
{
color = 4;
glyphname = uni4E1B;
layers = (
{
layerId = m01;
shapes = (
{
closed = 1;
nodes = (
(280,517,l),
(349,428,o),
(427,307,o),
(464,230,c),
(487,250,l),
(452,326,o),
(372,446,o),
(302,535,c)
);
},
{
closed = 1;
nodes = (
(651,628,l),
(681,453,o),
(754,204,o),
(916,69,c),
(937,91,l),
(774,219,o),
(702,470,o),
(672,653,c)
);
},
{
closed = 1;
nodes = (
(306,818,l),
(289,484,o),
(246,240,o),
(79,87,c),
(104,68,l),
(272,231,o),
(316,469,o),
(336,817,c)
);
},
{
closed = 1;
nodes = (
(64,-4,l),
(64,-33,l),
(938,-33,l),
(938,-4,l)
);
},
{
closed = 1;
nodes = (
(662,815,l),
(641,470,o),
(589,228,o),
(399,80,c),
(425,59,l),
(615,220,o),
(669,454,o),
(692,813,c)
);
}
);
vertWidth = 1000;
width = 1000;
},
{
layerId = "5029AEDF-C899-4409-998A-C73D58F94579";
shapes = (
{
closed = 1;
nodes = (
(233,557,l),
(304,469,o),
(387,348,o),
(425,271,c),
(538,383,l),
(496,458,o),
(414,569,o),
(338,654,c)
);
},
{
closed = 1;
nodes = (
(618,599,l),
(652,435,o),
(722,214,o),
(857,98,c),
(967,234,l),
(839,321,o),
(770,513,o),
(739,657,c)
);
},
{
closed = 1;
nodes = (
(222,849,l),
(213,570,o),
(176,331,o),
(42,200,c),
(164,83,l),
(313,247,o),
(363,516,o),
(380,841,c)
);
},
{
closed = 1;
nodes = (
(42,77,l),
(42,-76,l),
(961,-76,l),
(961,77,l)
);
},
{
closed = 1;
nodes = (
(622,849,l),
(609,557,o),
(561,322,o),
(401,196,c),
(523,78,l),
(696,236,o),
(758,501,o),
(781,840,c)
);
}
);
vertWidth = 1000;
width = 1000;
}
);
note = cid09520;
unicode = 19995;
}
{
color = 4;
glyphname = uni4E1C;
layers = (
{
background = {
shapes = (
{
closed = 1;
nodes = (
(189,347,l),
(200,355,o),
(224,360,o),
(288,360,cs),
(863,360,l),
(863,389,l),
(219,389,l),
(189,376,l)
);
},
{
closed = 1;
nodes = (
(189,357,o),
(218,369,o),
(218,369,c),
(218,370,l),
(307,488,o),
(394,656,o),
(461,813,c),
(435,833,l),
(375,676,o),
(275,507,o),
(245,463,cs),
(217,418,o),
(194,384,o),
(178,380,c),
(189,347,l)
);
}
);
};
layerId = m01;
shapes = (
{
closed = 1;
nodes = (
(185,359,l),
(288,360,l),
(863,360,l),
(863,389,l),
(219,389,l),
(189,376,l)
);
},
{
closed = 1;
nodes = (
(526,556,l),
(526,-9,ls),
(526,-23,o),
(523,-27,o),
(508,-28,cs),
(491,-29,o),
(440,-29,o),
(376,-28,c),
(389,-61,l),
(458,-61,o),
(504,-61,o),
(526,-55,cs),
(548,-48,o),
(556,-37,o),
(556,-9,cs),
(556,556,l)
);
},
{
closed = 1;
nodes = (
(282,262,l),
(236,164,o),
(162,68,o),
(85,3,c),
(110,-17,l),
(184,50,o),
(261,151,o),
(311,254,c)
);
},
{
closed = 1;
nodes = (
(669,249,l),
(754,171,o),
(851,61,o),
(895,-10,c),
(919,9,l),
(874,79,o),
(777,186,o),
(691,264,c)
);
},
{
closed = 1;
nodes = (
(84,693,l),
(84,664,l),
(901,664,l),
(901,693,l)
);
},
{
closed = 1;
nodes = (
(185,369,o),
(218,369,o),
(218,369,c),
(218,370,l),
(307,488,o),
(394,656,o),
(461,813,c),
(435,833,l),
(375,676,o),
(275,507,o),
(245,463,cs),
(218,420,o),
(192,389,o),
(176,385,c),
(185,359,l)
);
}
);
vertWidth = 1000;
width = 1000;
},
{
layerId = "5029AEDF-C899-4409-998A-C73D58F94579";
shapes = (
{
closed = 1;
nodes = (
(153,309,l),
(282,310,l),
(891,310,l),
(892,451,l),
(239,451,l),
(159,403,l)
);
},
{
closed = 1;
nodes = (
(478,567,l),
(478,76,ls),
(478,62,o),
(473,58,o),
(456,58,cs),
(439,57,o),
(383,58,o),
(335,60,c),
(388,-88,l),
(462,-88,o),
(522,-84,o),
(567,-60,cs),
(613,-37,o),
(626,3,o),
(626,73,cs),
(626,567,l)
);
},
{
closed = 1;
nodes = (
(218,260,l),
(184,170,o),
(120,78,o),
(50,22,c),
(173,-71,l),
(244,-2,o),
(319,110,o),
(364,220,c)
);
},
{
closed = 1;
nodes = (
(662,202,l),
(727,124,o),
(806,16,o),
(839,-52,c),
(973,15,l),
(935,85,o),
(851,187,o),
(786,260,c)
);
},
{
closed = 1;
nodes = (
(67,730,l),
(67,591,l),
(941,591,l),
(941,730,l)
);
},
{
closed = 1;
nodes = (
(153,336,o),
(270,372,o),
(270,372,c),
(270,375,l),
(366,487,o),
(477,643,o),
(560,812,c),
(397,866,l),
(332,709,o),
(231,553,o),
(194,512,cs),
(160,470,o),
(139,449,o),
(106,440,c),
(153,309,l)
);
}
);
vertWidth = 1000;
width = 1000;
}
);
note = cid09521;
unicode = 19996;
}
{
color = 4;
glyphname = uni4E1D;
layers = (
{
guides = (
{
angle = 183.7801;
pos = (360,439);
},
{
angle = 184.126;
pos = (761,447);
},
{
angle = 184.0572;
pos = (462,187);
},
{
angle = 183.0513;
pos = (891,189);
}
);
layerId = m01;
shapes = (
{
closed = 1;
nodes = (
(109,431,o),
(138,436,o),
(138,436,c),
(138,437,l),
(216,534,o),
(293,671,o),
(358,808,c),
(329,821,l),
(275,691,o),
(186,551,o),
(160,515,cs),
(135,478,o),
(116,451,o),
(100,448,c),
(109,422,l)
);
},
{
closed = 1;
nodes = (
(109,422,l),
(360,439,l),
(362,446,o),
(368,459,o),
(372,468,c),
(135,454,l),
(111,442,l)
);
},
{
closed = 1;
nodes = (
(117,172,o),
(147,176,o),
(147,176,c),
(147,177,l),
(263,288,o),
(380,444,o),
(486,606,c),
(458,621,l),
(366,467,o),
(232,306,o),
(192,265,cs),
(156,223,o),
(127,192,o),
(108,188,c),
(117,162,l)
);
},
{
closed = 1;
nodes = (
(117,162,l),
(462,187,l),
(463,215,l),
(145,195,l),
(119,182,l)
);
},
{
closed = 1;
nodes = (
(510,438,o),
(539,444,o),
(539,444,c),
(539,445,l),
(618,541,o),
(696,676,o),
(762,812,c),
(733,825,l),
(677,696,o),
(588,557,o),
(562,522,cs),
(537,485,o),
(517,459,o),
(501,456,c),
(510,429,l)
);
},
{
closed = 1;
nodes = (
(510,429,l),
(761,447,l),
(763,454,o),
(769,467,o),
(772,475,c),
(536,462,l),
(512,450,l)
);
},
{
closed = 1;
nodes = (
(518,179,o),
(548,181,o),
(548,181,c),
(548,182,l),
(666,290,o),
(786,441,o),
(894,600,c),
(866,615,l),
(771,465,o),
(635,308,o),
(595,268,cs),
(558,228,o),
(527,198,o),
(509,194,c),
(518,169,l)
);
},
{
closed = 1;
nodes = (
(518,169,l),
(891,189,l),
(893,218,l),
(546,200,l),
(520,187,l)
);
},
{
closed = 1;
nodes = (
(58,28,l),
(58,-2,l),
(936,-2,l),
(936,28,l)
);
}
);
vertWidth = 1000;
width = 1000;
},
{
guides = (
{
angle = 181.5617;
pos = (316,407);
},
{
angle = 183.2126;
pos = (938,163);
},
{
angle = 183.3515;
pos = (479,157);
},
{
angle = 181.5618;
pos = (737,409);
}
);
layerId = "5029AEDF-C899-4409-998A-C73D58F94579";
shapes = (
{
closed = 1;
nodes = (
(95,425,o),
(182,453,o),
(182,453,c),
(182,456,l),
(253,548,o),
(331,682,o),
(381,809,c),
(245,859,l),
(210,737,o),
(142,606,o),
(120,574,cs),
(97,539,o),
(80,519,o),
(56,512,c),
(95,401,l)
);
},
{
closed = 1;
nodes = (
(95,401,l),
(316,407,l),
(325,438,o),
(349,493,o),
(369,529,c),
(164,526,l),
(100,486,l)
);
},
{
closed = 1;
nodes = (
(115,160,o),
(202,188,o),
(202,188,c),
(202,192,l),
(318,307,o),
(444,470,o),
(533,637,c),
(404,703,l),
(332,539,o),
(208,369,o),
(167,326,cs),
(129,283,o),
(105,259,o),
(73,250,c),
(115,136,l)
);
},
{
closed = 1;
nodes = (
(115,136,l),
(475,157,l),
(486,285,l),
(189,274,l),
(118,231,l)
);
},
{
closed = 1;
nodes = (
(523,427,o),
(609,455,o),
(609,455,c),
(609,459,l),
(682,548,o),
(763,679,o),
(816,804,c),
(680,856,l),
(642,735,o),
(572,608,o),
(548,576,cs),
(525,542,o),
(507,522,o),
(483,515,c),
(523,403,l)
);
},
{
closed = 1;
nodes = (
(523,403,l),
(743,410,l),
(752,441,o),
(776,496,o),
(796,532,c),
(591,529,l),
(527,489,l)
);
},
{
closed = 1;
nodes = (
(535,164,o),
(622,191,o),
(622,191,c),
(622,195,l),
(745,306,o),
(878,463,o),
(975,628,c),
(848,696,l),
(768,534,o),
(636,369,o),
(593,327,cs),
(552,285,o),
(527,262,o),
(495,254,c),
(535,140,l)
);
},
{
closed = 1;
nodes = (
(535,140,l),
(938,163,l),
(950,291,l),
(612,279,l),
(539,235,l)
);
},
{
closed = 1;
nodes = (
(42,81,l),
(42,-52,l),
(961,-52,l),
(961,81,l)
);
}
);
vertWidth = 1000;
width = 1000;
}
);
note = cid09522;
unicode = 19997;
}
{
color = 4;
glyphname = uni4E1E;
layers = (
{
layerId = m01;
shapes = (
{
closed = 1;
nodes = (
(184,781,l),
(184,752,l),
(771,752,l),
(771,781,l)
);
},
{
closed = 1;
nodes = (
(95,562,l),
(95,532,l),
(387,532,l),
(387,562,l)
);
},
{
closed = 1;
nodes = (
(84,5,l),
(84,-24,l),
(910,-24,l),
(910,5,l)
);
},
{
closed = 1;
nodes = (
(488,574,l),
(488,123,ls),
(488,107,o),
(483,102,o),
(465,101,cs),
(445,99,o),
(381,99,o),
(298,101,c),
(311,72,l),
(405,72,o),
(459,72,o),
(484,77,cs),
(509,82,o),
(518,94,o),
(518,124,cs),
(518,574,l)
);
},
{
closed = 1;
nodes = (
(542,592,l),
(612,386,o),
(749,197,o),
(909,114,c),
(929,136,l),
(770,213,o),
(632,399,o),
(566,600,c)
);
},
{
closed = 1;
nodes = (
(762,781,l),
(762,774,l),
(698,706,o),
(581,622,o),
(488,574,c),
(495,571,o),
(504,563,o),
(509,556,c),
(601,606,o),
(721,689,o),
(797,768,c),
(785,781,l)
);
},
{
closed = 1;
nodes = (
(877,600,l),
(824,527,o),
(731,425,o),
(664,365,c),
(683,349,l),
(752,409,o),
(841,506,o),
(902,582,c)
);
},
{
closed = 1;
nodes = (
(378,562,l),
(378,554,l),
(328,360,o),
(203,212,o),
(71,132,c),
(90,110,l),
(226,195,o),
(352,345,o),
(408,554,c),
(398,562,l)
);
}
);
vertWidth = 1000;
width = 1000;
},
{
layerId = "5029AEDF-C899-4409-998A-C73D58F94579";
shapes = (
{
closed = 1;
nodes = (
(153,838,l),
(153,709,l),
(676,709,l),
(676,838,l)
);
},
{
closed = 1;
nodes = (
(56,618,l),
(56,492,l),
(318,492,l),
(318,618,l)
);
},
{
closed = 1;
nodes = (
(50,66,l),
(50,-73,l),
(951,-73,l),
(951,66,l)
);
},
{
closed = 1;
nodes = (
(425,627,l),
(425,231,ls),
(425,217,o),
(419,213,o),
(403,213,cs),
(388,213,o),
(328,213,o),
(286,215,c),
(329,83,l),
(407,83,o),
(468,84,o),
(514,104,cs),
(561,124,o),
(574,159,o),
(574,227,cs),
(574,627,l)
);
},
{
closed = 1;
nodes = (
(553,638,l),
(611,412,o),
(703,215,o),
(857,103,c),
(963,228,l),
(817,316,o),
(718,486,o),
(669,666,c)
);
},
{
closed = 1;
nodes = (
(643,838,l),
(643,809,l),
(605,756,o),
(510,673,o),
(425,627,c),
(447,607,o),
(486,566,o),
(504,540,c),
(617,597,o),
(728,687,o),
(811,768,c),
(737,838,l)
);
},
{
closed = 1;
nodes = (
(818,633,l),
(785,564,o),
(725,476,o),
(678,421,c),
(773,349,l),
(823,398,o),
(885,477,o),
(947,546,c)
);
},
{
closed = 1;
nodes = (
(267,618,l),
(267,591,l),
(233,419,o),
(139,276,o),
(14,201,c),
(128,100,l),
(258,188,o),
(363,358,o),
(411,585,c),
(349,618,l)
);
}
);
vertWidth = 1000;
width = 1000;
}
);
note = cid09524;
unicode = 19998;
}
{
color = 4;
glyphname = uni4E22;
layers = (
{
guides = (
{
angle = 184.1802;
pos = (824,33);
}
);
layerId = m01;
shapes = (
{
closed = 1;
nodes = (
(151,576,l),
(151,547,l),
(849,547,l),
(849,576,l)
);
},
{
closed = 1;
nodes = (
(63,367,l),
(63,337,l),
(937,337,l),
(937,367,l)
);
},
{
closed = 1;
nodes = (
(654,240,l),
(740,147,o),
(835,17,o),
(875,-65,c),
(906,-49,l),
(864,33,o),
(769,161,o),
(682,253,c)
);
},
{
closed = 1;
nodes = (
(485,748,l),
(485,346,l),
(514,346,l),
(514,748,l)
);
},
{
closed = 1;
nodes = (
(162,-6,o),
(196,-4,o),
(196,-4,c),
(196,-3,l),
(292,82,o),
(384,204,o),
(471,328,c),
(440,344,l),
(367,226,o),
(259,101,o),
(227,70,cs),
(196,37,o),
(171,13,o),
(152,11,c),
(162,-16,l)
);
},
{
closed = 1;
nodes = (
(162,-16,l),
(824,33,l),
(821,40,o),
(819,52,o),
(818,61,c),
(194,18,l),
(163,1,l)
);
},
{
closed = 1;
nodes = (
(825,821,l),
(675,781,o),
(370,757,o),
(133,747,c),
(142,717,l),
(381,725,o),
(685,750,o),
(848,793,c)
);
}
);
vertWidth = 1000;
width = 1000;
},
{
guides = (
{
angle = 184.9518;
pos = (780,11);
}
);
layerId = "5029AEDF-C899-4409-998A-C73D58F94579";
shapes = (
{
closed = 1;
nodes = (
(126,605,l),
(126,468,l),
(874,468,l),
(874,605,l)
);
},
{
closed = 1;
nodes = (
(51,405,l),
(51,270,l),
(947,270,l),
(947,405,l)
);
},
{
closed = 1;
nodes = (
(605,206,l),
(682,114,o),
(768,-11,o),
(800,-92,c),
(945,-31,l),
(906,55,o),
(814,174,o),
(737,260,c)
);
},
{
closed = 1;
nodes = (
(424,752,l),
(424,356,l),
(574,356,l),
(574,752,l)
);
},
{
closed = 1;
nodes = (
(114,-22,o),
(217,8,o),
(217,8,c),
(217,10,l),
(302,67,o),
(402,154,o),
(481,247,c),
(328,304,l),
(265,217,o),
(180,140,o),
(148,119,cs),
(119,97,o),
(98,83,o),
(72,78,c),
(114,-48,l)
);
},
{
closed = 1;
nodes = (
(114,-49,l),
(780,11,l),
(770,41,o),
(756,96,o),
(750,135,c),
(200,98,l),
(115,50,l)
);
},
{
closed = 1;
nodes = (
(799,855,l),
(619,817,o),
(337,797,o),
(80,793,c),
(115,662,l),
(375,663,o),
(676,682,o),
(910,731,c)
);
}
);
vertWidth = 1000;
width = 1000;
}
);
note = cid09530;
unicode = 20002;
}
{
color = 4;
glyphname = uni4E27;
layers = (
{
guides = (
{
angle = 193.8024;
pos = (542,21);
}
);
layerId = m01;
shapes = (
{
closed = 1;
nodes = (
(64,382,l),
(64,353,l),
(938,353,l),
(938,382,l)
);
},
{
closed = 1;
nodes = (
(104,706,l),
(104,676,l),
(903,676,l),
(903,706,l)
);
},
{
closed = 1;
nodes = (
(465,363,l),
(538,142,o),
(700,-5,o),
(931,-64,c),
(951,-39,l),
(720,14,o),
(560,160,o),
(490,372,c)
);
},
{
closed = 1;
nodes = (
(848,318,l),
(786,267,o),
(677,195,o),
(599,153,c),
(621,136,l),
(700,179,o),
(803,243,o),
(874,301,c)
);
},
{
closed = 1;
nodes = (
(485,831,l),
(485,359,l),
(514,359,l),
(514,831,l)
);
},
{
closed = 1;
nodes = (
(207,-61,l),
(542,21,l),
(542,50,l),
(233,-24,l),
(209,-41,l)
);
},
{
closed = 1;
nodes = (
(251,-28,ls),
(264,-18,o),
(269,-2,o),
(269,22,cs),
(269,371,l),
(237,371,l),
(237,22,ls),
(237,-16,o),
(207,-32,o),
(191,-38,c),
(207,-61,l)
);
},
{
closed = 1;
nodes = (
(762,627,l),
(730,572,o),
(672,490,o),
(629,442,c),
(653,430,l),
(697,478,o),
(750,553,o),
(790,615,c)
);
},
{
closed = 1;
nodes = (
(198,610,l),
(243,558,o),
(293,485,o),
(315,439,c),
(340,456,l),
(319,500,o),
(268,571,o),
(223,622,c)
);
}
);
vertWidth = 1000;
width = 1000;
},
{
guides = (
{
angle = 191.565;
pos = (516,-19);
}
);
layerId = "5029AEDF-C899-4409-998A-C73D58F94579";
shapes = (
{
closed = 1;
nodes = (
(40,427,l),
(40,296,l),
(963,296,l),
(963,427,l)
);
},
{
closed = 1;
nodes = (
(69,764,l),
(69,632,l),
(929,632,l),
(929,764,l)
);
},
{
closed = 1;
nodes = (
(416,309,l),
(503,93,o),
(637,-35,o),
(887,-90,c),
(976,38,l),
(747,75,o),
(610,178,o),
(545,340,c)
);
},
{
closed = 1;
nodes = (
(796,305,l),
(747,256,o),
(666,195,o),
(607,160,c),
(699,82,l),
(760,115,o),
(840,168,o),
(906,221,c)
);
},
{
closed = 1;
nodes = (
(421,856,l),
(421,325,l),
(565,325,l),
(565,856,l)
);
},
{
closed = 1;
nodes = (
(179,-88,l),
(516,-19,l),
(530,121,l),
(234,67,l),
(171,23,l)
);
},
{
closed = 1;
nodes = (
(286,-3,ls),
(316,21,o),
(336,65,o),
(336,103,cs),
(336,353,l),
(184,353,l),
(184,109,ls),
(184,66,o),
(155,42,o),
(129,30,c),
(179,-88,l)
);
},
{
closed = 1;
nodes = (
(719,644,l),
(696,588,o),
(653,514,o),
(616,465,c),
(728,417,l),
(768,459,o),
(818,525,o),
(867,590,c)
);
},
{
closed = 1;
nodes = (
(130,595,l),
(168,539,o),
(212,464,o),
(229,416,c),
(365,473,l),
(345,522,o),
(297,594,o),
(258,646,c)
);
}
);
vertWidth = 1000;
width = 1000;
}
);
note = cid09535;
unicode = 20007;
}
{
color = 7;
glyphname = uni4E28;
layers = (
{
layerId = m01;
shapes = (
{
closed = 1;
nodes = (
(483,829,l),
(483,-70,l),
(513,-70,l),
(513,829,l)
);
}
);
vertWidth = 1000;
width = 1000;
},
{
layerId = "5029AEDF-C899-4409-998A-C73D58F94579";
shapes = (
{
closed = 1;
nodes = (
(420,855,l),
(420,-95,l),
(580,-95,l),
(580,855,l)
);
}
);
vertWidth = 1000;
width = 1000;
}
);
note = cid09536;
unicode = 20008;
}
{
color = 4;
glyphname = uni4E2A;
layers = (
{
layerId = m01;
shapes = (
{
closed = 1;
nodes = (
(514,831,l),
(415,667,o),
(234,499,o),
(47,407,c),
(70,386,l),
(256,480,o),
(437,650,o),
(539,819,c)
);
},
{
closed = 1;
nodes = (
(487,779,l),
(590,618,o),
(734,496,o),
(934,384,c),
(956,407,l),
(757,514,o),
(610,632,o),
(511,789,c)
);
},
{
closed = 1;
nodes = (
(485,565,l),
(485,-70,l),
(515,-70,l),
(515,565,l)
);
}
);
vertWidth = 1000;
width = 1000;
},
{
layerId = "5029AEDF-C899-4409-998A-C73D58F94579";
shapes = (
{
closed = 1;
nodes = (
(494,857,l),
(391,685,o),
(208,574,o),
(16,508,c),
(123,364,l),
(322,454,o),
(507,591,o),
(625,795,c)
);
},
{
closed = 1;
nodes = (
(425,712,l),
(638,489,o),
(780,409,o),
(883,363,c),
(990,503,l),
(888,534,o),
(741,605,o),
(554,781,c)
);
},
{
closed = 1;
nodes = (
(422,515,l),
(422,-93,l),
(574,-93,l),
(574,515,l)
);
}
);
vertWidth = 1000;
width = 1000;
}
);
note = cid09540;
unicode = 20010;
}
{
color = 7;
glyphname = uni4E2B;
layers = (
{
layerId = m01;
shapes = (
{
closed = 1;
nodes = (
(485,503,l),
(485,-70,l),
(516,-70,l),
(516,503,l)
);
},
{
closed = 1;
nodes = (
(176,794,l),
(273,720,o),
(386,615,o),
(442,548,c),
(464,570,l),
(409,636,o),
(294,739,o),
(196,812,c)
);
},
{
closed = 1;
nodes = (
(815,810,l),
(720,716,o),
(579,584,o),
(485,504,c),
(509,489,l),
(603,572,o),
(744,701,o),
(842,797,c)
);
}
);
vertWidth = 1000;
width = 1000;
},
{
layerId = "5029AEDF-C899-4409-998A-C73D58F94579";
shapes = (
{
closed = 1;
nodes = (
(422,523,l),
(422,-94,l),
(577,-94,l),
(577,523,l)
);
},
{
closed = 1;
nodes = (
(96,752,l),
(183,691,o),
(294,601,o),
(341,539,c),
(463,641,l),
(408,704,o),
(292,788,o),
(208,842,c)
);
},
{
closed = 1;
nodes = (
(751,835,l),
(656,734,o),
(519,603,o),
(422,523,c),
(565,445,l),
(662,530,o),
(797,659,o),
(905,773,c)
);
}
);
vertWidth = 1000;
width = 1000;
}
);
note = cid09542;
unicode = 20011;
}
{
color = 7;
glyphname = uni4E2C;
layers = (
{
layerId = m01;
shapes = (
{
closed = 1;
nodes = (
(518,829,l),
(518,-70,l),
(547,-70,l),
(547,829,l)
);
},
{
closed = 1;
nodes = (
(268,128,l),
(344,173,o),
(444,233,o),
(539,292,c),
(529,319,l),
(427,256,o),
(319,192,o),
(247,154,c)
);
},
{
closed = 1;
nodes = (
(294,676,l),
(352,615,o),
(415,529,o),
(443,474,c),
(467,495,l),
(439,548,o),
(376,631,o),
(317,692,c)
);
}
);
vertWidth = 1000;
width = 1000;
},
{
layerId = "5029AEDF-C899-4409-998A-C73D58F94579";
shapes = (
{
closed = 1;
nodes = (
(461,855,l),
(461,-95,l),
(609,-95,l),
(609,855,l)
);
},
{
closed = 1;
nodes = (
(298,93,l),
(374,138,o),
(463,193,o),
(542,246,c),
(494,381,l),
(396,326,o),
(293,269,o),
(225,238,c)
);
},
{
closed = 1;
nodes = (
(235,684,l),
(276,618,o),
(320,531,o),
(335,474,c),
(461,547,l),
(443,604,o),
(394,687,o),
(351,749,c)
);
}
);
vertWidth = 1000;
width = 1000;
}
);
note = cid09543;
unicode = 20012;
}
{
color = 4;
glyphname = uni4E2D;
layers = (
{
layerId = m01;
shapes = (
{
closed = 1;
nodes = (
(105,647,l),
(105,230,l),
(890,230,l),
(890,647,l)
);
},
{
closed = 1;
nodes = (
(134,618,l),
(861,618,l),
(861,259,l),
(134,259,l)
);
},
{
closed = 1;
nodes = (
(482,831,l),
(482,-68,l),
(512,-68,l),
(512,831,l)
);
}
);
vertWidth = 1000;
width = 1000;
},
{
layerId = "5029AEDF-C899-4409-998A-C73D58F94579";
shapes = (
{
closed = 1;
nodes = (
(83,684,l),
(83,181,l),
(921,181,l),
(921,684,l)
);
},
{
closed = 1;
nodes = (
(229,541,l),
(768,541,l),
(768,324,l),
(229,324,l)
);
},
{
closed = 1;
nodes = (
(421,855,l),
(421,-95,l),
(575,-95,l),
(575,855,l)
);
}
);
vertWidth = 1000;
width = 1000;
}
);
note = cid09544;
unicode = 20013;
}
{
color = 7;
glyphname = uni4E30;
layers = (
{
layerId = m01;
shapes = (
{
closed = 1;
nodes = (
(145,455,l),
(145,425,l),
(856,425,l),
(856,455,l)
);
},
{
closed = 1;
nodes = (
(97,680,l),
(97,651,l),
(901,651,l),
(901,680,l)
);
},
{
closed = 1;
nodes = (
(59,214,l),
(59,184,l),
(942,184,l),
(942,214,l)
);
},
{
closed = 1;
nodes = (
(485,831,l),
(485,-68,l),
(515,-68,l),
(515,831,l)
);
}
);
vertWidth = 1000;
width = 1000;
},
{
layerId = "5029AEDF-C899-4409-998A-C73D58F94579";
shapes = (
{
closed = 1;
nodes = (
(131,495,l),
(131,356,l),
(874,356,l),
(874,495,l)
);
},
{
closed = 1;
nodes = (
(78,715,l),
(78,570,l),
(920,570,l),
(920,715,l)
);
},
{
closed = 1;
nodes = (
(44,271,l),
(44,125,l),
(958,125,l),
(958,271,l)
);
},
{
closed = 1;
nodes = (
(420,856,l),
(420,-94,l),
(577,-94,l),
(577,856,l)
);
}
);
vertWidth = 1000;
width = 1000;
}
);
note = cid09547;
unicode = 20016;
}
{
color = 4;
glyphname = uni4E32;
layers = (
{
layerId = m01;
shapes = (
{
closed = 1;
nodes = (
(482,831,l),
(482,-68,l),
(512,-68,l),
(512,831,l)
);
},
{
closed = 1;
nodes = (
(118,359,l),
(118,86,l),
(885,86,l),
(885,359,l)
);
},
{
closed = 1;
nodes = (
(147,329,l),
(856,329,l),
(856,115,l),
(147,115,l)
);
},
{
closed = 1;
nodes = (
(185,680,l),
(810,680,l),
(810,494,l),
(185,494,l)
);
},
{
closed = 1;
nodes = (
(156,710,l),
(156,465,l),
(839,465,l),
(839,710,l)
);
}
);
vertWidth = 1000;
width = 1000;
},
{
layerId = "5029AEDF-C899-4409-998A-C73D58F94579";
shapes = (
{
closed = 1;
nodes = (
(418,854,l),
(418,-96,l),
(576,-96,l),
(576,854,l)
);
},
{
closed = 1;
nodes = (
(84,384,l),
(84,34,l),
(924,34,l),
(924,384,l)
);
},
{
closed = 1;
nodes = (
(236,252,l),
(764,252,l),
(764,162,l),
(236,162,l)
);
},
{
closed = 1;
nodes = (
(276,621,l),
(721,621,l),
(721,557,l),
(276,557,l)
);
},
{
closed = 1;
nodes = (
(126,746,l),
(126,432,l),
(881,432,l),
(881,746,l)
);
}
);
vertWidth = 1000;
width = 1000;
}
);
note = cid09551;
unicode = 20018;
}
{
color = 4;
glyphname = uni4E34;
layers = (
{
layerId = m01;
shapes = (
{
closed = 1;
nodes = (
(107,700,l),
(107,78,l),
(136,78,l),
(136,700,l)
);
},
{
closed = 1;
nodes = (
(267,817,l),
(267,-65,l),
(296,-65,l),
(296,817,l)
);
},
{
closed = 1;
nodes = (
(533,835,l),
(494,700,o),
(432,570,o),
(353,482,c),
(380,468,l),
(455,557,o),
(520,688,o),
(562,829,c)
);
},
{
closed = 1;
nodes = (
(500,706,l),
(494,676,l),
(946,676,l),
(946,706,l)
);
},
{
closed = 1;
nodes = (
(582,593,l),
(640,545,o),
(713,477,o),
(749,436,c),
(771,458,l),
(736,496,o),
(663,562,o),
(603,611,c)
);
},
{
closed = 1;
nodes = (
(444,-11,l),
(444,-41,l),
(897,-41,l),
(897,-11,l)
);
},
{
closed = 1;
nodes = (
(653,362,l),
(653,-21,l),
(683,-21,l),
(683,362,l)
);
},
{
closed = 1;
nodes = (
(427,378,l),
(427,-41,l),
(458,-41,l),
(458,349,l),
(878,349,l),
(878,-41,l),
(909,-41,l),
(909,378,l)
);
}
);
vertWidth = 1000;
width = 1000;
},
{
layerId = "5029AEDF-C899-4409-998A-C73D58F94579";
shapes = (
{
closed = 1;
nodes = (
(51,749,l),
(51,11,l),
(186,11,l),
(186,749,l)
);
},
{
closed = 1;
nodes = (
(227,844,l),
(227,-83,l),
(370,-83,l),
(370,844,l)
);
},
{
closed = 1;
nodes = (
(515,860,l),
(485,720,o),
(424,585,o),
(340,506,c),
(466,422,l),
(550,516,o),
(621,669,o),
(660,832,c)
);
},
{
closed = 1;
nodes = (
(551,751,l),
(509,611,l),
(961,611,l),
(961,751,l)
);
},
{
closed = 1;
nodes = (
(582,534,l),
(643,487,o),
(720,419,o),
(758,380,c),
(854,485,l),
(813,523,o),
(739,579,o),
(676,621,c)
);
},
{
closed = 1;
nodes = (
(503,51,l),
(503,-83,l),
(868,-83,l),
(868,51,l)
);
},
{
closed = 1;
nodes = (
(621,294,l),
(621,-5,l),
(752,-5,l),
(752,294,l)
);
},
{
closed = 1;
nodes = (
(425,379,l),
(425,-83,l),
(564,-83,l),
(564,240,l),
(802,240,l),
(802,-83,l),
(948,-83,l),
(948,379,l)
);
}
);
vertWidth = 1000;
width = 1000;
}
);
note = cid09553;
unicode = 20020;
}
{
color = 4;
glyphname = uni4E36;
layers = (
{
layerId = m01;
shapes = (
{
closed = 1;
nodes = (
(281,592,l),
(429,487,o),
(600,334,o),
(680,233,c),
(706,255,l),
(623,355,o),
(453,506,o),
(305,610,c)
);
}
);
vertWidth = 1000;
width = 1000;
},
{
layerId = "5029AEDF-C899-4409-998A-C73D58F94579";
shapes = (
{
closed = 1;
nodes = (
(239,519,l),
(374,422,o),
(539,278,o),
(608,176,c),
(743,300,l),
(664,404,o),
(490,537,o),
(359,625,c)
);
}
);
vertWidth = 1000;
width = 1000;
}
);
note = cid09556;
unicode = 20022;
}
{
color = 4;
glyphname = uni4E38;
layers = (
{
layerId = m01;
shapes = (
{
closed = 1;
nodes = (
(398,827,l),
(397,515,o),
(398,114,o),
(37,-52,c),
(62,-73,l),
(426,101,o),
(426,503,o),
(427,827,c)
);
},
{
closed = 1;
nodes = (
(90,611,l),
(90,581,l),
(721,581,l),
(721,611,l)
);
},
{
closed = 1;
nodes = (
(707,611,l),
(707,15,ls),
(707,-41,o),
(722,-54,o),
(777,-54,cs),
(791,-54,o),
(888,-54,o),
(902,-54,cs),
(963,-54,o),
(970,-11,o),
(974,143,c),
(945,158,l),
(942,7,o),
(937,-24,o),
(901,-24,cs),
(879,-24,o),
(794,-24,o),
(777,-24,cs),
(743,-24,o),
(736,-17,o),
(736,14,cs),
(736,611,l)
);
},
{
closed = 1;
nodes = (
(134,417,l),
(285,339,o),
(459,218,o),
(542,131,c),
(566,153,l),
(479,240,o),
(306,359,o),
(156,436,c)
);
}
);
vertWidth = 1000;
width = 1000;
},
{
layerId = "5029AEDF-C899-4409-998A-C73D58F94579";
shapes = (
{
closed = 1;
nodes = (
(339,852,l),
(336,495,o),
(358,191,o),
(18,22,c),
(123,-96,l),
(492,100,o),
(493,461,o),
(496,852,c)
);
},
{
closed = 1;
nodes = (
(77,648,l),
(77,504,l),
(717,504,l),
(717,648,l)
);
},
{
closed = 1;
nodes = (
(630,648,l),
(630,114,ls),
(630,-37,o),
(666,-81,o),
(771,-81,cs),
(790,-81,o),
(829,-81,o),
(849,-81,cs),
(950,-81,o),
(984,-13,o),
(995,177,c),
(859,242,l),
(856,94,o),
(852,61,o),
(833,61,cs),
(826,61,o),
(807,61,o),
(800,61,cs),
(784,61,o),
(782,67,o),
(782,114,cs),
(782,648,l)
);
},
{
closed = 1;
nodes = (
(110,355,l),
(236,274,o),
(405,151,o),
(480,68,c),
(590,188,l),
(507,271,o),
(330,385,o),
(209,458,c)
);
}
);
vertWidth = 1000;
width = 1000;
}
);
note = cid09558;
unicode = 20024;
}
{
color = 4;
glyphname = uni4E39;
layers = (
{
layerId = m01;
shapes = (
{
closed = 1;
nodes = (
(229,768,l),
(229,739,l),
(785,739,l),
(785,768,l)
);
},
{
closed = 1;
nodes = (
(59,384,l),
(59,355,l),
(942,355,l),
(942,384,l)
);
},
{
closed = 1;
nodes = (
(211,768,l),
(211,441,ls),
(211,284,o),
(194,87,o),
(44,-54,c),
(65,-76,l),
(220,71,o),
(240,279,o),
(240,441,cs),
(240,768,l)
);
},
{
closed = 1;
nodes = (
(767,768,l),
(767,-12,ls),
(767,-33,o),
(759,-39,o),
(738,-40,cs),
(717,-41,o),
(644,-42,o),
(556,-40,c),
(570,-71,l),
(672,-71,o),
(730,-71,o),
(758,-65,cs),
(785,-60,o),
(796,-46,o),
(796,-11,cs),
(796,768,l)
);
},
{
closed = 1;
nodes = (
(376,644,l),
(455,586,o),
(549,502,o),
(594,448,c),
(619,470,l),
(573,523,o),
(479,605,o),
(399,662,c)
);
}
);
vertWidth = 1000;
width = 1000;
},
{
layerId = "5029AEDF-C899-4409-998A-C73D58F94579";
shapes = (
{
closed = 1;
nodes = (
(256,818,l),
(256,684,l),
(765,684,l),
(765,818,l)
);
},
{
closed = 1;
nodes = (
(44,431,l),
(44,292,l),
(958,292,l),
(958,431,l)
);
},
{
closed = 1;
nodes = (
(177,818,l),
(177,462,ls),
(177,314,o),
(165,129,o),
(20,8,c),
(130,-94,l),
(296,42,o),
(323,288,o),
(323,461,cs),
(323,818,l)
);
},
{
closed = 1;
nodes = (
(691,818,l),
(691,68,ls),
(691,48,o),
(683,41,o),
(661,40,cs),
(638,40,o),
(557,39,o),
(495,44,c),
(546,-97,l),
(650,-97,o),
(721,-95,o),
(771,-72,cs),
(820,-50,o),
(838,-12,o),
(838,66,cs),
(838,818,l)
);
},
{
closed = 1;
nodes = (
(367,592,l),
(420,545,o),
(493,478,o),
(524,435,c),
(634,526,l),
(597,568,o),
(522,631,o),
(469,673,c)
);
}
);
vertWidth = 1000;
width = 1000;
}
);
note = cid09560;
unicode = 20025;
}
{
color = 4;
glyphname = uni4E3A;
layers = (
{
layerId = m01;
shapes = (
{
closed = 1;
nodes = (
(90,583,l),
(90,554,l),
(868,554,l),
(868,583,l)
);
},
{
closed = 1;
nodes = (
(858,583,l),
(847,307,o),
(834,28,o),
(788,-18,c),
(778,-30,o),
(767,-32,o),
(744,-31,cs),
(721,-31,o),
(653,-31,o),
(580,-24,c),
(590,-54,l),
(652,-59,o),
(717,-61,o),
(749,-61,cs),
(780,-60,o),
(798,-54,o),
(815,-35,cs),
(868,22,o),
(877,344,o),
(887,583,c)
);
},
{
closed = 1;
nodes = (
(437,829,l),
(437,727,ls),
(437,506,o),
(419,200,o),
(60,-40,c),
(83,-61,l),
(446,183,o),
(467,499,o),
(467,727,cs),
(467,829,l)
);
},
{
closed = 1;
nodes = (
(188,786,l),
(232,741,o),
(282,677,o),
(305,637,c),
(329,654,l),
(306,694,o),
(256,756,o),
(212,800,c)
);
},
{
closed = 1;
nodes = (
(515,387,l),
(574,325,o),
(642,237,o),
(672,182,c),
(697,200,l),
(667,254,o),
(599,339,o),
(538,401,c)
);
}
);
vertWidth = 1000;
width = 1000;
},
{
layerId = "5029AEDF-C899-4409-998A-C73D58F94579";
shapes = (
{
closed = 1;
nodes = (
(69,625,l),
(69,478,l),
(830,478,l),
(830,625,l)
);
},
{
closed = 1;
nodes = (
(768,625,l),
(762,387,o),
(757,117,o),
(719,78,cs),
(706,65,o),
(695,61,o),
(676,61,cs),
(648,61,o),
(593,61,o),
(534,66,c),
(586,-87,l),
(646,-88,o),
(707,-89,o),
(747,-81,cs),
(792,-74,o),
(824,-61,o),
(856,-18,cs),
(906,47,o),
(911,289,o),
(922,625,c)
);
},
{
closed = 1;
nodes = (
(370,853,l),
(370,708,ls),
(370,522,o),
(344,216,o),
(46,35,c),
(162,-74,l),
(488,138,o),
(518,489,o),
(518,707,cs),
(518,853,l)
);
},
{
closed = 1;
nodes = (
(121,781,l),
(154,732,o),
(193,666,o),
(207,625,c),
(344,681,l),
(326,724,o),
(284,787,o),
(249,832,c)
);
},
{
closed = 1;
nodes = (
(473,345,l),
(512,287,o),
(558,209,o),
(576,159,c),
(707,223,l),
(686,273,o),
(636,347,o),
(596,401,c)
);
}
);
vertWidth = 1000;
width = 1000;
}
);
note = cid09561;
unicode = 20026;
}
{
color = 7;
glyphname = uni4E3B;
layers = (
{
layerId = m01;
shapes = (
{
closed = 1;
nodes = (
(111,620,l),
(111,590,l),
(892,590,l),
(892,620,l)
);
},
{
closed = 1;
nodes = (
(150,324,l),
(150,294,l),
(857,294,l),
(857,324,l)
);
},
{
closed = 1;
nodes = (
(61,-5,l),
(61,-34,l),
(944,-34,l),
(944,-5,l)
);
},
{
closed = 1;
nodes = (
(484,604,l),
(484,-18,l),
(514,-18,l),
(514,604,l)
);
},
{
closed = 1;
nodes = (
(402,807,l),
(468,756,o),
(543,682,o),
(578,634,c),
(602,651,l),
(566,699,o),
(490,771,o),
(425,821,c)
);
}
);
vertWidth = 1000;
width = 1000;
},
{
layerId = "5029AEDF-C899-4409-998A-C73D58F94579";
shapes = (
{
closed = 1;
nodes = (
(90,672,l),
(90,530,l),
(905,530,l),
(905,672,l)
);
},
{
closed = 1;
nodes = (
(147,382,l),
(147,242,l),
(854,242,l),
(854,382,l)
);
},
{
closed = 1;
nodes = (
(49,78,l),
(49,-65,l),
(954,-65,l),
(954,78,l)
);
},
{
closed = 1;
nodes = (
(420,546,l),
(420,1,l),
(581,1,l),
(581,546,l)
);
},
{
closed = 1;
nodes = (
(329,775,l),
(395,730,o),
(480,663,o),
(518,618,c),
(648,712,l),
(603,759,o),
(514,821,o),
(450,860,c)
);
}
);
vertWidth = 1000;
width = 1000;
}
);
note = cid09562;
unicode = 20027;
}
{
color = 4;
glyphname = uni4E3F;
layers = (
{
layerId = m01;
shapes = (
{
closed = 1;
nodes = (
(539,809,l),
(539,491,ls),
(539,292,o),
(511,100,o),
(240,-41,c),
(261,-64,l),
(537,82,o),
(569,282,o),
(569,491,cs),
(569,809,l)
);
}
);
vertWidth = 1000;
width = 1000;
},
{
layerId = "5029AEDF-C899-4409-998A-C73D58F94579";
shapes = (
{
closed = 1;
nodes = (
(457,825,l),
(457,524,ls),
(457,347,o),
(434,157,o),
(188,31,c),
(322,-83,l),
(590,67,o),
(617,310,o),
(617,523,cs),
(617,825,l)
);
}
);
vertWidth = 1000;
width = 1000;
}
);
note = cid09567;
unicode = 20031;
}
{
color = 4;
glyphname = uni4E43;
layers = (
{
layerId = m01;
shapes = (
{
closed = 1;
nodes = (
(585,398,l),
(585,368,l),
(855,368,l),
(855,398,l)
);
},
{
closed = 1;
nodes = (
(112,753,l),
(112,723,l),
(681,723,l),
(681,753,l)
);
},
{
closed = 1;
nodes = (
(291,746,l),
(291,699,ls),
(291,496,o),
(279,202,o),
(37,-52,c),
(62,-70,l),
(305,188,o),
(321,489,o),
(321,700,cs),
(321,746,l)
);
},
{
closed = 1;
nodes = (
(672,753,l),
(565,368,l),
(598,368,l),
(707,753,l)
);
},
{
closed = 1;
nodes = (
(846,398,l),
(835,212,o),
(825,29,o),
(786,-8,cs),
(777,-17,o),
(765,-18,o),
(741,-18,cs),
(718,-18,o),
(642,-17,o),
(564,-11,c),
(574,-39,l),
(645,-45,o),
(716,-47,o),
(748,-46,cs),
(779,-45,o),
(796,-41,o),
(812,-24,cs),
(854,16,o),
(864,193,o),
(875,398,c)
);
}
);
vertWidth = 1000;
width = 1000;
},
{
layerId = "5029AEDF-C899-4409-998A-C73D58F94579";
shapes = (
{
closed = 1;
nodes = (
(609,451,l),
(609,311,l),
(817,311,l),
(817,451,l)
);
},
{
closed = 1;
nodes = (
(74,802,l),
(74,660,l),
(678,660,l),
(678,802,l)
);
},
{
closed = 1;
nodes = (
(208,746,l),
(208,621,ls),
(208,466,o),
(194,187,o),
(14,25,c),
(129,-99,l),
(339,96,o),
(359,435,o),
(359,619,cs),
(359,746,l)
);
},
{
closed = 1;
nodes = (
(630,802,l),
(495,311,l),
(669,311,l),
(789,802,l)
);
},
{
closed = 1;
nodes = (
(764,451,l),
(759,293,o),
(755,117,o),
(719,87,cs),
(705,76,o),
(691,74,o),
(669,74,cs),
(634,74,o),
(559,75,o),
(486,81,c),
(547,-74,l),
(617,-75,o),
(689,-76,o),
(732,-70,cs),
(785,-65,o),
(825,-53,o),
(860,-13,cs),
(911,45,o),
(915,237,o),
(925,451,c)
);
}
);
vertWidth = 1000;
width = 1000;
}
);
note = cid09572;
unicode = 20035;
}
{
color = 4;
glyphname = uni4E45;
layers = (
{
layerId = m01;
shapes = (
{
closed = 1;
nodes = (
(359,830,l),
(291,631,o),
(182,451,o),
(44,335,c),
(70,316,l),
(205,436,o),
(316,616,o),
(388,823,c)
);
},
{
closed = 1;
nodes = (
(537,401,l),
(611,192,o),
(758,10,o),
(934,-70,c),
(956,-46,l),
(780,28,o),
(633,208,o),
(563,410,c)
);
},
{
closed = 1;
nodes = (
(298,658,l),
(286,628,l),
(629,628,l),
(629,658,l)
);
},
{
closed = 1;
nodes = (
(620,658,l),
(620,650,l),
(536,290,o),
(309,62,o),
(56,-51,c),
(79,-75,l),
(331,43,o),
(562,273,o),
(652,650,c),
(640,658,l)
);
}
);
vertWidth = 1000;
width = 1000;
},
{
layerId = "5029AEDF-C899-4409-998A-C73D58F94579";
shapes = (
{
closed = 1;
nodes = (
(301,855,l),
(249,667,o),
(149,496,o),
(16,398,c),
(147,288,l),
(281,406,o),
(394,602,o),
(461,818,c)
);
},
{
closed = 1;
nodes = (
(477,396,l),
(559,177,o),
(684,5,o),
(878,-92,c),
(984,40,l),
(807,114,o),
(679,266,o),
(618,437,c)
);
},
{
closed = 1;
nodes = (
(315,709,l),
(242,562,l),
(626,562,l),
(626,709,l)
);
},
{
closed = 1;
nodes = (
(571,709,l),
(571,677,l),
(497,358,o),
(296,141,o),
(26,36,c),
(140,-95,l),
(416,26,o),
(638,285,o),
(734,668,c),
(660,709,l)
);
}
);
vertWidth = 1000;
width = 1000;
}
);
note = cid09574;
unicode = 20037;
}
{
color = 4;
glyphname = uni4E47;
layers = (
{
layerId = m01;
shapes = (
{
closed = 1;
nodes = (
(402,690,l),
(402,42,ls),
(402,-39,o),
(432,-58,o),
(529,-58,cs),
(552,-58,o),
(800,-58,o),
(823,-58,cs),
(925,-58,o),
(939,-12,o),
(948,135,c),
(917,150,l),
(910,7,o),
(899,-28,o),
(827,-28,cs),
(775,-28,o),
(563,-28,o),
(525,-28,cs),
(448,-28,o),
(431,-13,o),
(431,40,cs),
(431,690,l)
);
},
{
closed = 1;
nodes = (
(795,824,l),
(647,752,o),
(345,689,o),
(89,647,c),
(98,621,l),
(360,665,o),
(657,725,o),
(824,802,c)
);
},
{
closed = 1;
nodes = (
(54,347,l),
(57,319,l),
(960,381,l),
(957,410,l)
);
}
);
vertWidth = 1000;
width = 1000;
},
{
layerId = "5029AEDF-C899-4409-998A-C73D58F94579";
shapes = (
{
closed = 1;
nodes = (
(363,657,l),
(363,119,ls),
(363,-42,o),
(408,-88,o),
(573,-88,cs),
(610,-88,o),
(735,-88,o),
(774,-88,cs),
(913,-88,o),
(958,-37,o),
(978,121,c),
(837,179,l),
(828,74,o),
(817,54,o),
(760,54,cs),
(730,54,o),
(617,54,o),
(588,54,cs),
(523,54,o),
(515,60,o),
(515,119,cs),
(515,657,l)
);
},
{
closed = 1;
nodes = (
(764,858,l),
(587,789,o),
(309,735,o),
(48,705,c),
(91,576,l),
(356,606,o),
(652,657,o),
(882,738,c)
);
},
{
closed = 1;
nodes = (
(28,398,l),
(42,253,l),
(980,334,l),
(967,473,l)
);
}
);
vertWidth = 1000;
width = 1000;
}
);
note = cid09576;
unicode = 20039;
}
{
color = 4;
glyphname = uni4E48;
layers = (
{
guides = (
{
angle = 184.9595;
pos = (845,57);
}
);
layerId = m01;
shapes = (
{
closed = 1;
nodes = (
(118,5,o),
(152,5,o),
(152,5,c),
(152,6,l),
(331,148,o),
(520,357,o),
(694,581,c),
(665,595,l),
(508,385,o),
(300,174,o),
(238,120,cs),
(181,65,o),
(132,24,o),
(108,19,c),
(118,-6,l)
);
},
{
closed = 1;
nodes = (
(118,-6,l),
(845,57,l),
(842,64,o),
(838,77,o),
(837,84,c),
(153,25,l),
(121,10,l)
);
},
{
closed = 1;
nodes = (
(634,294,l),
(735,185,o),
(851,33,o),
(905,-63,c),
(930,-46,l),
(878,48,o),
(762,198,o),
(659,308,c)
);
},
{
closed = 1;
nodes = (
(466,814,l),
(378,670,o),
(221,504,o),
(77,395,c),
(97,374,l),
(243,487,o),
(397,653,o),
(494,802,c)
);
}
);
vertWidth = 1000;
width = 1000;
},
{
guides = (
{
angle = 184.6344;
pos = (835,14);
}
);
layerId = "5029AEDF-C899-4409-998A-C73D58F94579";
shapes = (
{
closed = 1;
nodes = (
(152,-15,o),
(270,31,o),
(270,31,c),
(270,34,l),
(445,177,o),
(640,363,o),
(810,612,c),
(658,687,l),
(512,456,o),
(310,249,o),
(236,190,cs),
(169,134,o),
(135,109,o),
(93,98,c),
(152,-42,l)
);
},
{
closed = 1;
nodes = (
(152,-42,l),
(835,14,l),
(828,46,o),
(817,114,o),
(815,155,c),
(240,118,l),
(150,70,l)
);
},
{
closed = 1;
nodes = (
(636,299,l),
(712,183,o),
(796,25,o),
(830,-77,c),
(973,-1,l),
(932,101,o),
(849,249,o),
(769,364,c)
);
},
{
closed = 1;
nodes = (
(407,853,l),
(336,718,o),
(187,543,o),
(36,443,c),
(152,337,l),
(308,452,o),
(459,633,o),
(560,797,c)
);
}
);
vertWidth = 1000;
width = 1000;
}
);
note = cid09579;
unicode = 20040;
}
{
color = 4;
glyphname = uni4E49;
layers = (
{
layerId = m01;
shapes = (
{
closed = 1;
nodes = (
(161,725,l),
(310,365,o),
(578,57,o),
(926,-71,c),
(948,-47,l),
(603,76,o),
(330,383,o),
(186,734,c)
);
},
{
closed = 1;
nodes = (
(807,758,l),
(677,391,o),
(451,110,o),
(44,-43,c),
(63,-65,l),
(472,91,o),
(698,373,o),
(835,747,c)
);
},
{
closed = 1;
nodes = (
(442,823,l),
(477,749,o),
(519,650,o),
(536,585,c),
(562,599,l),
(544,663,o),
(502,761,o),
(466,836,c)
);
}
);
vertWidth = 1000;
width = 1000;
},
{
layerId = "5029AEDF-C899-4409-998A-C73D58F94579";
shapes = (
{
closed = 1;
nodes = (
(120,669,l),
(255,284,o),
(475,23,o),
(885,-91,c),
(984,43,l),
(598,136,o),
(365,381,o),
(259,711,c)
);
},
{
closed = 1;
nodes = (
(769,780,l),
(673,432,o),
(464,146,o),
(23,30,c),
(99,-100,l),
(580,44,o),
(797,351,o),
(921,736,c)
);
},
{
closed = 1;
nodes = (
(367,814,l),
(406,735,o),
(454,629,o),
(474,561,c),
(609,613,l),
(585,680,o),
(538,779,o),
(496,857,c)
);
}
);
vertWidth = 1000;
width = 1000;
}
);
note = cid09580;
unicode = 20041;
}
{
color = 4;
glyphname = uni4E4B;
layers = (
{
layerId = m01;
shapes = (
{
closed = 1;
nodes = (
(109,620,l),
(109,590,l),
(811,590,l),
(811,620,l)
);
},
{
closed = 1;
nodes = (
(798,620,l),
(798,612,l),
(684,440,o),
(435,209,o),
(225,98,c),
(232,93,o),
(241,84,o),
(246,78,c),
(458,193,o),
(709,422,o),
(833,608,c),
(818,620,l)
);
},
{
closed = 1;
nodes = (
(437,817,l),
(477,766,o),
(522,693,o),
(541,650,c),
(567,665,l),
(548,705,o),
(503,775,o),
(462,828,c)
);
},
{
closed = 1;
nodes = (
(172,109,o),
(118,54,o),
(57,-15,c),
(82,-40,l),
(136,29,o),
(185,80,o),
(219,80,cs),
(240,80,o),
(271,46,o),
(308,21,cs),
(374,-23,o),
(458,-32,o),
(578,-32,cs),
(672,-32,o),
(865,-27,o),
(942,-22,c),
(952,13,l),
(855,6,o),
(710,-1,o),
(578,-1,cs),
(465,-1,o),
(385,6,o),
(323,46,cs),
(270,81,o),
(250,109,o),
(219,109,cs)
);
}
);
vertWidth = 1000;
width = 1000;
},
{
layerId = "5029AEDF-C899-4409-998A-C73D58F94579";
shapes = (
{
closed = 1;
nodes = (
(87,676,l),
(87,534,l),
(808,534,l),
(808,676,l)
);
},
{
closed = 1;
nodes = (
(751,676,l),
(751,643,l),
(656,482,o),
(426,263,o),
(212,143,c),
(246,116,o),
(291,70,o),
(314,38,c),
(540,173,o),
(780,394,o),
(924,610,c),
(845,676,l)
);
},
{
closed = 1;
nodes = (
(381,800,l),
(417,747,o),
(467,674,o),
(488,629,c),
(628,709,l),
(603,753,o),
(549,822,o),
(512,871,c)
);
},
{
closed = 1;
nodes = (
(198,170,o),
(112,117,o),
(37,37,c),
(141,-100,l),
(178,-38,o),
(222,34,o),
(253,34,cs),
(275,34,o),
(309,1,o),
(354,-26,cs),
(424,-66,o),
(502,-81,o),
(627,-81,cs),
(728,-81,o),
(867,-75,o),
(937,-70,c),
(978,84,l),
(882,68,o),
(727,58,o),
(633,58,cs),
(524,58,o),
(436,65,o),
(372,107,cs),
(317,140,o),
(290,170,o),
(257,170,cs)
);
}
);
vertWidth = 1000;
width = 1000;
}
);
note = cid09583;
unicode = 20043;
}
{
color = 4;
glyphname = uni4E4C;
layers = (
{
layerId = m01;
shapes = (
{
closed = 1;
nodes = (
(872,358,l),
(860,180,o),
(847,10,o),
(809,-26,cs),
(800,-35,o),
(787,-37,o),
(769,-36,cs),
(748,-36,o),
(688,-36,o),
(624,-30,c),
(634,-60,l),
(692,-65,o),
(748,-65,o),
(774,-65,cs),
(803,-64,o),
(819,-60,o),
(833,-45,cs),
(877,-4,o),
(889,169,o),
(903,358,c)
);
},
{
closed = 1;
nodes = (
(63,182,l),
(63,153,l),
(770,153,l),
(770,182,l)
);
},
{
closed = 1;
nodes = (
(454,838,l),
(439,803,o),
(409,749,o),
(386,716,c),
(410,705,l),
(432,736,o),
(460,784,o),
(482,826,c)
);
},
{
closed = 1;
nodes = (
(764,727,l),
(756,623,o),
(748,524,o),
(723,499,cs),
(717,492,o),
(708,491,o),
(690,491,cs),
(674,491,o),
(623,491,o),
(571,496,c),
(580,468,l),
(627,464,o),
(674,464,o),
(696,464,cs),
(721,465,o),
(734,469,o),
(746,479,cs),
(773,506,o),
(783,603,o),
(794,727,c)
);
},
{
closed = 1;
nodes = (
(770,727,l),
(206,727,l),
(206,327,l),
(884,327,l),
(884,358,l),
(236,358,l),
(236,696,l),
(770,696,l)
);
}
);
vertWidth = 1000;
width = 1000;
},
{
layerId = "5029AEDF-C899-4409-998A-C73D58F94579";
shapes = (
{
closed = 1;
nodes = (
(810,407,l),
(808,250,o),
(808,77,o),
(783,52,cs),
(772,42,o),
(761,40,o),
(742,40,cs),
(715,40,o),
(657,41,o),
(597,45,c),
(645,-90,l),
(706,-92,o),
(768,-92,o),
(805,-87,cs),
(847,-81,o),
(879,-71,o),
(907,-36,cs),
(948,17,o),
(947,206,o),
(950,407,c)
);
},
{
closed = 1;
nodes = (
(48,216,l),
(48,89,l),
(737,89,l),
(737,216,l)
);
},
{
closed = 1;
nodes = (
(397,856,l),
(392,816,o),
(378,763,o),
(365,723,c),
(492,706,l),
(510,740,o),
(535,790,o),
(557,845,c)
);
},
{
closed = 1;
nodes = (
(726,753,l),
(722,688,o),
(719,587,o),
(694,562,cs),
(685,551,o),
(675,550,o),
(657,550,cs),
(636,550,o),
(587,551,o),
(538,556,c),
(567,437,l),
(628,433,o),
(687,433,o),
(721,435,cs),
(758,438,o),
(793,446,o),
(819,474,cs),
(858,519,o),
(865,606,o),
(876,753,c)
);
},
{
closed = 1;
nodes = (
(784,753,l),
(170,753,l),
(170,280,l),
(863,280,l),
(863,407,l),
(309,407,l),
(309,626,l),
(784,626,l)
);
}
);
vertWidth = 1000;
width = 1000;
}
);
note = cid09584;
unicode = 20044;
}
{
color = 4;
glyphname = uni4E4D;
layers = (
{
layerId = m01;
shapes = (
{
closed = 1;
nodes = (
(338,836,l),
(272,672,o),
(167,516,o),
(49,415,c),
(76,395,l),
(190,501,o),
(296,657,o),
(367,828,c)
);
},
{
closed = 1;
nodes = (
(271,651,l),
(256,621,l),
(933,621,l),
(933,651,l)
);
},
{
closed = 1;
nodes = (
(424,640,l),
(424,-70,l),
(453,-70,l),
(453,640,l)
);
},
{
closed = 1;
nodes = (
(439,436,l),
(439,407,l),
(881,407,l),
(881,436,l)
);
},
{
closed = 1;
nodes = (
(439,215,l),
(439,185,l),
(891,185,l),
(891,215,l)
);
}
);
vertWidth = 1000;
width = 1000;
},
{
layerId = "5029AEDF-C899-4409-998A-C73D58F94579";
shapes = (
{
closed = 1;
nodes = (
(264,854,l),
(213,698,o),
(123,538,o),
(26,443,c),
(161,351,l),
(255,461,o),
(355,640,o),
(418,814,c)
);
},
{
closed = 1;
nodes = (
(272,699,l),
(201,557,l),
(957,557,l),
(957,699,l)
);
},
{
closed = 1;
nodes = (
(361,643,l),
(361,-95,l),
(515,-95,l),
(515,643,l)
);
},
{
closed = 1;
nodes = (
(458,468,l),
(458,329,l),
(891,329,l),
(891,468,l)
);
},
{
closed = 1;
nodes = (
(458,238,l),
(458,96,l),
(916,96,l),
(916,238,l)
);
}
);
vertWidth = 1000;
width = 1000;
}
);
note = cid09585;
unicode = 20045;
}
{
color = 4;
glyphname = uni4E4E;
layers = (
{
layerId = m01;
shapes = (
{
closed = 1;
nodes = (
(819,807,l),
(673,765,o),
(365,741,o),
(133,732,c),
(139,706,l),
(376,713,o),
(681,737,o),
(838,781,c)
);
},
{
closed = 1;
nodes = (
(62,352,l),
(62,323,l),
(940,323,l),
(940,352,l)
);
},
{
closed = 1;
nodes = (
(492,739,l),
(492,-15,ls),
(492,-37,o),
(484,-43,o),
(462,-45,cs),
(440,-46,o),
(365,-47,o),
(272,-44,c),
(285,-74,l),
(395,-74,o),
(453,-75,o),
(480,-69,cs),
(508,-64,o),
(522,-51,o),
(522,-14,cs),
(522,739,l)
);
},
{
closed = 1;
nodes = (
(187,650,l),
(231,574,o),
(277,474,o),
(293,413,c),
(322,423,l),
(305,483,o),
(259,583,o),
(215,658,c)
);
},
{
closed = 1;
nodes = (
(805,672,l),
(775,598,o),
(721,489,o),
(679,425,c),
(703,412,l),
(745,476,o),
(797,579,o),
(834,659,c)
);
}
);
vertWidth = 1000;
width = 1000;
},
{
layerId = "5029AEDF-C899-4409-998A-C73D58F94579";
shapes = (
{
closed = 1;
nodes = (
(819,855,l),
(626,811,o),
(351,785,o),
(96,776,c),
(131,644,l),
(382,649,o),
(669,671,o),
(890,721,c)
);
},
{
closed = 1;
nodes = (
(42,392,l),
(42,242,l),
(961,242,l),
(961,392,l)
);
},
{
closed = 1;
nodes = (
(433,728,l),
(433,81,ls),
(433,61,o),
(424,54,o),
(401,54,cs),
(377,54,o),
(292,54,o),
(224,58,c),
(285,-93,l),
(385,-93,o),
(462,-89,o),
(517,-66,cs),
(572,-44,o),
(591,-5,o),
(591,79,cs),
(591,728,l)
);
},
{
closed = 1;
nodes = (
(130,590,l),
(162,527,o),
(196,445,o),
(206,392,c),
(339,445,l),
(326,498,o),
(289,577,o),
(254,636,c)
);
},
{
closed = 1;
nodes = (
(747,660,l),
(730,591,o),
(695,502,o),
(664,442,c),
(785,398,l),
(820,451,o),
(863,532,o),
(905,611,c)
);
}
);
vertWidth = 1000;
width = 1000;
}
);
note = cid09586;
unicode = 20046;
}
{
color = 4;
glyphname = uni4E4F;
layers = (
{
layerId = m01;
shapes = (
{
closed = 1;
nodes = (
(121,485,l),
(121,456,l),
(827,456,l),
(827,485,l)
);
},
{
closed = 1;
nodes = (
(818,485,l),
(818,478,l),
(706,339,o),
(471,167,o),
(259,85,c),
(266,81,o),
(274,72,o),
(278,65,c),
(492,150,o),
(728,321,o),
(853,473,c),
(837,485,l)
);
},
{
closed = 1;
nodes = (
(858,801,l),
(698,761,o),
(374,736,o),
(129,724,c),
(136,698,l),
(382,707,o),
(704,733,o),
(870,774,c)
);
},
{
closed = 1;
nodes = (
(408,672,l),
(444,626,o),
(487,564,o),
(510,526,c),
(534,545,l),
(513,580,o),
(469,641,o),
(432,686,c)
);
},
{
closed = 1;
nodes = (
(182,115,o),
(126,56,o),
(62,-20,c),
(86,-45,l),
(146,32,o),
(195,85,o),
(231,85,cs),
(252,85,o),
(282,49,o),
(320,21,cs),
(385,-27,o),
(468,-37,o),
(591,-37,cs),
(678,-37,o),
(873,-31,o),
(944,-27,c),
(955,8,l),
(861,1,o),
(722,-6,o),
(591,-6,cs),
(476,-6,o),
(398,2,o),
(335,45,cs),
(282,83,o),
(263,115,o),
(231,115,cs)
);
}
);
vertWidth = 1000;
width = 1000;
},
{
layerId = "5029AEDF-C899-4409-998A-C73D58F94579";
shapes = (
{
closed = 1;
nodes = (
(119,507,l),
(119,364,l),
(777,364,l),
(777,507,l)
);
},
{
closed = 1;
nodes = (
(731,507,l),
(731,475,l),
(650,364,o),
(445,215,o),
(254,135,c),
(284,109,o),
(325,63,o),
(345,32,c),
(551,126,o),
(767,281,o),
(902,437,c),
(817,507,l)
);
},
{
closed = 1;
nodes = (
(818,855,l),
(637,812,o),
(351,787,o),
(91,781,c),
(126,649,l),
(391,654,o),
(695,676,o),
(929,732,c)
);
},
{
closed = 1;
nodes = (
(371,625,l),
(396,578,o),
(431,514,o),
(446,475,c),
(581,544,l),
(563,581,o),
(525,642,o),
(498,685,c)
);
},
{
closed = 1;
nodes = (
(171,182,o),
(99,135,o),
(25,39,c),
(137,-110,l),
(158,-44,o),
(185,44,o),
(209,44,cs),
(229,44,o),
(269,2,o),
(318,-29,cs),
(392,-76,o),
(471,-91,o),
(611,-91,cs),
(722,-91,o),
(872,-84,o),
(946,-79,c),
(989,75,l),
(887,58,o),
(727,48,o),
(620,48,cs),
(496,48,o),
(403,56,o),
(337,106,cs),
(278,146,o),
(250,182,o),
(215,182,cs)
);
}
);
vertWidth = 1000;
width = 1000;
}
);
note = cid09588;
unicode = 20047;
}
{
color = 4;
glyphname = uni4E50;
layers = (
{
layerId = m01;
shapes = (
{
closed = 1;
nodes = (
(504,647,l),
(504,-20,ls),
(504,-37,o),
(497,-42,o),
(480,-43,cs),
(464,-44,o),
(407,-45,o),
(335,-43,c),
(348,-71,l),
(435,-71,o),
(478,-71,o),
(501,-65,cs),
(524,-60,o),
(533,-49,o),
(533,-19,cs),
(533,647,l)
);
},
{
closed = 1;
nodes = (
(833,814,l),
(699,771,o),
(407,751,o),
(187,744,c),
(191,737,o),
(195,725,o),
(195,718,c),
(419,723,o),
(710,745,o),
(858,790,c)
);
},
{
closed = 1;
nodes = (
(256,273,l),
(203,180,o),
(122,83,o),
(47,18,c),
(71,-5,l),
(144,65,o),
(228,167,o),
(284,264,c)
);
},
{
closed = 1;
nodes = (
(706,257,l),
(787,178,o),
(882,67,o),
(928,0,c),
(953,19,l),
(907,84,o),
(811,193,o),
(729,272,c)
);
},
{
closed = 1;
nodes = (
(128,398,o),
(158,399,o),
(158,399,c),
(158,400,l),
(185,489,o),
(210,618,o),
(219,732,c),
(187,744,l),
(184,631,o),
(155,504,o),
(146,472,cs),
(138,439,o),
(130,416,o),
(119,414,c),
(128,387,l)
);
},
{
closed = 1;
nodes = (
(128,387,l),
(240,387,l),
(922,387,l),
(922,418,l),
(161,418,l),
(131,407,l)
);
}
);
vertWidth = 1000;
width = 1000;
},
{
layerId = "5029AEDF-C899-4409-998A-C73D58F94579";
shapes = (
{
closed = 1;
nodes = (
(447,632,l),
(447,78,ls),
(447,62,o),
(441,58,o),
(423,58,cs),
(404,58,o),
(342,58,o),
(291,60,c),
(340,-89,l),
(424,-90,o),
(489,-86,o),
(537,-63,cs),
(584,-40,o),
(598,0,o),
(598,75,cs),
(598,632,l)
);
},
{
closed = 1;
nodes = (
(830,852,l),
(647,817,o),
(385,799,o),
(145,795,c),
(159,761,o),
(176,703,o),
(179,664,c),
(415,664,o),
(689,679,o),
(901,720,c)
);
},
{
closed = 1;
nodes = (
(206,286,l),
(162,204,o),
(89,111,o),
(24,53,c),
(146,-36,l),
(209,32,o),
(292,143,o),
(347,238,c)
);
},
{
closed = 1;
nodes = (
(671,232,l),
(730,149,o),
(803,35,o),
(833,-35,c),
(972,27,l),
(937,99,o),
(858,206,o),
(800,284,c)
);
},
{
closed = 1;
nodes = (
(124,355,o),
(239,393,o),
(239,393,c),
(239,395,l),
(263,495,o),
(294,643,o),
(294,771,c),
(145,795,l),
(146,675,o),
(124,543,o),
(117,508,cs),
(108,471,o),
(96,450,o),
(78,442,c),
(124,327,l)
);
},
{
closed = 1;
nodes = (
(124,327,l),
(257,328,l),
(928,328,l),
(929,474,l),
(211,474,l),
(126,422,l)
);
}
);
vertWidth = 1000;
width = 1000;
}
);
note = cid09589;
unicode = 20048;
}
{
color = 4;
glyphname = uni4E52;
layers = (
{
layerId = m01;
shapes = (
{
closed = 1;
nodes = (
(661,546,l),
(661,224,l),
(690,224,l),
(690,546,l)
);
},
{
closed = 1;
nodes = (
(59,237,l),
(59,208,l),
(946,208,l),
(946,237,l)
);
},
{
closed = 1;
nodes = (
(249,558,l),
(249,528,l),
(889,528,l),
(889,558,l)
);
},
{
closed = 1;
nodes = (
(237,765,l),
(237,215,l),
(267,215,l),
(267,753,l)
);
},
{
closed = 1;
nodes = (
(810,823,l),
(681,796,o),
(432,775,o),
(237,765,c),
(241,757,o),
(245,746,o),
(246,738,c),
(443,746,o),
(689,768,o),
(829,797,c)
);
},
{
closed = 1;
nodes = (
(383,167,l),
(318,96,o),
(195,13,o),
(92,-40,c),
(115,-61,l),
(217,-7,o),
(336,77,o),
(417,154,c)
);
}
);
vertWidth = 1000;
width = 1000;
},
{
layerId = "5029AEDF-C899-4409-998A-C73D58F94579";
shapes = (
{
closed = 1;
nodes = (
(609,552,l),
(609,246,l),
(759,246,l),
(759,552,l)
);
},
{
closed = 1;
nodes = (
(35,308,l),
(35,171,l),
(963,171,l),
(963,308,l)
);
},
{
closed = 1;
nodes = (
(273,588,l),
(273,453,l),
(908,453,l),
(908,588,l)
);
},
{
closed = 1;
nodes = (
(201,795,l),
(201,230,l),
(351,230,l),
(351,764,l)
);
},
{
closed = 1;
nodes = (
(798,857,l),
(635,825,o),
(409,804,o),
(201,795,c),
(216,761,o),
(234,704,o),
(237,666,c),
(444,671,o),
(681,688,o),
(870,723,c)
);
},
{
closed = 1;
nodes = (
(321,177,l),
(256,124,o),
(129,52,o),
(28,16,c),
(127,-92,l),
(230,-50,o),
(359,22,o),
(445,84,c)
);
}
);
vertWidth = 1000;
width = 1000;
}
);
note = cid09591;
unicode = 20050;
}
{
color = 7;
glyphname = uni4E53;
layers = (
{
layerId = m01;
shapes = (
{
closed = 1;
nodes = (
(661,546,l),
(661,224,l),
(690,224,l),
(690,546,l)
);
},
{
closed = 1;
nodes = (
(59,237,l),
(59,208,l),
(946,208,l),
(946,237,l)
);
},
{
closed = 1;
nodes = (
(249,558,l),
(249,528,l),
(889,528,l),
(889,558,l)
);
},
{
closed = 1;
nodes = (
(606,138,l),
(711,79,o),
(839,-10,o),
(905,-65,c),
(926,-42,l),
(860,14,o),
(731,99,o),
(627,158,c)
);
},
{
closed = 1;
nodes = (
(237,765,l),
(237,215,l),
(267,215,l),
(267,753,l)
);
},
{
closed = 1;
nodes = (
(810,823,l),
(681,796,o),
(432,775,o),
(237,765,c),
(241,757,o),
(245,746,o),
(246,738,c),
(443,746,o),
(689,768,o),
(829,797,c)
);
}
);
vertWidth = 1000;
width = 1000;
},
{
layerId = "5029AEDF-C899-4409-998A-C73D58F94579";
shapes = (
{
closed = 1;
nodes = (
(609,552,l),
(609,246,l),
(759,246,l),
(759,552,l)
);
},
{
closed = 1;
nodes = (
(35,308,l),
(35,171,l),
(963,171,l),
(963,308,l)
);
},
{
closed = 1;
nodes = (
(273,588,l),
(273,453,l),
(908,453,l),
(908,588,l)
);
},
{
closed = 1;
nodes = (
(559,81,l),
(648,28,o),
(777,-51,o),
(835,-100,c),
(955,3,l),
(888,53,o),
(755,126,o),
(671,172,c)
);
},
{
closed = 1;
nodes = (
(201,795,l),
(201,230,l),
(351,230,l),
(351,764,l)
);
},
{
closed = 1;
nodes = (
(798,857,l),
(635,825,o),
(409,804,o),
(201,795,c),
(216,761,o),
(234,704,o),
(237,666,c),
(444,671,o),
(681,688,o),
(870,723,c)
);
}
);
vertWidth = 1000;
width = 1000;
}
);
note = cid09592;
unicode = 20051;
}
{
color = 4;
glyphname = uni4E54;
layers = (
{
layerId = m01;
shapes = (
{
closed = 1;
nodes = (
(60,569,l),
(60,539,l),
(943,539,l),
(943,569,l)
);
},
{
closed = 1;
nodes = (
(569,552,l),
(643,421,o),
(793,312,o),
(942,262,c),
(963,286,l),
(813,331,o),
(666,436,o),
(595,563,c)
);
},
{
closed = 1;
nodes = (
(470,754,l),
(402,517,o),
(259,366,o),
(43,279,c),
(63,254,l),
(280,349,o),
(427,500,o),
(499,747,c)
);
},
{
closed = 1;
nodes = (
(639,382,l),
(639,-67,l),
(669,-67,l),
(669,382,l)
);
},
{
closed = 1;
nodes = (
(322,384,l),
(322,259,ls),
(322,154,o),
(303,38,o),
(110,-45,c),
(131,-66,l),
(329,21,o),
(351,142,o),
(351,259,cs),
(351,384,l)
);
},
{
closed = 1;
nodes = (
(810,809,l),
(661,773,o),
(359,752,o),
(122,742,c),
(130,716,l),
(371,724,o),
(670,747,o),
(835,784,c)
);
}
);
vertWidth = 1000;
width = 1000;
},
{
layerId = "5029AEDF-C899-4409-998A-C73D58F94579";
shapes = (
{
closed = 1;
nodes = (
(46,630,l),
(46,491,l),
(951,491,l),
(951,630,l)
);
},
{
closed = 1;
nodes = (
(548,555,l),
(620,414,o),
(729,302,o),
(880,246,c),
(979,372,l),
(843,413,o),
(733,497,o),
(679,596,c)
);
},
{
closed = 1;
nodes = (
(406,767,l),
(345,570,o),
(209,434,o),
(11,362,c),
(113,239,l),
(319,332,o),
(473,495,o),
(555,732,c)
);
},
{
closed = 1;
nodes = (
(581,368,l),
(581,-97,l),
(731,-97,l),
(731,368,l)
);
},
{
closed = 1;
nodes = (
(258,364,l),
(258,274,ls),
(258,190,o),
(239,82,o),
(84,6,c),
(199,-103,l),
(383,-5,o),
(406,151,o),
(406,269,cs),
(406,364,l)
);
},
{
closed = 1;
nodes = (
(817,850,l),
(636,817,o),
(345,801,o),
(86,801,c),
(117,679,l),
(379,677,o),
(687,691,o),
(919,736,c)
);
}
);
vertWidth = 1000;
width = 1000;
}
);
note = cid09593;
unicode = 20052;
}
{
color = 4;
glyphname = uni4E56;
layers = (
{
layerId = m01;
shapes = (
{
closed = 1;
nodes = (
(814,820,l),
(665,784,o),
(364,761,o),
(126,750,c),
(134,723,l),
(376,732,o),
(673,757,o),
(840,796,c)
);
},
{
closed = 1;
nodes = (
(483,754,l),
(483,-71,l),
(513,-71,l),
(513,754,l)
);
},
{
closed = 1;
nodes = (
(65,608,l),
(65,578,l),
(939,578,l),
(939,608,l)
);
},
{
closed = 1;
nodes = (
(309,524,l),
(309,140,l),
(338,140,l),
(338,524,l)
);
},
{
closed = 1;
nodes = (
(79,415,l),
(79,385,l),
(327,385,l),
(327,415,l)
);
},
{
closed = 1;
nodes = (
(78,159,l),
(149,180,o),
(237,209,o),
(324,236,c),
(320,263,l),
(224,233,o),
(128,205,o),
(62,187,c)
);
},
{
closed = 1;
nodes = (
(888,485,l),
(836,448,o),
(740,404,o),
(659,372,c),
(664,365,o),
(669,355,o),
(672,348,c),
(755,380,o),
(852,422,o),
(916,462,c)
);
},
{
closed = 1;
nodes = (
(655,524,l),
(655,204,ls),
(655,156,o),
(672,147,o),
(730,147,cs),
(744,147,o),
(865,147,o),
(878,147,cs),
(931,147,o),
(941,172,o),
(945,273,c),
(917,285,l),
(914,190,o),
(908,177,o),
(876,177,cs),
(851,177,o),
(748,177,o),
(730,177,cs),
(691,177,o),
(684,181,o),
(684,204,cs),
(684,524,l)
);
}
);
vertWidth = 1000;
width = 1000;
},
{
layerId = "5029AEDF-C899-4409-998A-C73D58F94579";
shapes = (
{
closed = 1;
nodes = (
(792,854,l),
(615,829,o),
(347,814,o),
(107,811,c),
(138,691,l),
(380,692,o),
(663,705,o),
(884,736,c)
);
},
{
closed = 1;
nodes = (
(421,747,l),
(421,-95,l),
(575,-95,l),
(575,747,l)
);
},
{
closed = 1;
nodes = (
(50,656,l),
(50,524,l),
(951,524,l),
(951,656,l)
);
},
{
closed = 1;
nodes = (
(233,496,l),
(233,50,l),
(372,50,l),
(372,496,l)
);
},
{
closed = 1;
nodes = (
(62,438,l),
(62,312,l),
(306,312,l),
(306,438,l)
);
},
{
closed = 1;
nodes = (
(91,57,l),
(157,86,o),
(234,122,o),
(307,156,c),
(284,269,l),
(190,238,o),
(94,206,o),
(30,189,c)
);
},
{
closed = 1;
nodes = (
(862,465,l),
(816,427,o),
(746,382,o),
(682,353,c),
(697,326,o),
(717,282,o),
(724,254,c),
(798,281,o),
(885,317,o),
(958,360,c)
);
},
{
closed = 1;
nodes = (
(622,494,l),
(622,215,ls),
(622,93,o),
(647,52,o),
(759,52,cs),
(781,52,o),
(821,52,o),
(843,52,cs),
(928,52,o),
(964,90,o),
(978,222,c),
(855,275,l),
(852,192,o),
(847,178,o),
(828,178,cs),
(819,178,o),
(792,178,o),
(784,178,cs),
(765,178,o),
(762,182,o),
(762,216,cs),
(762,494,l)
);
}
);
vertWidth = 1000;
width = 1000;
}
);
note = cid09596;
unicode = 20054;
}
{
color = 4;
glyphname = uni4E58;
layers = (
{
layerId = m01;
shapes = (
{
closed = 1;
nodes = (
(483,759,l),
(483,-70,l),
(513,-70,l),
(513,759,l)
);
},
{
closed = 1;
nodes = (
(314,547,l),
(314,225,l),
(343,225,l),
(343,547,l)
);
},
{
closed = 1;
nodes = (
(67,612,l),
(67,582,l),
(932,582,l),
(932,612,l)
);
},
{
closed = 1;
nodes = (
(91,462,l),
(91,432,l),
(330,432,l),
(330,462,l)
);
},
{
closed = 1;
nodes = (
(814,819,l),
(666,782,o),
(363,759,o),
(134,749,c),
(142,722,l),
(374,730,o),
(672,755,o),
(830,793,c)
);
},
{
closed = 1;
nodes = (
(488,347,l),
(403,193,o),
(225,48,o),
(45,-7,c),
(66,-31,l),
(244,29,o),
(422,176,o),
(510,337,c)
);
},
{
closed = 1;
nodes = (
(490,335,l),
(580,176,o),
(759,25,o),
(934,-37,c),
(955,-13,l),
(778,43,o),
(598,192,o),
(512,345,c)
);
},
{
closed = 1;
nodes = (
(76,233,l),
(148,248,o),
(238,268,o),
(329,287,c),
(327,314,l),
(228,293,o),
(131,274,o),
(63,262,c)
);
},
{
closed = 1;
nodes = (
(654,547,l),
(654,271,ls),
(654,225,o),
(670,217,o),
(726,217,cs),
(738,217,o),
(851,217,o),
(864,217,cs),
(912,217,o),
(921,237,o),
(925,324,c),
(896,336,l),
(894,256,o),
(889,246,o),
(861,246,cs),
(837,246,o),
(742,246,o),
(725,246,cs),
(689,246,o),
(683,250,o),
(683,270,cs),
(683,547,l)
);
},
{
closed = 1;
nodes = (
(861,501,l),
(813,474,o),
(729,439,o),
(660,414,c),
(665,406,o),
(670,396,o),
(672,389,c),
(742,414,o),
(826,446,o),
(884,476,c)
);
}
);
vertWidth = 1000;
width = 1000;
},
{
layerId = "5029AEDF-C899-4409-998A-C73D58F94579";
shapes = (
{
closed = 1;
nodes = (
(424,743,l),
(424,-94,l),
(578,-94,l),
(578,743,l)
);
},
{
closed = 1;
nodes = (
(237,510,l),
(237,177,l),
(372,177,l),
(372,510,l)
);
},
{
closed = 1;
nodes = (
(61,659,l),
(61,529,l),
(939,529,l),
(939,659,l)
);
},
{
closed = 1;
nodes = (
(93,465,l),
(93,354,l),
(319,354,l),
(319,465,l)
);
},
{
closed = 1;
nodes = (
(808,859,l),
(622,830,o),
(358,812,o),
(119,807,c),
(150,685,l),
(386,686,o),
(660,701,o),
(870,733,c)
);
},
{
closed = 1;
nodes = (
(440,340,l),
(361,209,o),
(205,102,o),
(18,54,c),
(112,-68,l),
(306,-2,o),
(457,128,o),
(552,301,c)
);
},
{
closed = 1;
nodes = (
(454,303,l),
(545,127,o),
(691,-5,o),
(885,-70,c),
(978,53,l),
(791,100,o),
(638,207,o),
(561,339,c)
);
},
{
closed = 1;
nodes = (
(83,185,l),
(157,196,o),
(244,208,o),
(329,222,c),
(325,328,l),
(227,318,o),
(130,309,o),
(61,304,c)
);
},
{
closed = 1;
nodes = (
(627,514,l),
(627,317,ls),
(627,205,o),
(649,168,o),
(757,168,cs),
(778,168,o),
(815,168,o),
(837,168,cs),
(911,168,o),
(946,195,o),
(961,291,c),
(846,338,l),
(843,294,o),
(838,287,o),
(822,287,cs),
(813,287,o),
(788,287,o),
(780,287,cs),
(762,287,o),
(759,290,o),
(759,318,cs),
(759,514,l)
);
},
{
closed = 1;
nodes = (
(847,488,l),
(801,463,o),
(733,435,o),
(673,416,c),
(686,389,o),
(702,347,o),
(707,321,c),
(774,335,o),
(857,357,o),
(929,384,c)
);
}
);
vertWidth = 1000;
width = 1000;
}
);
note = cid09599;
unicode = 20056;
}
{
color = 4;
glyphname = uni4E59;
layers = (
{
layerId = m01;
shapes = (
{
closed = 1;
nodes = (
(95,740,l),
(95,711,l),
(753,711,l),
(753,740,l)
);
},
{
closed = 1;
nodes = (
(751,740,l),
(126,208,o),
(97,131,o),
(97,67,cs),
(97,2,o),
(155,-34,o),
(270,-34,cs),
(793,-34,ls),
(891,-34,o),
(912,7,o),
(921,187,c),
(890,198,l),
(883,36,o),
(871,-5,o),
(791,-5,cs),
(262,-5,ls),
(186,-5,o),
(128,18,o),
(128,68,cs),
(128,163,o),
(394,396,o),
(784,730,c),
(766,740,l)
);
}
);
vertWidth = 1000;
width = 1000;
},
{
layerId = "5029AEDF-C899-4409-998A-C73D58F94579";
shapes = (
{
closed = 1;
nodes = (
(96,786,l),
(96,634,l),
(709,634,l),
(709,786,l)
);
},
{
closed = 1;
nodes = (
(686,786,l),
(108,342,o),
(78,256,o),
(78,153,cs),
(78,30,o),
(168,-49,o),
(366,-49,cs),
(702,-49,ls),
(873,-49,o),
(946,9,o),
(965,263,c),
(817,317,l),
(810,132,o),
(782,103,o),
(722,103,cs),
(354,103,ls),
(276,103,o),
(237,121,o),
(237,167,cs),
(237,255,o),
(458,426,o),
(852,717,c),
(758,786,l)
);
}
);
vertWidth = 1000;
width = 1000;
}
);
note = cid09601;
unicode = 20057;
}
{
color = 4;
glyphname = uni4E5C;
layers = (
{
layerId = m01;
shapes = (
{
closed = 1;
nodes = (
(41,409,l),
(50,383,l),
(809,620,l),
(800,645,l)
);
},
{
closed = 1;
nodes = (
(789,632,l),
(788,461,o),
(780,347,o),
(757,289,cs),
(739,244,o),
(720,238,o),
(689,238,cs),
(671,238,o),
(608,237,o),
(559,241,c),
(570,211,l),
(607,210,o),
(663,210,o),
(695,210,cs),
(729,211,o),
(760,225,o),
(781,273,cs),
(807,334,o),
(817,453,o),
(819,635,c),
(819,651,l),
(800,645,l)
);
},
{
closed = 1;
nodes = (
(263,797,l),
(263,87,ls),
(263,-10,o),
(300,-32,o),
(415,-32,cs),
(440,-32,o),
(751,-32,o),
(779,-32,cs),
(900,-32,o),
(917,18,o),
(928,169,c),
(898,183,l),
(887,36,o),
(873,-3,o),
(785,-3,cs),
(721,-3,o),
(454,-3,o),
(408,-3,cs),
(314,-3,o),
(292,18,o),
(292,84,cs),
(292,797,l)
);
}
);
vertWidth = 1000;
width = 1000;
},
{
layerId = "5029AEDF-C899-4409-998A-C73D58F94579";
shapes = (
{
closed = 1;
nodes = (
(18,467,l),
(56,333,l),
(784,564,l),
(747,694,l)
);
},
{
closed = 1;
nodes = (
(700,673,l),
(699,507,o),
(696,410,o),
(685,373,cs),
(675,342,o),
(659,335,o),
(635,335,cs),
(611,335,o),
(555,336,o),
(516,339,c),
(553,204,l),
(602,203,o),
(672,205,o),
(716,217,cs),
(761,229,o),
(794,257,o),
(813,312,cs),
(833,365,o),
(840,477,o),
(842,640,c),
(842,723,l),
(747,694,l)
);
},
{
closed = 1;
nodes = (
(210,831,l),
(210,166,ls),
(210,-4,o),
(262,-48,o),
(447,-48,cs),
(491,-48,o),
(675,-48,o),
(722,-48,cs),
(885,-48,o),
(932,8,o),
(953,174,c),
(818,228,l),
(805,105,o),
(789,82,o),
(708,82,cs),
(667,82,o),
(495,82,o),
(452,82,cs),
(363,82,o),
(352,91,o),
(352,165,cs),
(352,831,l)
);
}
);
vertWidth = 1000;
width = 1000;
}
);
note = cid09604;
unicode = 20060;
}
{
color = 4;
glyphname = uni4E5D;
layers = (
{
layerId = m01;
shapes = (
{
closed = 1;
nodes = (
(385,822,l),
(384,467,o),
(385,106,o),
(45,-48,c),
(70,-70,l),
(413,93,o),
(413,455,o),
(415,822,c)
);
},
{
closed = 1;
nodes = (
(87,563,l),
(87,533,l),
(710,533,l),
(710,563,l)
);
},
{
closed = 1;
nodes = (
(685,563,l),
(685,11,ls),
(685,-43,o),
(702,-55,o),
(759,-55,cs),
(771,-55,o),
(883,-55,o),
(896,-55,cs),
(953,-55,o),
(962,-21,o),
(966,98,c),
(936,113,l),
(933,-3,o),
(928,-25,o),
(896,-25,cs),
(872,-25,o),
(775,-25,o),
(758,-25,cs),
(721,-25,o),
(715,-18,o),
(715,10,cs),
(715,563,l)
);
}
);
vertWidth = 1000;
width = 1000;
},
{
layerId = "5029AEDF-C899-4409-998A-C73D58F94579";
shapes = (
{
closed = 1;
nodes = (
(304,840,l),
(302,465,o),
(323,185,o),
(16,23,c),
(120,-96,l),
(459,93,o),
(461,432,o),
(464,840,c)
);
},
{
closed = 1;
nodes = (
(69,616,l),
(69,469,l),
(682,469,l),
(682,616,l)
);
},
{
closed = 1;
nodes = (
(604,616,l),
(604,113,ls),
(604,-38,o),
(641,-81,o),
(751,-81,cs),
(773,-81,o),
(820,-81,o),
(843,-81,cs),
(944,-81,o),
(981,-21,o),
(994,154,c),
(858,217,l),
(854,88,o),
(850,60,o),
(827,60,cs),
(818,60,o),
(789,60,o),
(780,60,cs),
(758,60,o),
(756,66,o),
(756,113,cs),
(756,616,l)
);
}
);
vertWidth = 1000;
width = 1000;
}
);
note = cid09606;
unicode = 20061;
}
{
color = 4;
glyphname = uni4E5E;
layers = (
{
layerId = m01;
shapes = (
{
closed = 1;
nodes = (
(187,496,l),
(187,467,l),
(719,467,l),
(719,496,l)
);
},
{
closed = 1;
nodes = (
(712,496,l),
(174,138,o),
(154,73,o),
(154,25,cs),
(154,-26,o),
(198,-55,o),
(296,-55,cs),
(815,-55,ls),
(897,-55,o),
(916,-30,o),
(924,119,c),
(894,131,l),
(889,-2,o),
(877,-26,o),
(815,-26,cs),
(290,-25,ls),
(228,-25,o),
(184,-10,o),
(184,26,cs),
(184,90,o),
(361,225,o),
(746,485,c),
(724,496,l)
);
},
{
closed = 1;
nodes = (
(295,833,l),
(240,697,o),
(148,571,o),
(45,489,c),
(72,469,l),
(172,555,o),
(265,683,o),
(325,825,c)
);
},
{
closed = 1;
nodes = (
(231,695,l),
(217,666,l),
(920,666,l),
(920,695,l)
);
}
);
vertWidth = 1000;
width = 1000;
},
{
layerId = "5029AEDF-C899-4409-998A-C73D58F94579";
shapes = (
{
closed = 1;
nodes = (
(221,508,l),
(221,369,l),
(676,369,l),
(676,508,l)
);
},
{
closed = 1;
nodes = (
(660,508,l),
(165,255,o),
(141,184,o),
(141,100,cs),
(141,-3,o),
(223,-68,o),
(394,-68,cs),
(729,-68,ls),
(881,-68,o),
(943,-29,o),
(961,153,c),
(821,203,l),
(816,92,o),
(792,78,o),
(744,78,cs),
(382,78,ls),
(328,78,o),
(297,88,o),
(297,115,cs),
(297,164,o),
(456,232,o),
(820,435,c),
(715,508,l)
);
},
{
closed = 1;
nodes = (
(278,854,l),
(223,728,o),
(126,601,o),
(26,526,c),
(152,419,l),
(252,510,o),
(362,660,o),
(431,806,c)
);
},
{
closed = 1;
nodes = (
(282,736,l),
(210,593,l),
(944,593,l),
(944,736,l)
);
}
);
vertWidth = 1000;
width = 1000;
}
);
note = cid09607;
unicode = 20062;
}
{
color = 4;
glyphname = uni4E60;
layers = (
{
layerId = m01;
shapes = (
{
closed = 1;
nodes = (
(131,744,l),
(131,716,l),
(860,716,l),
(860,744,l)
);
},
{
closed = 1;
nodes = (
(243,580,l),
(343,516,o),
(466,423,o),
(526,364,c),
(547,388,l),
(485,446,o),
(364,536,o),
(264,600,c)
);
},
{
closed = 1;
nodes = (
(842,744,l),
(837,396,o),
(833,26,o),
(793,-21,cs),
(783,-34,o),
(772,-37,o),
(755,-36,cs),
(734,-36,o),
(673,-36,o),
(609,-31,c),
(618,-61,l),
(671,-65,o),
(726,-66,o),
(758,-65,cs),
(787,-65,o),
(805,-58,o),
(820,-36,c),
(868,24,o),
(862,358,o),
(870,744,c)
);
},
{
closed = 1;
nodes = (
(129,81,l),
(280,131,o),
(516,209,o),
(730,281,c),
(725,311,l),
(500,236,o),
(260,157,o),
(117,111,c)
);
}
);
vertWidth = 1000;
width = 1000;
},
{
layerId = "5029AEDF-C899-4409-998A-C73D58F94579";
shapes = (
{
closed = 1;
nodes = (
(99,804,l),
(99,664,l),
(809,664,l),
(809,804,l)
);
},
{
closed = 1;
nodes = (
(212,537,l),
(286,477,o),
(397,390,o),
(448,338,c),
(552,448,l),
(496,498,o),
(380,579,o),
(309,632,c)
);
},
{
closed = 1;
nodes = (
(768,804,l),
(765,489,o),
(768,115,o),
(722,71,c),
(711,58,o),
(699,53,o),
(677,53,cs),
(642,53,o),
(578,53,o),
(498,58,c),
(547,-80,l),
(613,-82,o),
(693,-84,o),
(743,-76,cs),
(792,-68,o),
(826,-51,o),
(860,0,cs),
(915,80,o),
(913,444,o),
(917,804,c)
);
},
{
closed = 1;
nodes = (
(131,24,l),
(290,82,o),
(503,159,o),
(696,234,c),
(669,367,l),
(461,292,o),
(227,212,o),
(82,171,c)
);
}
);
vertWidth = 1000;
width = 1000;
}
);
note = cid09610;
unicode = 20064;
}
{
color = 4;
glyphname = uni4E61;
layers = (
{
guides = (
{
angle = 184.5641;
pos = (766,305);
},
{
angle = 184.1753;
pos = (622,534);
}
);
layerId = m01;
shapes = (
{
closed = 1;
nodes = (
(156,266,o),
(194,263,o),
(194,263,c),
(194,264,l),
(389,356,o),
(584,488,o),
(778,649,c),
(750,669,l),
(574,520,o),
(358,381,o),
(291,346,cs),
(230,311,o),
(177,284,o),
(147,281,c),
(156,256,l)
);
},
{
closed = 1;
nodes = (
(156,256,l),
(766,305,l),
(768,312,o),
(772,326,o),
(777,335,c),
(190,290,l),
(159,274,l)
);
},
{
closed = 1;
nodes = (
(185,512,o),
(220,515,o),
(220,515,c),
(220,516,l),
(331,586,o),
(443,686,o),
(553,799,c),
(522,817,l),
(427,711,o),
(299,605,o),
(261,578,cs),
(226,552,o),
(196,532,o),
(177,530,c),
(185,502,l)
);
},
{
closed = 1;
nodes = (
(185,502,l),
(622,534,l),
(624,541,o),
(629,554,o),
(634,563,c),
(215,532,l),
(187,520,l)
);
},
{
closed = 1;
nodes = (
(824,450,l),
(706,162,o),
(447,32,o),
(86,-31,c),
(102,-65,l),
(467,8,o),
(729,138,o),
(857,438,c)
);
}
);
vertWidth = 1000;
width = 1000;
},
{
guides = (
{
angle = 184.1753;
pos = (620,512);
},
{
angle = 184.4598;
pos = (755,276);
}
);
layerId = "5029AEDF-C899-4409-998A-C73D58F94579";
shapes = (
{
closed = 1;
nodes = (
(131,252,o),
(235,266,o),
(235,266,c),
(235,271,l),
(435,352,o),
(656,465,o),
(843,622,c),
(714,721,l),
(552,570,o),
(322,442,o),
(243,406,cs),
(173,372,o),
(138,356,o),
(89,348,c),
(131,227,l)
);
},
{
closed = 1;
nodes = (
(131,227,l),
(755,276,l),
(763,306,o),
(785,368,o),
(806,405,c),
(221,368,l),
(133,320,l)
);
},
{
closed = 1;
nodes = (
(169,504,o),
(264,526,o),
(264,526,c),
(264,529,l),
(379,593,o),
(503,686,o),
(598,783,c),
(467,868,l),
(385,767,o),
(265,673,o),
(223,647,cs),
(185,622,o),
(161,607,o),
(129,601,c),
(169,479,l)
);
},
{
closed = 1;
nodes = (
(169,479,l),
(620,512,l),
(621,541,o),
(628,595,o),
(637,631,c),
(243,607,l),
(171,565,l)
);
},
{
closed = 1;
nodes = (
(789,466,l),
(681,200,o),
(422,89,o),
(49,48,c),
(131,-96,l),
(517,-35,o),
(799,101,o),
(947,415,c)
);
}
);
vertWidth = 1000;
width = 1000;
}
);
note = cid09611;
unicode = 20065;
}
{
color = 4;
glyphname = uni4E66;
layers = (
{
layerId = m01;
shapes = (
{
closed = 1;
nodes = (
(902,377,l),
(892,241,o),
(881,104,o),
(851,77,cs),
(842,69,o),
(832,68,o),
(811,68,cs),
(791,68,o),
(726,68,o),
(661,75,c),
(671,45,l),
(731,41,o),
(790,39,o),
(818,40,cs),
(845,41,o),
(860,45,o),
(874,59,cs),
(911,93,o),
(913,203,o),
(932,377,c)
);
},
{
closed = 1;
nodes = (
(451,827,l),
(451,-72,l),
(480,-72,l),
(480,827,l)
);
},
{
closed = 1;
nodes = (
(748,768,l),
(809,726,o),
(882,667,o),
(919,628,c),
(939,651,l),
(902,687,o),
(828,746,o),
(768,787,c)
);
},
{
closed = 1;
nodes = (
(64,377,l),
(64,348,l),
(907,348,l),
(907,377,l)
);
},
{
closed = 1;
nodes = (
(141,648,l),
(141,619,l),
(758,619,l),
(758,360,l),
(787,360,l),
(787,648,l)
);
}
);
vertWidth = 1000;
width = 1000;
},
{
layerId = "5029AEDF-C899-4409-998A-C73D58F94579";
shapes = (
{
closed = 1;
nodes = (
(818,422,l),
(810,288,o),
(801,155,o),
(770,128,cs),
(757,118,o),
(744,117,o),
(724,117,cs),
(695,117,o),
(631,118,o),
(571,123,c),
(621,-16,l),
(684,-17,o),
(746,-17,o),
(783,-13,cs),
(830,-9,o),
(864,1,o),
(895,35,cs),
(942,84,o),
(945,226,o),
(967,422,c)
);
},
{
closed = 1;
nodes = (
(367,852,l),
(367,-89,l),
(517,-89,l),
(517,852,l)
);
},
{
closed = 1;
nodes = (
(669,747,l),
(738,704,o),
(837,640,o),
(882,599,c),
(971,710,l),
(921,749,o),
(819,808,o),
(752,845,c)
);
},
{
closed = 1;
nodes = (
(55,422,l),
(55,285,l),
(893,285,l),
(893,422,l)
);
},
{
closed = 1;
nodes = (
(102,691,l),
(102,551,l),
(675,551,l),
(675,329,l),
(821,329,l),
(821,691,l)
);
}
);
vertWidth = 1000;
width = 1000;
}
);
note = cid09617;
unicode = 20070;
}
{
color = 4;
glyphname = uni4E69;
layers = (
{
layerId = m01;
shapes = (
{
closed = 1;
nodes = (
(635,820,l),
(635,49,ls),
(635,-22,o),
(652,-37,o),
(719,-37,cs),
(734,-37,o),
(850,-37,o),
(866,-37,cs),
(939,-37,o),
(947,16,o),
(952,193,c),
(924,208,l),
(919,32,o),
(914,-11,o),
(867,-11,cs),
(839,-11,o),
(738,-11,o),
(718,-11,cs),
(673,-11,o),
(665,-2,o),
(665,47,cs),
(665,820,l)
);
},
{
closed = 1;
nodes = (
(269,830,l),
(269,354,l),
(298,354,l),
(298,830,l)
);
},
{
closed = 1;
nodes = (
(280,616,l),
(280,586,l),
(554,586,l),
(554,616,l)
);
},
{
closed = 1;
nodes = (
(99,372,l),
(99,-37,l),
(491,-37,l),
(491,372,l)
);
},
{
closed = 1;
nodes = (
(129,342,l),
(462,342,l),
(462,-7,l),
(129,-7,l)
);
}
);
vertWidth = 1000;
width = 1000;
},
{
layerId = "5029AEDF-C899-4409-998A-C73D58F94579";
shapes = (
{
closed = 1;
nodes = (
(582,838,l),
(582,131,ls),
(582,-19,o),
(615,-66,o),
(728,-66,cs),
(747,-66,o),
(804,-66,o),
(825,-66,cs),
(935,-66,o),
(966,16,o),
(977,221,c),
(847,284,l),
(841,113,o),
(837,69,o),
(810,69,cs),
(799,69,o),
(763,69,o),
(752,69,cs),
(728,69,o),
(725,76,o),
(725,130,cs),
(725,838,l)
);
},
{
closed = 1;
nodes = (
(211,841,l),
(211,301,l),
(350,301,l),
(350,841,l)
);
},
{
closed = 1;
nodes = (
(266,694,l),
(266,567,l),
(541,567,l),
(541,694,l)
);
},
{
closed = 1;
nodes = (
(62,412,l),
(62,-54,l),
(514,-54,l),
(514,412,l)
);
},
{
closed = 1;
nodes = (
(190,283,l),
(380,283,l),
(380,77,l),
(190,77,l)
);
}
);
vertWidth = 1000;
width = 1000;
}
);
note = cid09621;
unicode = 20073;
}
{
color = 4;
glyphname = uni4E71;
layers = (
{
layerId = m01;
shapes = (
{
closed = 1;
nodes = (
(49,547,l),
(49,518,l),
(566,518,l),
(566,547,l)
);
},
{
closed = 1;
nodes = (
(125,-19,l),
(125,-49,l),
(496,-49,l),
(496,-19,l)
);
},
{
closed = 1;
nodes = (
(508,817,l),
(415,778,o),
(223,748,o),
(68,730,c),
(79,705,l),
(236,722,o),
(427,752,o),
(535,794,c)
);
},
{
closed = 1;
nodes = (
(627,822,l),
(627,34,ls),
(627,-36,o),
(645,-51,o),
(713,-51,cs),
(727,-51,o),
(851,-51,o),
(867,-51,cs),
(937,-51,o),
(945,-4,o),
(950,153,c),
(922,167,l),
(917,13,o),
(912,-24,o),
(868,-24,cs),
(839,-24,o),
(732,-24,o),
(711,-24,cs),
(666,-24,o),
(657,-15,o),
(657,33,cs),
(657,822,l)
);
},
{
closed = 1;
nodes = (
(109,315,l),
(109,-49,l),
(138,-49,l),
(138,285,l),
(482,285,l),
(482,-49,l),
(512,-49,l),
(512,315,l)
);
},
{
closed = 1;
nodes = (
(295,756,l),
(295,297,l),
(325,297,l),
(325,756,l)
);
}
);
vertWidth = 1000;
width = 1000;
},
{
layerId = "5029AEDF-C899-4409-998A-C73D58F94579";
shapes = (
{
closed = 1;
nodes = (
(24,580,l),
(24,451,l),
(560,451,l),
(560,580,l)
);
},
{
closed = 1;
nodes = (
(127,72,l),
(127,-55,l),
(474,-55,l),
(474,72,l)
);
},
{
closed = 1;
nodes = (
(449,855,l),
(345,821,o),
(184,793,o),
(36,778,c),
(76,663,l),
(231,675,o),
(411,700,o),
(553,742,c)
);
},
{
closed = 1;
nodes = (
(583,836,l),
(583,110,ls),
(583,-43,o),
(616,-89,o),
(729,-89,cs),
(750,-89,o),
(805,-89,o),
(827,-89,cs),
(933,-89,o),
(966,-15,o),
(979,168,c),
(848,230,l),
(843,86,o),
(838,47,o),
(812,47,cs),
(802,47,o),
(765,47,o),
(754,47,cs),
(730,47,o),
(727,54,o),
(727,109,cs),
(727,836,l)
);
},
{
closed = 1;
nodes = (
(65,339,l),
(65,-55,l),
(200,-55,l),
(200,212,l),
(397,212,l),
(397,-55,l),
(539,-55,l),
(539,339,l)
);
},
{
closed = 1;
nodes = (
(228,758,l),
(228,249,l),
(370,249,l),
(370,758,l)
);
}
);
vertWidth = 1000;
width = 1000;
}
);
note = cid09630;
unicode = 20081;
}
{
color = 4;
glyphname = uni4E73;
layers = (
{
layerId = m01;
shapes = (
{
closed = 1;
nodes = (
(635,803,l),
(635,40,ls),
(635,-28,o),
(652,-43,o),
(719,-43,cs),
(733,-43,o),
(854,-43,o),
(868,-43,cs),
(937,-43,o),
(946,4,o),
(951,161,c),
(922,175,l),
(918,21,o),
(913,-16,o),
(868,-16,cs),
(842,-16,o),
(738,-16,o),
(718,-16,cs),
(673,-16,o),
(665,-8,o),
(665,38,cs),
(665,803,l)
);
},
{
closed = 1;
nodes = (
(110,498,l),
(110,469,l),
(508,469,l),
(508,498,l)
);
},
{
closed = 1;
nodes = (
(299,324,l),
(299,-27,ls),
(299,-40,o),
(295,-43,o),
(281,-44,cs),
(268,-45,o),
(220,-45,o),
(161,-44,c),
(173,-70,l),
(245,-70,o),
(283,-70,o),
(303,-65,cs),
(323,-60,o),
(329,-50,o),
(329,-27,cs),
(329,324,l)
);
},
{
closed = 1;
nodes = (
(59,182,l),
(185,198,o),
(378,223,o),
(561,246,c),
(560,275,l),
(369,250,o),
(174,227,o),
(53,213,c)
);
},
{
closed = 1;
nodes = (
(499,498,l),
(499,490,l),
(452,434,o),
(368,365,o),
(299,324,c),
(306,320,o),
(314,312,o),
(320,306,c),
(389,349,o),
(479,418,o),
(537,484,c),
(519,498,l)
);
},
{
closed = 1;
nodes = (
(526,831,l),
(434,801,o),
(243,779,o),
(91,769,c),
(96,762,o),
(100,751,o),
(102,744,c),
(257,754,o),
(447,774,o),
(555,809,c)
);
},
{
closed = 1;
nodes = (
(125,698,l),
(155,642,o),
(188,567,o),
(203,518,c),
(231,530,l),
(217,577,o),
(182,652,o),
(150,709,c)
);
},
{
closed = 1;
nodes = (
(267,713,l),
(289,655,o),
(315,578,o),
(326,529,c),
(354,540,l),
(343,588,o),
(317,664,o),
(293,721,c)
);
},
{
closed = 1;
nodes = (
(517,747,l),
(489,682,o),
(439,585,o),
(400,528,c),
(426,517,l),
(466,572,o),
(514,663,o),
(549,733,c)
);
}
);
vertWidth = 1000;
width = 1000;
},
{
layerId = "5029AEDF-C899-4409-998A-C73D58F94579";
shapes = (
{
closed = 1;
nodes = (
(612,832,l),
(612,121,ls),
(612,-23,o),
(641,-70,o),
(750,-70,cs),
(769,-70,o),
(813,-70,o),
(833,-70,cs),
(933,-70,o),
(964,0,o),
(976,179,c),
(848,243,l),
(844,97,o),
(839,59,o),
(819,59,cs),
(810,59,o),
(785,59,o),
(777,59,cs),
(759,59,o),
(756,66,o),
(756,120,cs),
(756,832,l)
);
},
{
closed = 1;
nodes = (
(83,483,l),
(83,362,l),
(421,362,l),
(421,483,l)
);
},
{
closed = 1;
nodes = (
(254,280,l),
(254,48,ls),
(254,37,o),
(250,35,o),
(236,35,cs),
(223,34,o),
(174,34,o),
(138,36,c),
(181,-94,l),
(246,-94,o),
(298,-92,o),
(340,-73,cs),
(384,-52,o),
(394,-17,o),
(394,44,cs),
(394,280,l)
);
},
{
closed = 1;
nodes = (
(46,97,l),
(187,107,o),
(384,121,o),
(567,137,c),
(567,266,l),
(381,252,o),
(173,238,o),
(34,231,c)
);
},
{
closed = 1;
nodes = (
(397,483,l),
(397,455,l),
(371,408,o),
(308,326,o),
(254,280,c),
(276,261,o),
(315,220,o),
(333,194,c),
(411,252,o),
(495,342,o),
(556,417,c),
(474,483,l)
);
},
{
closed = 1;
nodes = (
(515,857,l),
(391,826,o),
(205,804,o),
(36,794,c),
(50,763,o),
(68,710,o),
(72,677,c),
(245,683,o),
(446,701,o),
(602,739,c)
);
},
{
closed = 1;
nodes = (
(53,628,l),
(77,578,o),
(106,509,o),
(118,466,c),
(240,517,l),
(225,559,o),
(196,623,o),
(169,672,c)
);
},
{
closed = 1;
nodes = (
(219,657,l),
(237,606,o),
(258,539,o),
(266,495,c),
(387,538,l),
(377,580,o),
(355,644,o),
(335,693,c)
);
},
{
closed = 1;
nodes = (
(451,720,l),
(437,660,o),
(407,580,o),
(383,528,c),
(495,485,l),
(521,532,o),
(554,603,o),
(587,672,c)
);
}
);
vertWidth = 1000;
width = 1000;
}
);
note = cid09633;
unicode = 20083;
}
{
color = 4;
glyphname = uni4E7E;
layers = (
{
layerId = m01;
shapes = (
{
closed = 1;
nodes = (
(538,459,l),
(538,429,l),
(843,429,l),
(843,459,l)
);
},
{
closed = 1;
nodes = (
(629,831,l),
(596,705,o),
(541,581,o),
(472,499,c),
(499,481,l),
(567,567,o),
(623,692,o),
(660,825,c)
);
},
{
closed = 1;
nodes = (
(590,674,l),
(575,645,l),
(953,645,l),
(953,674,l)
);
},
{
closed = 1;
nodes = (
(838,459,l),
(536,98,o),
(525,44,o),
(525,6,cs),
(525,-36,o),
(555,-56,o),
(622,-56,cs),
(878,-56,ls),
(936,-56,o),
(949,-38,o),
(955,119,c),
(924,131,l),
(921,-5,o),
(915,-25,o),
(878,-25,cs),
(619,-25,ls),
(582,-25,o),
(559,-16,o),
(559,8,cs),
(559,87,o),
(841,404,o),
(873,452,c),
(852,459,l)
);
},
{
closed = 1;
nodes = (
(265,831,l),
(265,553,l),
(294,553,l),
(294,831,l)
);
},
{
closed = 1;
nodes = (
(265,282,l),
(265,-70,l),
(294,-70,l),
(294,282,l)
);
},
{
closed = 1;
nodes = (
(134,402,l),
(429,402,l),
(429,291,l),
(134,291,l)
);
},
{
closed = 1;
nodes = (
(134,540,l),
(429,540,l),
(429,431,l),
(134,431,l)
);
},
{
closed = 1;
nodes = (
(105,570,l),
(105,262,l),
(459,262,l),
(459,570,l)
);
},
{
closed = 1;
nodes = (
(62,711,l),
(62,681,l),
(490,681,l),
(490,711,l)
);
},
{
closed = 1;
nodes = (
(50,150,l),
(50,121,l),
(501,121,l),
(501,150,l)
);
}
);
vertWidth = 1000;
width = 1000;
},
{
layerId = "5029AEDF-C899-4409-998A-C73D58F94579";
shapes = (
{
closed = 1;
nodes = (
(560,496,l),
(560,367,l),
(808,367,l),
(808,496,l)
);
},
{
closed = 1;
nodes = (
(593,854,l),
(569,732,o),
(519,615,o),
(447,545,c),
(560,446,l),
(640,534,o),
(703,676,o),
(737,825,c)
);
},
{
closed = 1;
nodes = (
(628,713,l),
(562,580,l),
(966,580,l),
(966,713,l)
);
},
{
closed = 1;
nodes = (
(783,496,l),
(532,183,o),
(519,120,o),
(519,57,cs),
(519,-28,o),
(577,-86,o),
(708,-86,cs),
(818,-86,ls),
(923,-86,o),
(972,-45,o),
(985,136,c),
(863,181,l),
(860,67,o),
(849,54,o),
(822,54,cs),
(711,54,ls),
(682,54,o),
(666,61,o),
(666,81,cs),
(666,176,o),
(901,377,o),
(932,461,c),
(841,496,l)
);
},
{
closed = 1;
nodes = (
(198,855,l),
(198,558,l),
(339,558,l),
(339,855,l)
);
},
{
closed = 1;
nodes = (
(198,306,l),
(198,-95,l),
(339,-95,l),
(339,306,l)
);
},
{
closed = 1;
nodes = (
(186,370,l),
(355,370,l),
(355,334,l),
(186,334,l)
);
},
{
closed = 1;
nodes = (
(186,500,l),
(355,500,l),
(355,465,l),
(186,465,l)
);
},
{
closed = 1;
nodes = (
(58,602,l),
(58,232,l),
(489,232,l),
(489,602,l)
);
},
{
closed = 1;
nodes = (
(41,770,l),
(41,644,l),
(496,644,l),
(496,770,l)
);
},
{
closed = 1;
nodes = (
(29,190,l),
(29,61,l),
(502,61,l),
(502,190,l)
);
}
);
vertWidth = 1000;
width = 1000;
}
);
note = cid09647;
unicode = 20094;
}
{
color = 4;
glyphname = uni4E86;
layers = (
{
layerId = m01;
shapes = (
{
closed = 1;
nodes = (
(487,485,l),
(487,-14,ls),
(487,-32,o),
(481,-38,o),
(460,-39,cs),
(437,-41,o),
(365,-42,o),
(269,-39,c),
(281,-69,l),
(389,-69,o),
(450,-69,o),
(478,-64,cs),
(507,-58,o),
(517,-46,o),
(517,-13,cs),
(517,485,l)
);
},
{
closed = 1;
nodes = (
(100,744,l),
(100,715,l),
(846,715,l),
(846,744,l)
);
},
{
closed = 1;
nodes = (
(837,744,l),
(837,736,l),
(760,650,o),
(611,543,o),
(487,485,c),
(493,480,o),
(502,472,o),
(507,466,c),
(632,526,o),
(784,631,o),
(873,731,c),
(855,744,l)
);
}
);
vertWidth = 1000;
width = 1000;
},
{
layerId = "5029AEDF-C899-4409-998A-C73D58F94579";
shapes = (
{
closed = 1;
nodes = (
(429,500,l),
(429,69,ls),
(429,52,o),
(421,47,o),
(399,47,cs),
(376,47,o),
(291,47,o),
(227,50,c),
(285,-97,l),
(378,-98,o),
(453,-95,o),
(509,-73,cs),
(565,-52,o),
(583,-13,o),
(583,65,cs),
(583,500,l)
);
},
{
closed = 1;
nodes = (
(92,790,l),
(92,646,l),
(777,646,l),
(777,790,l)
);
},
{
closed = 1;
nodes = (
(734,790,l),
(734,754,l),
(683,682,o),
(548,565,o),
(429,500,c),
(458,475,o),
(504,426,o),
(526,395,c),
(669,472,o),
(818,598,o),
(924,711,c),
(822,790,l)
);
}
);
vertWidth = 1000;
width = 1000;
}
);
note = cid09661;
unicode = 20102;
}
{
color = 4;
glyphname = uni4E88;
layers = (
{
layerId = m01;
shapes = (
{
closed = 1;
nodes = (
(491,447,l),
(491,-14,ls),
(491,-29,o),
(486,-34,o),
(469,-35,cs),
(449,-36,o),
(388,-37,o),
(308,-35,c),
(321,-65,l),
(411,-65,o),
(463,-65,o),
(487,-59,cs),
(512,-54,o),
(521,-42,o),
(521,-13,cs),
(521,447,l)
);
},
{
closed = 1;
nodes = (
(151,778,l),
(151,749,l),
(800,749,l),
(800,778,l)
);
},
{
closed = 1;
nodes = (
(789,778,l),
(789,771,l),
(721,699,o),
(593,610,o),
(494,560,c),
(501,555,o),
(511,546,o),
(516,539,c),
(614,593,o),
(744,681,o),
(825,765,c),
(809,778,l)
);
},
{
closed = 1;
nodes = (
(60,466,l),
(60,436,l),
(917,436,l),
(917,466,l)
);
},
{
closed = 1;
nodes = (
(285,645,l),
(409,587,o),
(567,503,o),
(649,453,c),
(667,478,l),
(583,528,o),
(427,609,o),
(304,666,c)
);
},
{
closed = 1;
nodes = (
(905,466,l),
(905,457,l),
(853,381,o),
(780,294,o),
(721,243,c),
(744,228,l),
(809,281,o),
(878,374,o),
(941,456,c),
(926,466,l)
);
}
);
vertWidth = 1000;
width = 1000;
},
{
layerId = "5029AEDF-C899-4409-998A-C73D58F94579";
shapes = (
{
closed = 1;
nodes = (
(431,357,l),
(431,61,ls),
(431,46,o),
(425,43,o),
(405,42,cs),
(385,42,o),
(307,42,o),
(253,45,c),
(306,-95,l),
(391,-95,o),
(460,-93,o),
(513,-73,cs),
(567,-53,o),
(583,-16,o),
(583,56,cs),
(583,357,l)
);
},
{
closed = 1;
nodes = (
(142,798,l),
(142,665,l),
(746,665,l),
(746,798,l)
);
},
{
closed = 1;
nodes = (
(691,798,l),
(691,767,l),
(653,714,o),
(554,627,o),
(470,579,c),
(494,556,o),
(537,511,o),
(557,482,c),
(666,543,o),
(781,639,o),
(867,723,c),
(787,798,l)
);
},
{
closed = 1;
nodes = (
(43,468,l),
(43,330,l),
(849,330,l),
(849,468,l)
);
},
{
closed = 1;
nodes = (
(283,530,l),
(395,491,o),
(566,427,o),
(647,390,c),
(724,515,l),
(636,551,o),
(460,608,o),
(355,640,c)
);
},
{
closed = 1;
nodes = (
(801,468,l),
(801,445,l),
(779,373,o),
(735,284,o),
(697,227,c),
(822,155,l),
(876,227,o),
(934,330,o),
(973,427,c),
(898,468,l)
);
}
);
vertWidth = 1000;
width = 1000;
}
);
note = cid09664;
unicode = 20104;
}
{
color = 4;
glyphname = uni4E89;
layers = (
{
layerId = m01;
shapes = (
{
closed = 1;
nodes = (
(478,551,l),
(478,-14,ls),
(478,-30,o),
(473,-36,o),
(453,-37,cs),
(433,-39,o),
(370,-39,o),
(282,-37,c),
(298,-66,l),
(394,-67,o),
(444,-67,o),
(471,-62,cs),
(497,-56,o),
(508,-44,o),
(508,-13,cs),
(508,551,l)
);
},
{
closed = 1;
nodes = (
(178,567,l),
(178,537,l),
(783,537,l),
(783,172,l),
(813,172,l),
(813,567,l)
);
},
{
closed = 1;
nodes = (
(52,388,l),
(52,359,l),
(953,359,l),
(953,388,l)
);
},
{
closed = 1;
nodes = (
(137,200,l),
(137,171,l),
(813,171,l),
(813,200,l)
);
},
{
closed = 1;
nodes = (
(384,834,l),
(333,746,o),
(235,631,o),
(104,549,c),
(129,528,l),
(262,616,o),
(360,732,o),
(420,828,c)
);
},
{
closed = 1;
nodes = (
(350,747,l),
(328,718,l),
(672,718,l),
(672,747,l)
);
},
{
closed = 1;
nodes = (
(668,747,l),
(668,740,l),
(635,682,o),
(574,606,o),
(522,562,c),
(528,559,o),
(538,553,o),
(544,548,c),
(597,593,o),
(663,667,o),
(702,734,c),
(684,747,l)
);
}
);
vertWidth = 1000;
width = 1000;
},
{
layerId = "5029AEDF-C899-4409-998A-C73D58F94579";
shapes = (
{
closed = 1;
nodes = (
(420,527,l),
(420,59,ls),
(420,44,o),
(414,40,o),
(395,39,cs),
(377,39,o),
(310,39,o),
(260,42,c),
(311,-97,l),
(393,-97,o),
(458,-94,o),
(506,-73,cs),
(555,-52,o),
(569,-16,o),
(569,56,cs),
(569,527,l)
);
},
{
closed = 1;
nodes = (
(187,600,l),
(187,474,l),
(704,474,l),
(704,111,l),
(846,111,l),
(846,600,l)
);
},
{
closed = 1;
nodes = (
(28,425,l),
(28,294,l),
(974,294,l),
(974,425,l)
);
},
{
closed = 1;
nodes = (
(149,242,l),
(149,111,l),
(789,111,l),
(789,242,l)
);
},
{
closed = 1;
nodes = (
(302,854,l),
(252,761,o),
(162,659,o),
(27,584,c),
(133,482,l),
(279,579,o),
(378,693,o),
(457,824,c)
);
},
{
closed = 1;
nodes = (
(388,773,l),
(295,649,l),
(650,649,l),
(650,773,l)
);
},
{
closed = 1;
nodes = (
(625,773,l),
(625,745,l),
(602,700,o),
(543,623,o),
(491,575,c),
(521,557,o),
(566,525,o),
(592,503,c),
(657,556,o),
(738,642,o),
(787,707,c),
(700,773,l)
);
}
);
vertWidth = 1000;
width = 1000;
}
);
note = cid09666;
unicode = 20105;
}
{
color = 4;
glyphname = uni4E8B;
layers = (
{
layerId = m01;
shapes = (
{
closed = 1;
nodes = (
(482,831,l),
(482,-16,ls),
(482,-35,o),
(476,-40,o),
(458,-41,cs),
(440,-42,o),
(378,-43,o),
(306,-41,c),
(319,-73,l),
(402,-73,o),
(452,-73,o),
(476,-67,cs),
(500,-62,o),
(512,-50,o),
(512,-16,cs),
(512,831,l)
);
},
{
closed = 1;
nodes = (
(74,736,l),
(74,707,l),
(930,707,l),
(930,736,l)
);
},
{
closed = 1;
nodes = (
(210,599,l),
(799,599,l),
(799,504,l),
(210,504,l)
);
},
{
closed = 1;
nodes = (
(181,628,l),
(181,474,l),
(828,474,l),
(828,628,l)
);
},
{
closed = 1;
nodes = (
(148,377,l),
(148,348,l),
(813,348,l),
(813,68,l),
(842,68,l),
(842,377,l)
);
},
{
closed = 1;
nodes = (
(59,241,l),
(59,212,l),
(946,212,l),
(946,241,l)
);
},
{
closed = 1;
nodes = (
(137,98,l),
(137,68,l),
(826,68,l),
(826,98,l)
);
}
);
vertWidth = 1000;
width = 1000;
},
{
layerId = "5029AEDF-C899-4409-998A-C73D58F94579";
shapes = (
{
closed = 1;
nodes = (
(422,855,l),
(422,36,ls),
(422,19,o),
(416,13,o),
(397,12,cs),
(381,12,o),
(322,12,o),
(281,14,c),
(328,-98,l),
(414,-98,o),
(469,-96,o),
(512,-78,cs),
(555,-58,o),
(570,-30,o),
(570,36,cs),
(570,855,l)
);
},
{
closed = 1;
nodes = (
(57,798,l),
(57,685,l),
(944,685,l),
(944,798,l)
);
},
{
closed = 1;
nodes = (
(297,566,l),
(697,566,l),
(697,532,l),
(297,532,l)
);
},
{
closed = 1;
nodes = (
(158,655,l),
(158,443,l),
(846,443,l),
(846,655,l)
);
},
{
closed = 1;
nodes = (
(136,413,l),
(136,317,l),
(716,317,l),
(716,48,l),
(864,48,l),
(864,413,l)
);
},
{
closed = 1;
nodes = (
(32,290,l),
(32,181,l),
(969,181,l),
(969,290,l)
);
},
{
closed = 1;
nodes = (
(129,151,l),
(129,48,l),
(796,48,l),
(796,151,l)
);
}
);
vertWidth = 1000;
width = 1000;
}
);
note = cid09668;
unicode = 20107;
}
{
color = 7;
glyphname = uni4E8C;
layers = (
{
layerId = m01;
shapes = (
{
closed = 1;
nodes = (
(145,682,l),
(145,653,l),
(856,653,l),
(856,682,l)
);
},
{
closed = 1;
nodes = (
(59,76,l),
(59,46,l),
(942,46,l),
(942,76,l)
);
}
);
vertWidth = 1000;
width = 1000;
},
{
layerId = "5029AEDF-C899-4409-998A-C73D58F94579";
shapes = (
{
closed = 1;
nodes = (
(136,720,l),
(136,559,l),
(866,559,l),
(866,720,l)
);
},
{
closed = 1;
nodes = (
(53,147,l),
(53,-21,l),
(949,-21,l),
(949,147,l)
);
}
);
vertWidth = 1000;
width = 1000;
}
);
note = cid09669;
unicode = 20108;
}
{
color = 4;
glyphname = uni4E8D;
layers = (
{
layerId = m01;
shapes = (
{
closed = 1;
nodes = (
(60,502,l),
(60,473,l),
(943,473,l),
(943,502,l)
);
},
{
closed = 1;
nodes = (
(150,741,l),
(150,712,l),
(852,712,l),
(852,741,l)
);
},
{
closed = 1;
nodes = (
(493,491,l),
(493,-14,ls),
(493,-31,o),
(487,-36,o),
(468,-38,cs),
(447,-39,o),
(378,-40,o),
(289,-37,c),
(302,-67,l),
(403,-67,o),
(460,-67,o),
(486,-62,cs),
(513,-56,o),
(523,-44,o),
(523,-13,cs),
(523,491,l)
);
}
);
vertWidth = 1000;
width = 1000;
},
{
layerId = "5029AEDF-C899-4409-998A-C73D58F94579";
shapes = (
{
closed = 1;
nodes = (
(50,528,l),
(50,378,l),
(951,378,l),
(951,528,l)
);
},
{
closed = 1;
nodes = (
(151,785,l),
(151,638,l),
(854,638,l),
(854,785,l)
);
},
{
closed = 1;
nodes = (
(433,479,l),
(433,69,ls),
(433,52,o),
(425,48,o),
(404,48,cs),
(381,47,o),
(295,47,o),
(234,51,c),
(293,-98,l),
(384,-98,o),
(459,-96,o),
(515,-74,cs),
(572,-52,o),
(590,-14,o),
(590,65,cs),
(590,479,l)
);
}
);
vertWidth = 1000;
width = 1000;
}
);
note = cid09670;
unicode = 20109;
}
{
color = 4;
glyphname = uni4E8E;
layers = (
{
layerId = m01;
shapes = (
{
closed = 1;
nodes = (
(59,420,l),
(59,390,l),
(942,390,l),
(942,420,l)
);
},
{
closed = 1;
nodes = (
(493,745,l),
(493,-6,ls),
(493,-27,o),
(485,-33,o),
(464,-34,cs),
(443,-35,o),
(369,-36,o),
(279,-34,c),
(292,-65,l),
(397,-65,o),
(455,-65,o),
(482,-60,cs),
(510,-54,o),
(523,-41,o),
(523,-5,cs),
(523,745,l)
);
},
{
closed = 1;
nodes = (
(130,752,l),
(130,722,l),
(871,722,l),
(871,752,l)
);
}
);
vertWidth = 1000;
width = 1000;
},
{
layerId = "5029AEDF-C899-4409-998A-C73D58F94579";
shapes = (
{
closed = 1;
nodes = (
(48,473,l),
(48,329,l),
(953,329,l),
(953,473,l)
);
},
{
closed = 1;
nodes = (
(434,742,l),
(434,86,ls),
(434,66,o),
(425,60,o),
(403,60,cs),
(378,59,o),
(298,59,o),
(228,63,c),
(288,-91,l),
(386,-91,o),
(464,-87,o),
(517,-63,cs),
(571,-40,o),
(589,0,o),
(589,84,cs),
(589,742,l)
);
},
{
closed = 1;
nodes = (
(115,795,l),
(115,651,l),
(885,651,l),
(885,795,l)
);
}
);
vertWidth = 1000;
width = 1000;
}
);
note = cid09671;
unicode = 20110;
}
{
color = 4;
glyphname = uni4E8F;
layers = (
{
layerId = m01;
shapes = (
{
closed = 1;
nodes = (
(152,763,l),
(152,733,l),
(845,733,l),
(845,763,l)
);
},
{
closed = 1;
nodes = (
(63,523,l),
(63,493,l),
(932,493,l),
(932,523,l)
);
},
{
closed = 1;
nodes = (
(773,276,l),
(761,132,o),
(747,-5,o),
(709,-36,cs),
(700,-44,o),
(687,-45,o),
(661,-45,cs),
(636,-45,o),
(555,-44,o),
(473,-37,c),
(483,-65,l),
(561,-71,o),
(635,-73,o),
(668,-72,cs),
(700,-71,o),
(717,-68,o),
(732,-54,cs),
(774,-17,o),
(788,113,o),
(804,276,c)
);
},
{
closed = 1;
nodes = (
(281,276,l),
(269,246,l),
(785,246,l),
(785,276,l)
);
},
{
closed = 1;
nodes = (
(316,503,l),
(257,247,l),
(287,247,l),
(346,503,l)
);
}
);
vertWidth = 1000;
width = 1000;
},
{
layerId = "5029AEDF-C899-4409-998A-C73D58F94579";
shapes = (
{
closed = 1;
nodes = (
(102,814,l),
(102,679,l),
(899,679,l),
(899,814,l)
);
},
{
closed = 1;
nodes = (
(40,578,l),
(40,443,l),
(959,443,l),
(959,578,l)
);
},
{
closed = 1;
nodes = (
(729,322,l),
(722,195,o),
(713,69,o),
(679,45,cs),
(664,36,o),
(647,35,o),
(623,35,cs),
(583,35,o),
(489,37,o),
(405,43,c),
(464,-96,l),
(542,-98,o),
(621,-99,o),
(667,-96,cs),
(727,-92,o),
(768,-82,o),
(805,-46,cs),
(854,4,o),
(864,126,o),
(878,322,c)
);
},
{
closed = 1;
nodes = (
(269,322,l),
(210,190,l),
(810,190,l),
(810,322,l)
);
},
{
closed = 1;
nodes = (
(271,507,l),
(200,190,l),
(366,190,l),
(438,507,l)
);
}
);
vertWidth = 1000;
width = 1000;
}
);
note = cid09673;
unicode = 20111;
}
{
color = 4;
glyphname = uni4E91;
layers = (
{
guides = (
{
angle = 185.3429;
pos = (829,40);
}
);
layerId = m01;
shapes = (
{
closed = 1;
nodes = (
(168,736,l),
(168,707,l),
(834,707,l),
(834,736,l)
);
},
{
closed = 1;
nodes = (
(64,452,l),
(64,423,l),
(938,423,l),
(938,452,l)
);
},
{
closed = 1;
nodes = (
(641,289,l),
(726,178,o),
(830,24,o),
(882,-70,c),
(908,-56,l),
(860,37,o),
(753,188,o),
(667,302,c)
);
},
{
closed = 1;
nodes = (
(144,-14,o),
(177,-12,o),
(177,-12,c),
(177,-11,l),
(274,105,o),
(372,268,o),
(453,430,c),
(423,445,l),
(352,289,o),
(242,124,o),
(209,81,cs),
(179,36,o),
(154,4,o),
(136,0,c),
(144,-24,l)
);
},
{
closed = 1;
nodes = (
(144,-24,l),
(829,40,l),
(826,47,o),
(823,59,o),
(822,68,c),
(180,9,l),
(148,-8,l)
);
}
);
vertWidth = 1000;
width = 1000;
},
{
guides = (
{
angle = 184.2247;
pos = (801,4);
}
);
layerId = "5029AEDF-C899-4409-998A-C73D58F94579";
shapes = (
{
closed = 1;
nodes = (
(160,797,l),
(160,647,l),
(854,647,l),
(854,797,l)
);
},
{
closed = 1;
nodes = (
(43,518,l),
(43,367,l),
(957,367,l),
(957,518,l)
);
},
{
closed = 1;
nodes = (
(587,257,l),
(665,144,o),
(762,-8,o),
(805,-104,c),
(948,-17,l),
(897,77,o),
(804,217,o),
(722,327,c)
);
},
{
closed = 1;
nodes = (
(128,-17,o),
(234,23,o),
(234,23,c),
(234,27,l),
(333,124,o),
(450,269,o),
(533,421,c),
(347,476,l),
(290,340,o),
(193,201,o),
(159,166,cs),
(126,130,o),
(106,111,o),
(74,102,c),
(128,-46,l)
);
},
{
closed = 1;
nodes = (
(128,-46,l),
(801,4,l),
(791,38,o),
(776,102,o),
(771,146,c),
(224,119,l),
(128,65,l)
);
}
);
vertWidth = 1000;
width = 1000;
}
);
note = cid09676;
unicode = 20113;
}
{
color = 4;
glyphname = uni4E92;
layers = (
{
layerId = m01;
shapes = (
{
closed = 1;
nodes = (
(94,756,l),
(94,726,l),
(911,726,l),
(911,756,l)
);
},
{
closed = 1;
nodes = (
(298,533,l),
(298,504,l),
(731,504,l),
(731,533,l)
);
},
{
closed = 1;
nodes = (
(242,229,l),
(242,200,l),
(702,200,l),
(702,229,l)
);
},
{
closed = 1;
nodes = (
(59,6,l),
(59,-23,l),
(942,-23,l),
(942,6,l)
);
},
{
closed = 1;
nodes = (
(316,744,l),
(217,200,l),
(248,200,l),
(347,744,l)
);
},
{
closed = 1;
nodes = (
(720,533,l),
(720,527,l),
(654,-11,l),
(683,-13,l),
(749,533,l)
);
}
);
vertWidth = 1000;
width = 1000;
},
{
layerId = "5029AEDF-C899-4409-998A-C73D58F94579";
shapes = (
{
closed = 1;
nodes = (
(72,824,l),
(72,685,l),
(937,685,l),
(937,824,l)
);
},
{
closed = 1;
nodes = (
(315,572,l),
(315,437,l),
(707,437,l),
(707,572,l)
);
},
{
closed = 1;
nodes = (
(268,312,l),
(268,177,l),
(674,177,l),
(674,312,l)
);
},
{
closed = 1;
nodes = (
(43,66,l),
(43,-75,l),
(966,-75,l),
(966,66,l)
);
},
{
closed = 1;
nodes = (
(289,710,l),
(163,177,l),
(327,177,l),
(449,710,l)
);
},
{
closed = 1;
nodes = (
(658,572,l),
(658,557,l),
(580,38,l),
(732,24,l),
(812,572,l)
);
}
);
vertWidth = 1000;
width = 1000;
}
);
note = cid09678;
unicode = 20114;
}
{
color = 4;
glyphname = uni4E93;
layers = (
{
layerId = m01;
shapes = (
{
closed = 1;
nodes = (
(179,735,l),
(179,706,l),
(827,706,l),
(827,735,l)
);
},
{
closed = 1;
nodes = (
(86,503,l),
(86,474,l),
(917,474,l),
(917,503,l)
);
},
{
closed = 1;
nodes = (
(334,485,l),
(334,435,ls),
(334,300,o),
(321,116,o),
(81,-47,c),
(101,-69,l),
(344,99,o),
(364,291,o),
(364,435,cs),
(364,485,l)
);
},
{
closed = 1;
nodes = (
(649,485,l),
(649,-66,l),
(678,-66,l),
(678,485,l)
);
}
);
vertWidth = 1000;
width = 1000;
},
{
layerId = "5029AEDF-C899-4409-998A-C73D58F94579";
shapes = (
{
closed = 1;
nodes = (
(154,776,l),
(154,631,l),
(857,631,l),
(857,776,l)
);
},
{
closed = 1;
nodes = (
(68,534,l),
(68,387,l),
(933,387,l),
(933,534,l)
);
},
{
closed = 1;
nodes = (
(268,435,l),
(268,346,ls),
(268,258,o),
(243,106,o),
(41,17,c),
(144,-98,l),
(385,16,o),
(420,219,o),
(420,341,cs),
(420,435,l)
);
},
{
closed = 1;
nodes = (
(604,428,l),
(604,-94,l),
(759,-94,l),
(759,428,l)
);
}
);
vertWidth = 1000;
width = 1000;
}
);
note = cid09679;
unicode = 20115;
}
{
color = 4;
glyphname = uni4E94;
layers = (
{
layerId = m01;
shapes = (
{
closed = 1;
nodes = (
(128,727,l),
(128,698,l),
(865,698,l),
(865,727,l)
);
},
{
closed = 1;
nodes = (
(59,21,l),
(59,-9,l),
(942,-9,l),
(942,21,l)
);
},
{
closed = 1;
nodes = (
(435,717,l),
(315,11,l),
(345,10,l),
(465,717,l)
);
},
{
closed = 1;
nodes = (
(182,434,l),
(182,406,l),
(752,406,l),
(752,434,l)
);
},
{
closed = 1;
nodes = (
(738,434,l),
(738,428,l),
(696,12,l),
(725,9,l),
(768,434,l),
(757,434,l),
(741,434,l)
);
}
);
vertWidth = 1000;
width = 1000;
},
{
layerId = "5029AEDF-C899-4409-998A-C73D58F94579";
shapes = (
{
closed = 1;
nodes = (
(107,767,l),
(107,623,l),
(891,623,l),
(891,767,l)
);
},
{
closed = 1;
nodes = (
(52,93,l),
(52,-51,l),
(953,-51,l),
(953,93,l)
);
},
{
closed = 1;
nodes = (
(377,716,l),
(258,0,l),
(421,0,l),
(542,716,l)
);
},
{
closed = 1;
nodes = (
(163,478,l),
(163,335,l),
(690,335,l),
(690,478,l)
);
},
{
closed = 1;
nodes = (
(638,478,l),
(638,462,l),
(599,-4,l),
(753,-15,l),
(795,478,l),
(725,478,l),
(654,478,l)
);
}
);
vertWidth = 1000;
width = 1000;
}
);
note = cid09681;
unicode = 20116;
}
{
color = 4;
glyphname = uni4E95;
layers = (
{
layerId = m01;
shapes = (
{
closed = 1;
nodes = (
(305,825,l),
(305,430,ls),
(305,236,o),
(281,66,o),
(80,-61,c),
(100,-81,l),
(308,49,o),
(334,226,o),
(334,430,cs),
(334,825,l)
);
},
{
closed = 1;
nodes = (
(668,825,l),
(668,-70,l),
(697,-70,l),
(697,825,l)
);
},
{
closed = 1;
nodes = (
(71,297,l),
(71,268,l),
(931,268,l),
(931,297,l)
);
},
{
closed = 1;
nodes = (
(106,608,l),
(106,578,l),
(910,578,l),
(910,608,l)
);
}
);
vertWidth = 1000;
width = 1000;
},
{
layerId = "5029AEDF-C899-4409-998A-C73D58F94579";
shapes = (
{
closed = 1;
nodes = (
(256,852,l),
(256,474,ls),
(256,298,o),
(238,125,o),
(57,5,c),
(190,-103,l),
(389,41,o),
(411,263,o),
(411,473,cs),
(411,852,l)
);
},
{
closed = 1;
nodes = (
(601,855,l),
(601,-95,l),
(756,-95,l),
(756,855,l)
);
},
{
closed = 1;
nodes = (
(44,360,l),
(44,212,l),
(958,212,l),
(958,360,l)
);
},
{
closed = 1;
nodes = (
(71,673,l),
(71,527,l),
(931,527,l),
(931,673,l)
);
}
);
vertWidth = 1000;
width = 1000;
}
);
note = cid09682;
unicode = 20117;
}
{
color = 7;
glyphname = uni4E98;
layers = (
{
layerId = m01;
shapes = (
{
closed = 1;
nodes = (
(88,757,l),
(88,727,l),
(914,727,l),
(914,757,l)
);
},
{
closed = 1;
nodes = (
(59,2,l),
(59,-27,l),
(942,-27,l),
(942,2,l)
);
},
{
closed = 1;
nodes = (
(243,358,l),
(764,358,l),
(764,168,l),
(243,168,l)
);
},
{
closed = 1;
nodes = (
(243,575,l),
(764,575,l),
(764,387,l),
(243,387,l)
);
},
{
closed = 1;
nodes = (
(214,605,l),
(214,138,l),
(793,138,l),
(793,605,l)
);
}
);
vertWidth = 1000;
width = 1000;
},
{
layerId = "5029AEDF-C899-4409-998A-C73D58F94579";
shapes = (
{
closed = 1;
nodes = (
(79,805,l),
(79,671,l),
(935,671,l),
(935,805,l)
);
},
{
closed = 1;
nodes = (
(47,70,l),
(47,-64,l),
(957,-64,l),
(957,70,l)
);
},
{
closed = 1;
nodes = (
(340,313,l),
(665,313,l),
(665,252,l),
(340,252,l)
);
},
{
closed = 1;
nodes = (
(340,490,l),
(665,490,l),
(665,431,l),
(340,431,l)
);
},
{
closed = 1;
nodes = (
(196,618,l),
(196,124,l),
(817,124,l),
(817,618,l)
);
}
);
vertWidth = 1000;
width = 1000;
}
);
note = cid09685;
unicode = 20120;
}
{
color = 7;
glyphname = uni4E9A;
layers = (
{
layerId = m01;
shapes = (
{
closed = 1;
nodes = (
(57,28,l),
(57,-2,l),
(944,-2,l),
(944,28,l)
);
},
{
closed = 1;
nodes = (
(358,748,l),
(358,18,l),
(387,18,l),
(387,748,l)
);
},
{
closed = 1;
nodes = (
(594,748,l),
(594,18,l),
(623,18,l),
(623,748,l)
);
},
{
closed = 1;
nodes = (
(869,552,l),
(825,458,o),
(747,325,o),
(688,241,c),
(713,228,l),
(772,313,o),
(845,439,o),
(896,539,c)
);
},
{
closed = 1;
nodes = (
(98,547,l),
(156,445,o),
(221,308,o),
(248,229,c),
(275,239,l),
(246,318,o),
(182,453,o),
(123,555,c)
);
},
{
closed = 1;
nodes = (
(78,766,l),
(78,736,l),
(925,736,l),
(925,766,l)
);
}
);
vertWidth = 1000;
width = 1000;
},
{
layerId = "5029AEDF-C899-4409-998A-C73D58F94579";
shapes = (
{
closed = 1;
nodes = (
(25,88,l),
(25,-51,l),
(971,-51,l),
(971,88,l)
);
},
{
closed = 1;
nodes = (
(292,743,l),
(292,-13,l),
(452,-13,l),
(452,743,l)
);
},
{
closed = 1;
nodes = (
(542,743,l),
(542,-22,l),
(702,-22,l),
(702,743,l)
);
},
{
closed = 1;
nodes = (
(786,579,l),
(765,458,o),
(720,311,o),
(681,217,c),
(813,173,l),
(851,265,o),
(896,402,o),
(930,534,c)
);
},
{
closed = 1;
nodes = (
(60,528,l),
(100,409,o),
(150,253,o),
(170,158,c),
(311,218,l),
(287,311,o),
(231,462,o),
(189,576,c)
);
},
{
closed = 1;
nodes = (
(64,802,l),
(64,658,l),
(942,658,l),
(942,802,l)
);
}
);
vertWidth = 1000;
width = 1000;
}
);
note = cid09688;
unicode = 20122;
}
{
color = 4;
glyphname = uni4E9F;
layers = (
{
layerId = m01;
shapes = (
{
closed = 1;
nodes = (
(167,796,l),
(167,767,l),
(771,767,l),
(771,796,l)
);
},
{
closed = 1;
nodes = (
(563,558,l),
(563,528,l),
(859,528,l),
(859,558,l)
);
},
{
closed = 1;
nodes = (
(765,796,l),
(765,789,l),
(702,732,o),
(584,670,o),
(484,634,c),
(491,629,o),
(499,621,o),
(504,615,c),
(605,652,o),
(725,716,o),
(800,783,c),
(785,796,l)
);
},
{
closed = 1;
nodes = (
(484,634,l),
(484,146,ls),
(484,131,o),
(480,128,o),
(465,127,cs),
(447,126,o),
(395,125,o),
(326,127,c),
(338,95,l),
(413,95,o),
(461,95,o),
(483,101,cs),
(506,107,o),
(514,118,o),
(514,146,cs),
(514,634,l)
);
},
{
closed = 1;
nodes = (
(848,558,l),
(848,550,l),
(799,344,o),
(676,200,o),
(536,125,c),
(557,103,l),
(698,184,o),
(823,330,o),
(877,551,c),
(870,558,l)
);
},
{
closed = 1;
nodes = (
(146,531,l),
(338,531,l),
(338,233,l),
(146,233,l)
);
},
{
closed = 1;
nodes = (
(117,561,l),
(117,204,l),
(368,204,l),
(368,561,l)
);
},
{
closed = 1;
nodes = (
(557,450,l),
(671,352,o),
(795,213,o),
(850,121,c),
(874,140,l),
(819,231,o),
(694,369,o),
(579,467,c)
);
},
{
closed = 1;
nodes = (
(62,25,l),
(62,-5,l),
(940,-5,l),
(940,25,l)
);
}
);
vertWidth = 1000;
width = 1000;
},
{
layerId = "5029AEDF-C899-4409-998A-C73D58F94579";
shapes = (
{
closed = 1;
nodes = (
(161,820,l),
(161,693,l),
(720,693,l),
(720,820,l)
);
},
{
closed = 1;
nodes = (
(594,589,l),
(594,465,l),
(856,465,l),
(856,589,l)
);
},
{
closed = 1;
nodes = (
(686,820,l),
(686,791,l),
(639,743,o),
(518,669,o),
(415,629,c),
(438,607,o),
(477,564,o),
(495,537,c),
(621,588,o),
(754,669,o),
(853,745,c),
(774,820,l)
);
},
{
closed = 1;
nodes = (
(415,629,l),
(415,211,ls),
(415,198,o),
(409,194,o),
(392,194,cs),
(376,194,o),
(316,194,o),
(269,196,c),
(320,71,l),
(396,71,o),
(454,74,o),
(499,93,cs),
(545,112,o),
(559,145,o),
(559,208,cs),
(559,629,l)
);
},
{
closed = 1;
nodes = (
(814,589,l),
(814,566,l),
(783,375,o),
(691,242,o),
(557,172,c),
(658,77,l),
(798,160,o),
(902,321,o),
(945,563,c),
(895,589,l)
);
},
{
closed = 1;
nodes = (
(207,477,l),
(253,477,l),
(253,320,l),
(207,320,l)
);
},
{
closed = 1;
nodes = (
(85,586,l),
(85,212,l),
(382,212,l),
(382,586,l)
);
},
{
closed = 1;
nodes = (
(568,393,l),
(664,303,o),
(786,175,o),
(838,92,c),
(947,178,l),
(888,261,o),
(761,382,o),
(666,466,c)
);
},
{
closed = 1;
nodes = (
(38,58,l),
(38,-77,l),
(961,-77,l),
(961,58,l)
);
}
);
vertWidth = 1000;
width = 1000;
}
);
note = cid09697;
unicode = 20127;
}
{
color = 7;
glyphname = uni4EA0;
layers = (
{
layerId = m01;
shapes = (
{
closed = 1;
nodes = (
(61,612,l),
(61,582,l),
(939,582,l),
(939,612,l)
);
},
{
closed = 1;
nodes = (
(410,802,l),
(452,749,o),
(499,675,o),
(519,630,c),
(548,644,l),
(527,689,o),
(480,761,o),
(438,813,c)
);
}
);
vertWidth = 1000;
width = 1000;
},
{
layerId = "5029AEDF-C899-4409-998A-C73D58F94579";
shapes = (
{
closed = 1;
nodes = (
(41,627,l),
(41,483,l),
(964,483,l),
(964,627,l)
);
},
{
closed = 1;
nodes = (
(367,779,l),
(412,719,o),
(470,638,o),
(493,586,c),
(629,672,l),
(601,723,o),
(538,800,o),
(493,855,c)
);
}
);
vertWidth = 1000;
width = 1000;
}
);
note = cid09700;
unicode = 20128;
}
{
color = 7;
glyphname = uni4EA1;
layers = (
{
layerId = m01;
shapes = (
{
closed = 1;
nodes = (
(65,616,l),
(65,586,l),
(934,586,l),
(934,616,l)
);
},
{
closed = 1;
nodes = (
(441,818,l),
(478,757,o),
(519,673,o),
(534,623,c),
(562,638,l),
(545,687,o),
(505,768,o),
(467,829,c)
);
},
{
closed = 1;
nodes = (
(223,598,l),
(223,1,l),
(885,1,l),
(885,31,l),
(252,31,l),
(252,598,l)
);
}
);
vertWidth = 1000;
width = 1000;
},
{
layerId = "5029AEDF-C899-4409-998A-C73D58F94579";
shapes = (
{
closed = 1;
nodes = (
(41,650,l),
(41,508,l),
(964,508,l),
(964,650,l)
);
},
{
closed = 1;
nodes = (
(399,814,l),
(426,756,o),
(453,679,o),
(461,632,c),
(628,683,l),
(617,733,o),
(585,805,o),
(555,860,c)
);
},
{
closed = 1;
nodes = (
(163,581,l),
(163,-54,l),
(886,-54,l),
(886,96,l),
(320,96,l),
(320,581,l)
);
}
);
vertWidth = 1000;
width = 1000;
}
);
note = cid09702;
unicode = 20129;
}
{
color = 4;
glyphname = uni4EA2;
layers = (
{
layerId = m01;
shapes = (
{
closed = 1;
nodes = (
(71,628,l),
(71,599,l),
(936,599,l),
(936,628,l)
);
},
{
closed = 1;
nodes = (
(320,473,l),
(320,443,l),
(669,443,l),
(669,473,l)
);
},
{
closed = 1;
nodes = (
(310,473,l),
(310,338,ls),
(310,210,o),
(269,58,o),
(50,-50,c),
(68,-73,l),
(294,38,o),
(339,201,o),
(339,337,cs),
(339,473,l)
);
},
{
closed = 1;
nodes = (
(646,473,l),
(646,48,ls),
(646,-16,o),
(653,-28,o),
(674,-37,cs),
(694,-45,o),
(722,-47,o),
(745,-47,cs),
(758,-47,o),
(817,-47,o),
(831,-47,cs),
(859,-47,o),
(888,-44,o),
(906,-38,cs),
(925,-30,o),
(937,-17,o),
(943,8,cs),
(949,31,o),
(952,104,o),
(952,166,c),
(923,181,l),
(923,106,o),
(921,52,o),
(917,27,cs),
(914,4,o),
(904,-8,o),
(891,-13,cs),
(877,-18,o),
(854,-20,o),
(830,-20,cs),
(805,-20,o),
(764,-20,o),
(744,-20,cs),
(723,-20,o),
(709,-20,o),
(694,-16,cs),
(680,-12,o),
(675,6,o),
(675,38,cs),
(675,473,l)
);
},
{
closed = 1;
nodes = (
(447,825,l),
(476,772,o),
(510,703,o),
(525,657,c),
(554,669,l),
(539,713,o),
(505,783,o),
(475,837,c)
);
}
);
vertWidth = 1000;
width = 1000;
},
{
layerId = "5029AEDF-C899-4409-998A-C73D58F94579";
shapes = (
{
closed = 1;
nodes = (
(54,698,l),
(54,559,l),
(946,559,l),
(946,698,l)
);
},
{
closed = 1;
nodes = (
(381,482,l),
(381,345,l),
(629,345,l),
(629,482,l)
);
},
{
closed = 1;
nodes = (
(249,482,l),
(249,330,ls),
(249,222,o),
(230,99,o),
(20,17,c),
(114,-106,l),
(351,-9,o),
(400,177,o),
(400,326,cs),
(400,482,l)
);
},
{
closed = 1;
nodes = (
(608,482,l),
(608,75,ls),
(608,-7,o),
(623,-36,o),
(648,-58,cs),
(673,-79,o),
(711,-88,o),
(749,-88,cs),
(770,-88,o),
(811,-88,o),
(833,-88,cs),
(859,-88,o),
(893,-84,o),
(914,-72,c),
(941,-60,o),
(957,-41,o),
(968,-13,cs),
(978,15,o),
(984,79,o),
(986,135,c),
(875,194,l),
(874,140,o),
(872,98,o),
(870,80,cs),
(867,60,o),
(862,53,o),
(855,50,cs),
(849,47,o),
(841,46,o),
(833,46,cs),
(820,46,o),
(800,46,o),
(790,46,cs),
(780,46,o),
(772,47,o),
(767,51,cs),
(762,55,o),
(761,64,o),
(761,85,cs),
(761,482,l)
);
},
{
closed = 1;
nodes = (
(399,828,l),
(421,779,o),
(448,715,o),
(458,673,c),
(614,726,l),
(601,767,o),
(574,828,o),
(549,876,c)
);
}
);
vertWidth = 1000;
width = 1000;
}
);
note = cid09705;
unicode = 20130;
}
{
color = 4;
glyphname = uni4EA4;
layers = (
{
layerId = m01;
shapes = (
{
closed = 1;
nodes = (
(671,431,l),
(574,161,o),
(360,24,o),
(49,-46,c),
(69,-75,l),
(379,4,o),
(598,140,o),
(701,422,c)
);
},
{
closed = 1;
nodes = (
(340,597,l),
(277,517,o),
(176,433,o),
(88,378,c),
(111,354,l),
(197,413,o),
(300,501,o),
(368,586,c)
);
},
{
closed = 1;
nodes = (
(305,415,l),
(407,156,o),
(625,-4,o),
(935,-63,c),
(956,-34,l),
(646,19,o),
(429,178,o),
(332,425,c)
);
},
{
closed = 1;
nodes = (
(75,680,l),
(75,651,l),
(922,651,l),
(922,680,l)
);
},
{
closed = 1;
nodes = (
(640,576,l),
(737,512,o),
(848,417,o),
(900,352,c),
(923,372,l),
(869,436,o),
(759,529,o),
(663,593,c)
);
},
{
closed = 1;
nodes = (
(435,827,l),
(465,788,o),
(496,735,o),
(510,701,c),
(537,714,l),
(524,746,o),
(491,799,o),
(462,837,c)
);
}
);
vertWidth = 1000;
width = 1000;
},
{
layerId = "5029AEDF-C899-4409-998A-C73D58F94579";
shapes = (
{
closed = 1;
nodes = (
(621,422,l),
(534,202,o),
(329,88,o),
(43,36,c),
(130,-93,l),
(426,-22,o),
(650,116,o),
(768,380,c)
);
},
{
closed = 1;
nodes = (
(284,597,l),
(229,527,o),
(132,456,o),
(41,414,c),
(157,308,l),
(247,362,o),
(357,454,o),
(427,542,c)
);
},
{
closed = 1;
nodes = (
(254,378,l),
(369,119,o),
(550,-30,o),
(872,-90,c),
(960,40,l),
(658,84,o),
(471,211,o),
(384,417,c)
);
},
{
closed = 1;
nodes = (
(54,735,l),
(54,593,l),
(946,593,l),
(946,735,l)
);
},
{
closed = 1;
nodes = (
(583,523,l),
(670,459,o),
(782,364,o),
(831,302,c),
(956,397,l),
(900,460,o),
(782,548,o),
(698,606,c)
);
},
{
closed = 1;
nodes = (
(391,821,l),
(416,774,o),
(444,712,o),
(455,673,c),
(602,727,l),
(589,766,o),
(556,825,o),
(530,869,c)
);
}
);
vertWidth = 1000;
width = 1000;
}
);
note = cid09708;
unicode = 20132;
}
{
color = 4;
glyphname = uni4EA5;
layers = (
{
guides = (
{
angle = 183.4705;
pos = (579,408);
}
);
layerId = m01;
shapes = (
{
closed = 1;
nodes = (
(561,158,l),
(676,93,o),
(819,-1,o),
(891,-62,c),
(915,-40,l),
(840,21,o),
(697,113,o),
(583,176,c)
);
},
{
closed = 1;
nodes = (
(65,679,l),
(65,650,l),
(939,650,l),
(939,679,l)
);
},
{
closed = 1;
nodes = (
(676,549,l),
(563,384,o),
(351,240,o),
(115,166,c),
(135,141,l),
(372,219,o),
(586,367,o),
(702,535,c)
);
},
{
closed = 1;
nodes = (
(813,426,l),
(671,210,o),
(405,41,o),
(71,-42,c),
(89,-68,l),
(424,17,o),
(694,191,o),
(837,412,c)
);
},
{
closed = 1;
nodes = (
(444,821,l),
(474,780,o),
(505,725,o),
(519,690,c),
(547,702,l),
(533,736,o),
(501,791,o),
(472,830,c)
);
},
{
closed = 1;
nodes = (
(201,398,o),
(252,404,o),
(252,404,c),
(313,463,o),
(438,601,o),
(495,672,c),
(455,672,l),
(412,619,o),
(280,473,o),
(242,439,cs),
(223,422,o),
(204,416,o),
(190,412,c),
(201,385,l)
);
},
{
closed = 1;
nodes = (
(201,385,l),
(579,408,l),
(582,415,o),
(587,427,o),
(592,435,c),
(231,417,l),
(204,404,l)
);
}
);
vertWidth = 1000;
width = 1000;
},
{
guides = (
{
angle = 184.2126;
pos = (590,403);
}
);
layerId = "5029AEDF-C899-4409-998A-C73D58F94579";
shapes = (
{
closed = 1;
nodes = (
(505,112,l),
(607,53,o),
(745,-37,o),
(808,-96,c),
(945,7,l),
(871,68,o),
(727,151,o),
(631,202,c)
);
},
{
closed = 1;
nodes = (
(47,758,l),
(47,616,l),
(957,616,l),
(957,758,l)
);
},
{
closed = 1;
nodes = (
(652,596,l),
(530,413,o),
(297,315,o),
(42,263,c),
(130,127,l),
(405,197,o),
(639,312,o),
(791,527,c)
);
},
{
closed = 1;
nodes = (
(773,435,l),
(624,212,o),
(350,103,o),
(37,44,c),
(124,-96,l),
(453,-22,o),
(730,104,o),
(913,358,c)
);
},
{
closed = 1;
nodes = (
(393,825,l),
(416,782,o),
(444,722,o),
(455,686,c),
(615,736,l),
(600,773,o),
(568,829,o),
(544,870,c)
);
},
{
closed = 1;
nodes = (
(147,409,o),
(314,445,o),
(314,445,c),
(382,509,o),
(476,620,o),
(541,700,c),
(357,700,l),
(321,656,o),
(236,561,o),
(209,539,cs),
(183,519,o),
(143,509,o),
(118,505,c),
(147,370,l)
);
},
{
closed = 1;
nodes = (
(147,370,l),
(590,403,l),
(597,435,o),
(616,498,o),
(634,538,c),
(225,516,l),
(145,469,l)
);
}
);
vertWidth = 1000;
width = 1000;
}
);
note = cid09710;
unicode = 20133;
}
{
color = 4;
glyphname = uni4EA6;
layers = (
{
layerId = m01;
shapes = (
{
closed = 1;
nodes = (
(223,485,l),
(192,375,o),
(142,267,o),
(82,193,c),
(108,177,l),
(167,252,o),
(219,364,o),
(252,479,c)
);
},
{
closed = 1;
nodes = (
(741,474,l),
(809,370,o),
(876,229,o),
(902,143,c),
(929,154,l),
(904,239,o),
(835,378,o),
(767,482,c)
);
},
{
closed = 1;
nodes = (
(66,641,l),
(66,612,l),
(935,612,l),
(935,641,l)
);
},
{
closed = 1;
nodes = (
(625,628,l),
(625,-17,ls),
(625,-35,o),
(621,-40,o),
(602,-41,cs),
(583,-42,o),
(521,-42,o),
(443,-40,c),
(457,-71,l),
(544,-71,o),
(595,-71,o),
(621,-65,cs),
(645,-60,o),
(655,-48,o),
(655,-16,cs),
(655,628,l)
);
},
{
closed = 1;
nodes = (
(378,630,l),
(378,478,ls),
(378,310,o),
(359,104,o),
(129,-57,c),
(150,-77,l),
(385,88,o),
(407,300,o),
(407,478,cs),
(407,630,l)
);
},
{
closed = 1;
nodes = (
(436,823,l),
(474,773,o),
(514,704,o),
(531,662,c),
(560,674,l),
(542,716,o),
(501,783,o),
(463,833,c)
);
}
);
vertWidth = 1000;
width = 1000;
},
{
layerId = "5029AEDF-C899-4409-998A-C73D58F94579";
shapes = (
{
closed = 1;
nodes = (
(141,490,l),
(120,383,o),
(78,275,o),
(19,210,c),
(145,128,l),
(206,206,o),
(259,333,o),
(287,461,c)
);
},
{
closed = 1;
nodes = (
(701,441,l),
(758,337,o),
(815,202,o),
(831,115,c),
(969,179,l),
(949,268,o),
(887,397,o),
(827,496,c)
);
},
{
closed = 1;
nodes = (
(52,707,l),
(52,564,l),
(948,564,l),
(948,707,l)
);
},
{
closed = 1;
nodes = (
(562,603,l),
(562,74,ls),
(562,59,o),
(556,55,o),
(540,55,cs),
(523,55,o),
(465,55,o),
(419,57,c),
(464,-90,l),
(545,-90,o),
(607,-87,o),
(653,-64,cs),
(699,-41,o),
(712,-2,o),
(712,71,cs),
(712,603,l)
);
},
{
closed = 1;
nodes = (
(327,611,l),
(327,476,ls),
(327,340,o),
(306,143,o),
(111,11,c),
(223,-99,l),
(448,61,o),
(475,304,o),
(475,474,cs),
(475,611,l)
);
},
{
closed = 1;
nodes = (
(394,821,l),
(416,777,o),
(443,717,o),
(454,681,c),
(603,734,l),
(588,770,o),
(557,827,o),
(534,868,c)
);
}
);
vertWidth = 1000;
width = 1000;
}
);
note = cid09712;
unicode = 20134;
}
{
color = 4;
glyphname = uni4EA7;
layers = (
{
layerId = m01;
shapes = (
{
closed = 1;
nodes = (
(157,455,l),
(157,425,l),
(920,425,l),
(920,455,l)
);
},
{
closed = 1;
nodes = (
(118,693,l),
(118,664,l),
(890,664,l),
(890,693,l)
);
},
{
closed = 1;
nodes = (
(138,455,l),
(138,321,ls),
(138,212,o),
(126,60,o),
(46,-55,c),
(70,-73,l),
(152,45,o),
(168,207,o),
(168,320,cs),
(168,455,l)
);
},
{
closed = 1;
nodes = (
(280,629,l),
(316,583,o),
(354,520,o),
(372,479,c),
(397,491,l),
(379,530,o),
(340,593,o),
(305,638,c)
);
},
{
closed = 1;
nodes = (
(706,636,l),
(684,581,o),
(643,499,o),
(612,451,c),
(634,440,l),
(667,488,o),
(706,564,o),
(734,624,c)
);
},
{
closed = 1;
nodes = (
(448,817,l),
(480,779,o),
(514,726,o),
(528,691,c),
(556,705,l),
(540,739,o),
(506,791,o),
(473,829,c)
);
}
);
vertWidth = 1000;
width = 1000;
},
{
layerId = "5029AEDF-C899-4409-998A-C73D58F94579";
shapes = (
{
closed = 1;
nodes = (
(184,477,l),
(184,335,l),
(941,335,l),
(941,477,l)
);
},
{
closed = 1;
nodes = (
(98,761,l),
(98,623,l),
(922,623,l),
(922,761,l)
);
},
{
closed = 1;
nodes = (
(103,477,l),
(103,337,ls),
(103,236,o),
(97,94,o),
(18,-5,c),
(140,-110,l),
(236,9,o),
(256,204,o),
(256,334,cs),
(256,477,l)
);
},
{
closed = 1;
nodes = (
(236,585,l),
(266,542,o),
(299,484,o),
(311,446,c),
(447,507,l),
(432,546,o),
(395,601,o),
(364,640,c)
);
},
{
closed = 1;
nodes = (
(662,630,l),
(647,581,o),
(618,517,o),
(592,472,c),
(708,426,l),
(740,464,o),
(782,521,o),
(827,579,c)
);
},
{
closed = 1;
nodes = (
(390,826,l),
(414,789,o),
(439,737,o),
(447,703,c),
(605,746,l),
(594,779,o),
(568,827,o),
(542,861,c)
);
}
);
vertWidth = 1000;
width = 1000;
}
);
note = cid09714;
unicode = 20135;
}
{
color = 4;
glyphname = uni4EA8;
layers = (
{
layerId = m01;
shapes = (
{
closed = 1;
nodes = (
(65,725,l),
(65,696,l),
(934,696,l),
(934,725,l)
);
},
{
closed = 1;
nodes = (
(105,322,l),
(105,292,l),
(838,292,l),
(838,322,l)
);
},
{
closed = 1;
nodes = (
(830,322,l),
(830,314,l),
(755,264,o),
(613,214,o),
(491,188,c),
(498,182,o),
(508,173,o),
(513,165,c),
(635,193,o),
(780,244,o),
(871,305,c),
(851,322,l),
(838,322,l)
);
},
{
closed = 1;
nodes = (
(243,583,l),
(768,583,l),
(768,441,l),
(243,441,l)
);
},
{
closed = 1;
nodes = (
(214,613,l),
(214,412,l),
(797,412,l),
(797,613,l)
);
},
{
closed = 1;
nodes = (
(491,188,l),
(491,-27,ls),
(491,-42,o),
(487,-47,o),
(467,-48,cs),
(447,-49,o),
(380,-50,o),
(288,-48,c),
(301,-74,l),
(407,-74,o),
(463,-75,o),
(488,-69,cs),
(514,-64,o),
(521,-52,o),
(521,-27,cs),
(521,188,l)
);
},
{
closed = 1;
nodes = (
(441,825,l),
(469,788,o),
(498,738,o),
(512,706,c),
(539,719,l),
(526,750,o),
(496,799,o),
(469,835,c)
);
}
);
vertWidth = 1000;
width = 1000;
},
{
layerId = "5029AEDF-C899-4409-998A-C73D58F94579";
shapes = (
{
closed = 1;
nodes = (
(44,781,l),
(44,654,l),
(958,654,l),
(958,781,l)
);
},
{
closed = 1;
nodes = (
(88,358,l),
(88,237,l),
(764,237,l),
(764,358,l)
);
},
{
closed = 1;
nodes = (
(734,358,l),
(734,328,l),
(679,286,o),
(541,222,o),
(426,188,c),
(447,166,o),
(485,122,o),
(503,96,c),
(646,140,o),
(791,208,o),
(907,275,c),
(812,358,l),
(774,358,l)
);
},
{
closed = 1;
nodes = (
(334,529,l),
(665,529,l),
(665,489,l),
(334,489,l)
);
},
{
closed = 1;
nodes = (
(188,622,l),
(188,396,l),
(820,396,l),
(820,622,l)
);
},
{
closed = 1;
nodes = (
(426,188,l),
(426,52,ls),
(426,38,o),
(418,34,o),
(397,34,cs),
(377,33,o),
(280,34,o),
(223,37,c),
(274,-94,l),
(366,-94,o),
(442,-94,o),
(501,-77,cs),
(561,-60,o),
(581,-26,o),
(581,45,cs),
(581,188,l)
);
},
{
closed = 1;
nodes = (
(402,830,l),
(419,789,o),
(440,733,o),
(449,700,c),
(603,738,l),
(592,772,o),
(567,825,o),
(548,863,c)
);
}
);
vertWidth = 1000;
width = 1000;
}
);
note = cid09716;
unicode = 20136;
}
{
color = 4;
glyphname = uni4EA9;
layers = (
{
layerId = m01;
shapes = (
{
closed = 1;
nodes = (
(167,252,l),
(167,222,l),
(833,222,l),
(833,252,l)
);
},
{
closed = 1;
nodes = (
(166,-13,l),
(166,-43,l),
(832,-43,l),
(832,-13,l)
);
},
{
closed = 1;
nodes = (
(150,515,l),
(150,-43,l),
(180,-43,l),
(180,485,l),
(815,485,l),
(815,-43,l),
(844,-43,l),
(844,515,l)
);
},
{
closed = 1;
nodes = (
(485,504,l),
(485,-25,l),
(515,-25,l),
(515,504,l)
);
},
{
closed = 1;
nodes = (
(66,680,l),
(66,651,l),
(935,651,l),
(935,680,l)
);
},
{
closed = 1;
nodes = (
(435,827,l),
(467,785,o),
(502,727,o),
(517,691,c),
(544,704,l),
(529,739,o),
(494,796,o),
(462,837,c)
);
}
);
vertWidth = 1000;
width = 1000;
},
{
layerId = "5029AEDF-C899-4409-998A-C73D58F94579";
shapes = (
{
closed = 1;
nodes = (
(186,309,l),
(186,176,l),
(817,176,l),
(817,309,l)
);
},
{
closed = 1;
nodes = (
(207,74,l),
(207,-64,l),
(793,-64,l),
(793,74,l)
);
},
{
closed = 1;
nodes = (
(113,543,l),
(113,-64,l),
(255,-64,l),
(255,404,l),
(741,404,l),
(741,-64,l),
(891,-64,l),
(891,543,l)
);
},
{
closed = 1;
nodes = (
(425,449,l),
(425,16,l),
(569,16,l),
(569,449,l)
);
},
{
closed = 1;
nodes = (
(54,738,l),
(54,596,l),
(946,596,l),
(946,738,l)
);
},
{
closed = 1;
nodes = (
(393,812,l),
(416,765,o),
(445,702,o),
(457,664,c),
(605,718,l),
(590,756,o),
(557,816,o),
(533,859,c)
);
}
);
vertWidth = 1000;
width = 1000;
}
);
note = cid09717;
unicode = 20137;
}
{
color = 4;
glyphname = uni4EAB;
layers = (
{
layerId = m01;
shapes = (
{
closed = 1;
nodes = (
(60,164,l),
(60,134,l),
(943,134,l),
(943,164,l)
);
},
{
closed = 1;
nodes = (
(150,353,l),
(150,324,l),
(813,324,l),
(813,353,l)
);
},
{
closed = 1;
nodes = (
(484,240,l),
(484,-28,ls),
(484,-42,o),
(480,-46,o),
(463,-47,cs),
(445,-48,o),
(387,-49,o),
(308,-47,c),
(320,-73,l),
(412,-73,o),
(461,-74,o),
(484,-68,cs),
(507,-63,o),
(514,-52,o),
(514,-27,cs),
(514,240,l)
);
},
{
closed = 1;
nodes = (
(806,353,l),
(806,345,l),
(731,302,o),
(597,262,o),
(484,240,c),
(491,234,o),
(500,226,o),
(505,218,c),
(618,241,o),
(757,283,o),
(846,336,c),
(826,353,l),
(814,353,l)
);
},
{
closed = 1;
nodes = (
(231,588,l),
(773,588,l),
(773,464,l),
(231,464,l)
);
},
{
closed = 1;
nodes = (
(202,618,l),
(202,434,l),
(803,434,l),
(803,618,l)
);
},
{
closed = 1;
nodes = (
(65,730,l),
(65,701,l),
(934,701,l),
(934,730,l)
);
},
{
closed = 1;
nodes = (
(452,829,l),
(476,792,o),
(503,741,o),
(515,710,c),
(543,720,l),
(531,751,o),
(504,801,o),
(479,837,c)
);
}
);
vertWidth = 1000;
width = 1000;
},
{
layerId = "5029AEDF-C899-4409-998A-C73D58F94579";
shapes = (
{
closed = 1;
nodes = (
(45,202,l),
(45,80,l),
(955,80,l),
(955,202,l)
);
},
{
closed = 1;
nodes = (
(145,372,l),
(145,261,l),
(726,261,l),
(726,372,l)
);
},
{
closed = 1;
nodes = (
(420,236,l),
(420,41,ls),
(420,26,o),
(413,22,o),
(393,21,cs),
(376,21,o),
(291,21,o),
(240,24,c),
(289,-95,l),
(375,-95,o),
(446,-95,o),
(500,-80,cs),
(555,-63,o),
(575,-34,o),
(575,34,cs),
(575,236,l)
);
},
{
closed = 1;
nodes = (
(695,372,l),
(695,347,l),
(643,311,o),
(524,262,o),
(420,237,c),
(438,218,o),
(471,181,o),
(486,159,c),
(624,192,o),
(751,243,o),
(857,298,c),
(774,372,l),
(735,372,l)
);
},
{
closed = 1;
nodes = (
(317,535,l),
(681,535,l),
(681,498,l),
(317,498,l)
);
},
{
closed = 1;
nodes = (
(172,632,l),
(172,401,l),
(836,401,l),
(836,632,l)
);
},
{
closed = 1;
nodes = (
(62,788,l),
(62,667,l),
(936,667,l),
(936,788,l)
);
},
{
closed = 1;
nodes = (
(400,838,l),
(414,796,o),
(425,741,o),
(428,707,c),
(586,735,l),
(583,771,o),
(568,823,o),
(550,863,c)
);
}
);
vertWidth = 1000;
width = 1000;
}
);
note = cid09720;
unicode = 20139;
}
{
color = 4;
glyphname = uni4EAC;
layers = (
{
layerId = m01;
shapes = (
{
closed = 1;
nodes = (
(72,695,l),
(72,666,l),
(932,666,l),
(932,695,l)
);
},
{
closed = 1;
nodes = (
(233,523,l),
(778,523,l),
(778,310,l),
(233,310,l)
);
},
{
closed = 1;
nodes = (
(204,552,l),
(204,280,l),
(808,280,l),
(808,552,l)
);
},
{
closed = 1;
nodes = (
(704,187,l),
(776,119,o),
(862,22,o),
(903,-36,c),
(927,-17,l),
(885,39,o),
(799,133,o),
(727,202,c)
);
},
{
closed = 1;
nodes = (
(487,295,l),
(487,-22,ls),
(487,-37,o),
(483,-42,o),
(464,-43,cs),
(444,-44,o),
(382,-45,o),
(296,-43,c),
(309,-70,l),
(405,-71,o),
(459,-71,o),
(484,-65,cs),
(509,-60,o),
(517,-49,o),
(517,-21,cs),
(517,295,l)
);
},
{
closed = 1;
nodes = (
(260,203,l),
(219,130,o),
(137,44,o),
(64,-13,c),
(86,-30,l),
(162,28,o),
(241,116,o),
(289,193,c)
);
},
{
closed = 1;
nodes = (
(427,827,l),
(462,780,o),
(499,717,o),
(516,676,c),
(543,688,l),
(526,727,o),
(487,791,o),
(453,836,c)
);
}
);
vertWidth = 1000;
width = 1000;
},
{
layerId = "5029AEDF-C899-4409-998A-C73D58F94579";
shapes = (
{
closed = 1;
nodes = (
(53,748,l),
(53,605,l),
(945,605,l),
(945,748,l)
);
},
{
closed = 1;
nodes = (
(307,450,l),
(689,450,l),
(689,371,l),
(307,371,l)
);
},
{
closed = 1;
nodes = (
(162,574,l),
(162,247,l),
(844,247,l),
(844,574,l)
);
},
{
closed = 1;
nodes = (
(655,135,l),
(712,70,o),
(785,-21,o),
(816,-78,c),
(945,7,l),
(909,64,o),
(831,149,o),
(775,209,c)
);
},
{
closed = 1;
nodes = (
(428,285,l),
(428,55,ls),
(428,43,o),
(423,40,o),
(406,40,cs),
(390,40,o),
(327,40,o),
(286,42,c),
(331,-99,l),
(408,-99,o),
(470,-98,o),
(519,-78,cs),
(570,-57,o),
(583,-20,o),
(583,50,cs),
(583,285,l)
);
},
{
closed = 1;
nodes = (
(195,205,l),
(161,146,o),
(92,65,o),
(33,15,c),
(139,-78,l),
(204,-18,o),
(281,72,o),
(337,153,c)
);
},
{
closed = 1;
nodes = (
(396,820,l),
(417,776,o),
(445,716,o),
(456,680,c),
(609,733,l),
(594,769,o),
(563,825,o),
(540,866,c)
);
}
);
vertWidth = 1000;
width = 1000;
}
);
note = cid09722;
unicode = 20140;
}
{
color = 4;
glyphname = uni4EAD;
layers = (
{
layerId = m01;
shapes = (
{
closed = 1;
nodes = (
(66,733,l),
(66,704,l),
(935,704,l),
(935,733,l)
);
},
{
closed = 1;
nodes = (
(188,242,l),
(188,213,l),
(824,213,l),
(824,242,l)
);
},
{
closed = 1;
nodes = (
(90,370,l),
(90,214,l),
(120,214,l),
(120,340,l),
(887,340,l),
(887,214,l),
(917,214,l),
(917,370,l)
);
},
{
closed = 1;
nodes = (
(236,597,l),
(770,597,l),
(770,484,l),
(236,484,l)
);
},
{
closed = 1;
nodes = (
(207,626,l),
(207,455,l),
(799,455,l),
(799,626,l)
);
},
{
closed = 1;
nodes = (
(507,232,l),
(507,-17,ls),
(507,-32,o),
(503,-36,o),
(483,-38,cs),
(464,-39,o),
(401,-40,o),
(311,-37,c),
(324,-65,l),
(424,-65,o),
(478,-65,o),
(504,-60,cs),
(529,-54,o),
(536,-43,o),
(536,-16,cs),
(536,232,l)
);
},
{
closed = 1;
nodes = (
(444,817,l),
(477,785,o),
(514,741,o),
(531,712,c),
(557,728,l),
(540,757,o),
(502,800,o),
(470,830,c)
);
}
);
vertWidth = 1000;
width = 1000;
},
{
layerId = "5029AEDF-C899-4409-998A-C73D58F94579";
shapes = (
{
closed = 1;
nodes = (
(51,788,l),
(51,670,l),
(952,670,l),
(952,788,l)
);
},
{
closed = 1;
nodes = (
(209,245,l),
(209,129,l),
(786,129,l),
(786,245,l)
);
},
{
closed = 1;
nodes = (
(45,385,l),
(45,166,l),
(173,166,l),
(173,277,l),
(816,277,l),
(816,166,l),
(950,166,l),
(950,385,l)
);
},
{
closed = 1;
nodes = (
(328,549,l),
(665,549,l),
(665,509,l),
(328,509,l)
);
},
{
closed = 1;
nodes = (
(183,641,l),
(183,416,l),
(820,416,l),
(820,641,l)
);
},
{
closed = 1;
nodes = (
(430,223,l),
(430,51,ls),
(430,38,o),
(424,35,o),
(406,34,cs),
(389,34,o),
(314,34,o),
(270,37,c),
(318,-95,l),
(398,-95,o),
(465,-95,o),
(519,-77,cs),
(573,-59,o),
(590,-25,o),
(590,44,cs),
(590,223,l)
);
},
{
closed = 1;
nodes = (
(398,839,l),
(413,802,o),
(433,752,o),
(440,721,c),
(592,758,l),
(581,789,o),
(559,836,o),
(542,871,c)
);
}
);
vertWidth = 1000;
width = 1000;
}
);
note = cid09724;
unicode = 20141;
}
{
color = 4;
glyphname = uni4EAE;
layers = (
{
layerId = m01;
shapes = (
{
closed = 1;
nodes = (
(639,238,l),
(639,-1,ls),
(639,-46,o),
(655,-55,o),
(714,-55,cs),
(725,-55,o),
(840,-55,o),
(854,-55,cs),
(904,-55,o),
(915,-30,o),
(918,79,c),
(891,90,l),
(888,-14,o),
(882,-28,o),
(850,-28,cs),
(826,-28,o),
(730,-28,o),
(714,-28,cs),
(675,-28,o),
(669,-23,o),
(669,-2,cs),
(669,238,l)
);
},
{
closed = 1;
nodes = (
(328,238,l),
(320,51,o),
(273,-13,o),
(73,-48,c),
(89,-71,l),
(295,-32,o),
(348,37,o),
(357,238,c)
);
},
{
closed = 1;
nodes = (
(73,719,l),
(73,689,l),
(924,689,l),
(924,719,l)
);
},
{
closed = 1;
nodes = (
(97,359,l),
(97,220,l),
(127,220,l),
(127,329,l),
(871,329,l),
(871,220,l),
(901,220,l),
(901,359,l)
);
},
{
closed = 1;
nodes = (
(242,588,l),
(767,588,l),
(767,473,l),
(242,473,l)
);
},
{
closed = 1;
nodes = (
(213,618,l),
(213,443,l),
(796,443,l),
(796,618,l)
);
},
{
closed = 1;
nodes = (
(458,824,l),
(483,789,o),
(511,742,o),
(524,712,c),
(551,723,l),
(538,753,o),
(510,800,o),
(484,833,c)
);
},
{
closed = 1;
nodes = (
(343,238,l),
(343,209,l),
(657,209,l),
(657,238,l)
);
}
);
vertWidth = 1000;
width = 1000;
},
{
layerId = "5029AEDF-C899-4409-998A-C73D58F94579";
shapes = (
{
closed = 1;
nodes = (
(578,243,l),
(578,81,ls),
(578,-37,o),
(606,-77,o),
(731,-77,cs),
(755,-77,o),
(798,-77,o),
(823,-77,cs),
(917,-77,o),
(953,-40,o),
(967,89,c),
(836,143,l),
(832,63,o),
(828,48,o),
(807,48,cs),
(797,48,o),
(768,48,o),
(759,48,cs),
(738,48,o),
(734,51,o),
(734,82,cs),
(734,243,l)
);
},
{
closed = 1;
nodes = (
(266,243,l),
(259,124,o),
(247,63,o),
(37,31,c),
(115,-94,l),
(374,-41,o),
(407,67,o),
(418,243,c)
);
},
{
closed = 1;
nodes = (
(40,788,l),
(40,670,l),
(959,670,l),
(959,788,l)
);
},
{
closed = 1;
nodes = (
(48,383,l),
(48,173,l),
(185,173,l),
(185,275,l),
(807,275,l),
(807,175,l),
(951,175,l),
(951,383,l)
);
},
{
closed = 1;
nodes = (
(328,545,l),
(665,545,l),
(665,505,l),
(328,505,l)
);
},
{
closed = 1;
nodes = (
(183,637,l),
(183,412,l),
(820,412,l),
(820,637,l)
);
},
{
closed = 1;
nodes = (
(399,839,l),
(413,808,o),
(427,766,o),
(431,740,c),
(588,771,l),
(582,798,o),
(565,838,o),
(548,867,c)
);
},
{
closed = 1;
nodes = (
(308,243,l),
(308,125,l),
(678,125,l),
(678,243,l)
);
}
);
vertWidth = 1000;
width = 1000;
}
);
note = cid09726;
unicode = 20142;
}
{
color = 4;
glyphname = uni4EB2;
layers = (
{
layerId = m01;
shapes = (
{
closed = 1;
nodes = (
(146,698,l),
(146,669,l),
(870,669,l),
(870,698,l)
);
},
{
closed = 1;
nodes = (
(266,637,l),
(300,586,o),
(333,518,o),
(346,474,c),
(374,487,l),
(361,529,o),
(327,597,o),
(291,647,c)
);
},
{
closed = 1;
nodes = (
(699,651,l),
(671,590,o),
(619,499,o),
(577,444,c),
(605,433,l),
(646,489,o),
(693,572,o),
(729,640,c)
);
},
{
closed = 1;
nodes = (
(78,457,l),
(78,427,l),
(925,427,l),
(925,457,l)
);
},
{
closed = 1;
nodes = (
(93,293,l),
(93,264,l),
(910,264,l),
(910,293,l)
);
},
{
closed = 1;
nodes = (
(432,819,l),
(463,776,o),
(496,717,o),
(511,680,c),
(538,692,l),
(524,727,o),
(490,786,o),
(460,828,c)
);
},
{
closed = 1;
nodes = (
(297,210,l),
(253,126,o),
(180,45,o),
(104,-9,c),
(129,-29,l),
(201,28,o),
(278,113,o),
(326,202,c)
);
},
{
closed = 1;
nodes = (
(653,193,l),
(729,128,o),
(817,34,o),
(858,-25,c),
(881,-5,l),
(840,54,o),
(752,145,o),
(675,210,c)
);
},
{
closed = 1;
nodes = (
(484,437,l),
(484,-18,ls),
(484,-32,o),
(480,-36,o),
(466,-36,cs),
(450,-37,o),
(400,-38,o),
(335,-36,c),
(348,-66,l),
(422,-66,o),
(465,-66,o),
(486,-61,cs),
(507,-55,o),
(515,-44,o),
(515,-17,cs),
(515,437,l)
);
}
);
vertWidth = 1000;
width = 1000;
},
{
layerId = "5029AEDF-C899-4409-998A-C73D58F94579";
shapes = (
{
closed = 1;
nodes = (
(109,746,l),
(109,626,l),
(902,626,l),
(902,746,l)
);
},
{
closed = 1;
nodes = (
(228,604,l),
(250,558,o),
(274,496,o),
(281,458,c),
(422,493,l),
(412,533,o),
(385,592,o),
(361,635,c)
);
},
{
closed = 1;
nodes = (
(632,624,l),
(622,577,o),
(601,513,o),
(583,470,c),
(713,445,l),
(732,483,o),
(756,539,o),
(781,599,c)
);
},
{
closed = 1;
nodes = (
(60,516,l),
(60,391,l),
(938,391,l),
(938,516,l)
);
},
{
closed = 1;
nodes = (
(90,331,l),
(90,205,l),
(923,205,l),
(923,331,l)
);
},
{
closed = 1;
nodes = (
(401,827,l),
(419,781,o),
(435,721,o),
(438,683,c),
(593,720,l),
(588,759,o),
(568,817,o),
(547,860,c)
);
},
{
closed = 1;
nodes = (
(222,192,l),
(189,130,o),
(128,65,o),
(66,25,c),
(188,-61,l),
(249,-11,o),
(320,71,o),
(364,149,c)
);
},
{
closed = 1;
nodes = (
(626,133,l),
(683,74,o),
(753,-9,o),
(783,-62,c),
(915,15,l),
(880,70,o),
(805,147,o),
(749,202,c)
);
},
{
closed = 1;
nodes = (
(433,416,l),
(433,49,ls),
(433,36,o),
(428,33,o),
(413,32,cs),
(399,32,o),
(345,32,o),
(308,34,c),
(353,-96,l),
(425,-97,o),
(481,-95,o),
(525,-75,cs),
(570,-55,o),
(582,-21,o),
(582,45,cs),
(582,416,l)
);
}
);
vertWidth = 1000;
width = 1000;
}
);
note = cid09734;
unicode = 20146;
}
{
color = 4;
glyphname = uni4EB3;
layers = (
{
layerId = m01;
shapes = (
{
closed = 1;
nodes = (
(74,122,l),
(77,93,l),
(891,140,l),
(888,169,l)
);
},
{
closed = 1;
nodes = (
(745,327,l),
(622,290,o),
(374,263,o),
(173,247,c),
(182,222,l),
(386,236,o),
(632,264,o),
(773,304,c)
);
},
{
closed = 1;
nodes = (
(450,262,l),
(450,6,ls),
(450,-49,o),
(476,-58,o),
(570,-58,cs),
(589,-58,o),
(824,-58,o),
(846,-58,cs),
(919,-58,o),
(932,-36,o),
(938,61,c),
(911,72,l),
(906,-17,o),
(897,-31,o),
(845,-31,cs),
(798,-31,o),
(599,-31,o),
(566,-31,cs),
(493,-31,o),
(479,-24,o),
(479,6,cs),
(479,262,l)
);
},
{
closed = 1;
nodes = (
(96,398,l),
(96,237,l),
(126,237,l),
(126,369,l),
(878,369,l),
(878,237,l),
(908,237,l),
(908,398,l)
);
},
{
closed = 1;
nodes = (
(238,603,l),
(774,603,l),
(774,502,l),
(238,502,l)
);
},
{
closed = 1;
nodes = (
(209,632,l),
(209,473,l),
(804,473,l),
(804,632,l)
);
},
{
closed = 1;
nodes = (
(78,733,l),
(78,704,l),
(925,704,l),
(925,733,l)
);
},
{
closed = 1;
nodes = (
(427,822,l),
(462,789,o),
(501,743,o),
(520,712,c),
(547,729,l),
(528,759,o),
(488,805,o),
(453,837,c)
);
}
);
vertWidth = 1000;
width = 1000;
},
{
layerId = "5029AEDF-C899-4409-998A-C73D58F94579";
shapes = (
{
closed = 1;
nodes = (
(53,133,l),
(63,28,l),
(934,78,l),
(924,180,l)
);
},
{
closed = 1;
nodes = (
(688,305,l),
(568,280,o),
(370,263,o),
(197,256,c),
(224,166,l),
(402,171,o),
(614,187,o),
(767,218,c)
);
},
{
closed = 1;
nodes = (
(370,221,l),
(370,63,ls),
(370,-49,o),
(415,-81,o),
(576,-81,cs),
(612,-81,o),
(743,-81,o),
(780,-81,cs),
(893,-81,o),
(936,-57,o),
(951,38,c),
(826,79,l),
(820,36,o),
(809,28,o),
(765,28,cs),
(729,28,o),
(618,28,o),
(590,28,cs),
(530,28,o),
(518,32,o),
(518,64,cs),
(518,221,l)
);
},
{
closed = 1;
nodes = (
(50,397,l),
(50,204,l),
(182,204,l),
(182,294,l),
(811,294,l),
(811,211,l),
(950,211,l),
(950,397,l)
);
},
{
closed = 1;
nodes = (
(323,542,l),
(675,542,l),
(675,505,l),
(323,505,l)
);
},
{
closed = 1;
nodes = (
(178,623,l),
(178,425,l),
(830,425,l),
(830,623,l)
);
},
{
closed = 1;
nodes = (
(51,767,l),
(51,651,l),
(952,651,l),
(952,767,l)
);
},
{
closed = 1;
nodes = (
(405,826,l),
(420,789,o),
(440,739,o),
(447,708,c),
(596,754,l),
(586,784,o),
(564,832,o),
(546,866,c)
);
}
);
vertWidth = 1000;
width = 1000;
}
);
note = cid09736;
unicode = 20147;
}
{
color = 4;
glyphname = uni4EB5;
layers = (
{
guides = (
{
angle = 193.4335;
pos = (578,15);
}
);
layerId = m01;
shapes = (
{
closed = 1;
nodes = (
(77,744,l),
(77,714,l),
(928,714,l),
(928,744,l)
);
},
{
closed = 1;
nodes = (
(459,830,l),
(482,797,o),
(510,752,o),
(523,722,c),
(549,737,l),
(536,766,o),
(509,809,o),
(483,843,c)
);
},
{
closed = 1;
nodes = (
(466,591,l),
(466,562,l),
(802,562,l),
(802,591,l)
);
},
{
closed = 1;
nodes = (
(628,679,l),
(618,493,o),
(578,390,o),
(414,336,c),
(434,313,l),
(603,373,o),
(646,480,o),
(659,679,c)
);
},
{
closed = 1;
nodes = (
(478,491,l),
(568,449,o),
(670,381,o),
(720,330,c),
(739,355,l),
(688,406,o),
(586,472,o),
(497,513,c)
);
},
{
closed = 1;
nodes = (
(794,591,l),
(795,389,o),
(797,281,o),
(899,281,cs),
(939,281,o),
(949,311,o),
(953,401,c),
(926,416,l),
(924,348,o),
(919,309,o),
(900,309,cs),
(826,309,o),
(823,410,o),
(823,591,c)
);
},
{
closed = 1;
nodes = (
(93,397,l),
(183,414,o),
(309,437,o),
(430,460,c),
(428,488,l),
(298,465,o),
(168,441,o),
(84,427,c)
);
},
{
closed = 1;
nodes = (
(88,588,l),
(88,559,l),
(433,559,l),
(433,588,l)
);
},
{
closed = 1;
nodes = (
(260,676,l),
(260,324,ls),
(260,313,o),
(256,310,o),
(243,309,cs),
(231,308,o),
(189,308,o),
(136,309,c),
(148,282,l),
(213,282,o),
(248,282,o),
(266,288,cs),
(283,293,o),
(289,303,o),
(289,325,cs),
(289,676,l)
);
},
{
closed = 1;
nodes = (
(487,318,l),
(395,226,o),
(209,147,o),
(50,115,c),
(71,87,l),
(228,124,o),
(418,205,o),
(514,304,c)
);
},
{
closed = 1;
nodes = (
(466,283,l),
(538,108,o),
(706,2,o),
(925,-39,c),
(944,-13,l),
(724,23,o),
(562,126,o),
(492,292,c)
);
},
{
closed = 1;
nodes = (
(775,264,l),
(728,222,o),
(645,160,o),
(585,125,c),
(607,109,l),
(668,143,o),
(747,197,o),
(803,245,c)
);
},
{
closed = 1;
nodes = (
(262,-61,l),
(578,15,l),
(576,41,l),
(287,-22,l),
(264,-39,l)
);
},
{
closed = 1;
nodes = (
(298,-37,ls),
(313,-27,o),
(317,-3,o),
(317,15,cs),
(317,180,l),
(287,180,l),
(287,24,ls),
(287,-15,o),
(260,-31,o),
(246,-37,c),
(262,-61,l)
);
}
);
vertWidth = 1000;
width = 1000;
},
{
guides = (
{
angle = 192.3885;
pos = (547,-17);
}
);
layerId = "5029AEDF-C899-4409-998A-C73D58F94579";
shapes = (
{
closed = 1;
nodes = (
(57,797,l),
(57,690,l),
(940,690,l),
(940,797,l)
);
},
{
closed = 1;
nodes = (
(416,833,l),
(431,798,o),
(451,750,o),
(458,720,c),
(599,761,l),
(589,790,o),
(569,835,o),
(552,867,c)
);
},
{
closed = 1;
nodes = (
(443,637,l),
(443,529,l),
(804,529,l),
(804,637,l)
);
},
{
closed = 1;
nodes = (
(566,681,l),
(564,501,o),
(560,410,o),
(424,357,c),
(492,261,l),
(670,329,o),
(689,460,o),
(692,681,c)
);
},
{
closed = 1;
nodes = (
(423,439,l),
(511,400,o),
(626,336,o),
(680,290,c),
(744,385,l),
(686,429,o),
(569,488,o),
(483,523,c)
);
},
{
closed = 1;
nodes = (
(738,637,l),
(737,348,o),
(745,268,o),
(867,268,cs),
(934,268,o),
(958,299,o),
(968,378,c),
(893,453,l),
(890,409,o),
(888,383,o),
(877,383,cs),
(860,383,o),
(867,428,o),
(868,637,c)
);
},
{
closed = 1;
nodes = (
(76,367,l),
(175,378,o),
(306,391,o),
(429,405,c),
(426,508,l),
(292,495,o),
(153,483,o),
(58,476,c)
);
},
{
closed = 1;
nodes = (
(66,640,l),
(66,529,l),
(422,529,l),
(422,640,l)
);
},
{
closed = 1;
nodes = (
(200,679,l),
(200,366,ls),
(200,355,o),
(196,352,o),
(183,352,cs),
(171,351,o),
(126,351,o),
(92,353,c),
(127,246,l),
(192,246,o),
(241,247,o),
(279,263,cs),
(317,280,o),
(327,308,o),
(327,363,cs),
(327,679,l)
);
},
{
closed = 1;
nodes = (
(477,343,l),
(387,260,o),
(206,204,o),
(13,181,c),
(94,69,l),
(297,101,o),
(479,176,o),
(594,292,c)
);
},
{
closed = 1;
nodes = (
(431,270,l),
(513,76,o),
(648,-27,o),
(894,-67,c),
(969,45,l),
(743,70,o),
(605,150,o),
(542,294,c)
);
},
{
closed = 1;
nodes = (
(748,271,l),
(702,226,o),
(625,168,o),
(567,135,c),
(663,68,l),
(721,100,o),
(797,149,o),
(861,200,c)
);
},
{
closed = 1;
nodes = (
(218,-89,l),
(547,-17,l),
(557,98,l),
(261,37,l),
(214,-1,l)
);
},
{
closed = 1;
nodes = (
(330,-27,ls),
(370,-5,o),
(385,32,o),
(385,78,cs),
(385,213,l),
(248,212,l),
(248,102,ls),
(248,49,o),
(205,24,o),
(179,13,c),
(218,-89,l)
);
}
);
vertWidth = 1000;
width = 1000;
}
);
note = cid09740;
unicode = 20149;
}
{
color = 4;
glyphname = uni4EBA;
layers = (
{
layerId = m01;
shapes = (
{
closed = 1;
nodes = (
(493,825,l),
(491,688,o),
(484,159,o),
(57,-44,c),
(79,-65,l),
(511,144,o),
(520,677,o),
(523,825,c)
);
},
{
closed = 1;
nodes = (
(488,698,l),
(501,624,o),
(550,112,o),
(931,-63,c),
(953,-39,l),
(575,130,o),
(525,638,o),
(515,700,c)
);
}
);
vertWidth = 1000;
width = 1000;
},
{
layerId = "5029AEDF-C899-4409-998A-C73D58F94579";
shapes = (
{
closed = 1;
nodes = (
(401,855,l),
(396,675,o),
(422,248,o),
(20,25,c),
(142,-94,l),
(556,162,o),
(562,632,o),
(569,855,c)
);
},
{
closed = 1;
nodes = (
(416,718,l),
(431,611,o),
(460,114,o),
(878,-87,c),
(985,39,l),
(591,214,o),
(564,648,o),
(557,734,c)
);
}
);
vertWidth = 1000;
width = 1000;
}
);
note = cid09749;
unicode = 20154;
}
{
color = 4;
glyphname = uni4EBB;
layers = (
{
layerId = m01;
shapes = (
{
closed = 1;
nodes = (
(422,832,l),
(329,642,o),
(190,458,o),
(42,337,c),
(67,317,l),
(212,442,o),
(351,625,o),
(449,823,c)
);
},
{
closed = 1;
nodes = (
(281,579,l),
(281,-69,l),
(311,-69,l),
(311,606,l),
(310,608,l)
);
}
);
vertWidth = 1000;
width = 1000;
},
{
layerId = "5029AEDF-C899-4409-998A-C73D58F94579";
shapes = (
{
closed = 1;
nodes = (
(384,859,l),
(300,673,o),
(158,490,o),
(13,381,c),
(105,242,l),
(263,377,o),
(425,597,o),
(525,810,c)
);
},
{
closed = 1;
nodes = (
(261,535,l),
(261,-91,l),
(404,-91,l),
(404,677,l),
(404,678,l)
);
}
);
vertWidth = 1000;
width = 1000;
}
);
note = cid09750;
unicode = 20155;
}
{
color = 4;
glyphname = uni4EBF;
layers = (
{
layerId = m01;
shapes = (
{
closed = 1;
nodes = (
(393,707,l),
(393,677,l),
(870,677,l),
(870,707,l)
);
},
{
closed = 1;
nodes = (
(868,707,l),
(401,195,o),
(380,124,o),
(380,72,cs),
(380,19,o),
(424,-10,o),
(513,-10,cs),
(818,-10,ls),
(894,-10,o),
(909,23,o),
(917,226,c),
(887,236,l),
(881,57,o),
(873,19,o),
(817,19,cs),
(507,20,ls),
(452,20,o),
(410,35,o),
(410,73,cs),
(410,184,o),
(844,614,o),
(901,699,c),
(884,707,l)
);
},
{
closed = 1;
nodes = (
(313,829,l),
(251,668,o),
(151,510,o),
(44,407,c),
(66,383,l),
(174,493,o),
(275,652,o),
(341,821,c)
);
},
{
closed = 1;
nodes = (
(214,614,l),
(214,-67,l),
(243,-67,l),
(243,640,l),
(241,641,l)
);
}
);
vertWidth = 1000;
width = 1000;
},
{
layerId = "5029AEDF-C899-4409-998A-C73D58F94579";
shapes = (
{
closed = 1;
nodes = (
(385,781,l),
(385,644,l),
(827,644,l),
(827,781,l)
);
},
{
closed = 1;
nodes = (
(794,781,l),
(374,271,o),
(352,186,o),
(352,101,cs),
(352,-3,o),
(423,-74,o),
(590,-74,cs),
(760,-74,ls),
(899,-74,o),
(954,-27,o),
(970,196,c),
(842,243,l),
(837,89,o),
(820,66,o),
(772,66,cs),
(587,66,ls),
(528,66,o),
(498,81,o),
(498,119,cs),
(498,246,o),
(882,626,o),
(945,737,c),
(877,781,l)
);
},
{
closed = 1;
nodes = (
(228,851,l),
(180,713,o),
(97,575,o),
(11,488,c),
(87,335,l),
(196,451,o),
(301,637,o),
(365,808,c)
);
},
{
closed = 1;
nodes = (
(134,564,l),
(134,-94,l),
(275,-94,l),
(275,704,l),
(275,705,l)
);
}
);
vertWidth = 1000;
width = 1000;
}
);
note = cid09755;
unicode = 20159;
}
{
color = 4;
glyphname = uni4EC1;
layers = (
{
layerId = m01;
shapes = (
{
closed = 1;
nodes = (
(376,652,l),
(376,622,l),
(888,622,l),
(888,652,l)
);
},
{
closed = 1;
nodes = (
(315,44,l),
(315,15,l),
(937,15,l),
(937,44,l)
);
},
{
closed = 1;
nodes = (
(205,580,l),
(205,-68,l),
(234,-68,l),
(234,609,l),
(234,610,l)
);
},
{
closed = 1;
nodes = (
(323,830,l),
(261,665,o),
(161,505,o),
(53,400,c),
(76,376,l),
(184,488,o),
(284,650,o),
(351,822,c)
);
}
);
vertWidth = 1000;
width = 1000;
},
{
layerId = "5029AEDF-C899-4409-998A-C73D58F94579";
shapes = (
{
closed = 1;
nodes = (
(409,700,l),
(409,545,l),
(941,545,l),
(941,700,l)
);
},
{
closed = 1;
nodes = (
(356,114,l),
(356,-42,l),
(978,-42,l),
(978,114,l)
);
},
{
closed = 1;
nodes = (
(156,549,l),
(156,-93,l),
(302,-93,l),
(302,691,l),
(300,693,l)
);
},
{
closed = 1;
nodes = (
(250,850,l),
(196,706,o),
(103,564,o),
(6,475,c),
(90,319,l),
(209,436,o),
(325,627,o),
(395,803,c)
);
}
);
vertWidth = 1000;
width = 1000;
}
);
note = cid09757;
unicode = 20161;
}
{
color = 4;
glyphname = uni4EC2;
layers = (
{
layerId = m01;
shapes = (
{
closed = 1;
nodes = (
(334,580,l),
(334,551,l),
(895,551,l),
(895,580,l)
);
},
{
closed = 1;
nodes = (
(884,580,l),
(874,307,o),
(863,24,o),
(820,-21,c),
(811,-33,o),
(800,-35,o),
(781,-34,cs),
(761,-34,o),
(704,-34,o),
(642,-29,c),
(652,-59,l),
(704,-63,o),
(758,-64,o),
(785,-64,cs),
(815,-63,o),
(831,-57,o),
(847,-38,cs),
(896,19,o),
(905,337,o),
(914,580,c)
);
},
{
closed = 1;
nodes = (
(580,828,l),
(579,478,o),
(578,112,o),
(309,-53,c),
(334,-71,l),
(607,102,o),
(609,468,o),
(610,828,c)
);
},
{
closed = 1;
nodes = (
(295,827,l),
(238,667,o),
(146,509,o),
(47,405,c),
(69,381,l),
(170,492,o),
(262,651,o),
(324,819,c)
);
},
{
closed = 1;
nodes = (
(189,588,l),
(189,-68,l),
(219,-68,l),
(219,615,l),
(217,616,l)
);
}
);
vertWidth = 1000;
width = 1000;
},
{
layerId = "5029AEDF-C899-4409-998A-C73D58F94579";
shapes = (
{
closed = 1;
nodes = (
(344,632,l),
(344,490,l),
(862,490,l),
(862,632,l)
);
},
{
closed = 1;
nodes = (
(795,632,l),
(789,383,o),
(784,112,o),
(749,71,cs),
(738,57,o),
(728,53,o),
(711,53,cs),
(687,53,o),
(645,53,o),
(598,58,c),
(643,-86,l),
(697,-88,o),
(750,-88,o),
(785,-81,cs),
(825,-73,o),
(853,-60,o),
(882,-20,cs),
(927,42,o),
(934,294,o),
(944,632,c)
);
},
{
closed = 1;
nodes = (
(508,850,l),
(506,474,o),
(522,188,o),
(283,16,c),
(389,-97,l),
(653,103,o),
(655,441,o),
(657,850,c)
);
},
{
closed = 1;
nodes = (
(235,851,l),
(187,713,o),
(104,575,o),
(18,488,c),
(94,335,l),
(203,451,o),
(308,637,o),
(372,808,c)
);
},
{
closed = 1;
nodes = (
(137,564,l),
(137,-94,l),
(283,-94,l),
(283,709,l),
(283,710,l)
);
}
);
vertWidth = 1000;
width = 1000;
}
);
note = cid09758;
unicode = 20162;
}
{
color = 4;
glyphname = uni4EC3;
layers = (
{
layerId = m01;
shapes = (
{
closed = 1;
nodes = (
(291,827,l),
(233,666,o),
(140,509,o),
(39,405,c),
(61,381,l),
(163,492,o),
(257,651,o),
(320,819,c)
);
},
{
closed = 1;
nodes = (
(185,585,l),
(185,-71,l),
(215,-71,l),
(215,612,l),
(213,613,l)
);
},
{
closed = 1;
nodes = (
(347,738,l),
(347,709,l),
(943,709,l),
(943,738,l)
);
},
{
closed = 1;
nodes = (
(695,726,l),
(695,-9,ls),
(695,-28,o),
(688,-34,o),
(669,-35,cs),
(647,-37,o),
(576,-37,o),
(491,-35,c),
(505,-67,l),
(601,-67,o),
(660,-67,o),
(687,-62,cs),
(715,-56,o),
(724,-42,o),
(724,-8,cs),
(724,726,l)
);
}
);
vertWidth = 1000;
width = 1000;
},
{
layerId = "5029AEDF-C899-4409-998A-C73D58F94579";
shapes = (
{
closed = 1;
nodes = (
(228,851,l),
(181,707,o),
(99,563,o),
(13,472,c),
(88,315,l),
(197,436,o),
(302,632,o),
(365,809,c)
);
},
{
closed = 1;
nodes = (
(138,564,l),
(138,-94,l),
(280,-94,l),
(280,705,l),
(280,706,l)
);
},
{
closed = 1;
nodes = (
(363,784,l),
(363,641,l),
(976,641,l),
(976,784,l)
);
},
{
closed = 1;
nodes = (
(642,729,l),
(642,84,ls),
(642,66,o),
(634,60,o),
(614,60,cs),
(593,60,o),
(518,59,o),
(461,63,c),
(518,-92,l),
(611,-92,o),
(679,-89,o),
(730,-64,cs),
(780,-39,o),
(796,3,o),
(796,81,cs),
(796,729,l)
);
}
);
vertWidth = 1000;
width = 1000;
}
);
note = cid09759;
unicode = 20163;
}
{
color = 4;
glyphname = uni4EC4;
layers = (
{
layerId = m01;
shapes = (
{
closed = 1;
nodes = (
(162,759,l),
(162,729,l),
(930,729,l),
(930,759,l)
);
},
{
closed = 1;
nodes = (
(148,759,l),
(148,465,ls),
(148,312,o),
(138,104,o),
(45,-47,c),
(69,-65,l),
(165,90,o),
(178,308,o),
(178,465,cs),
(178,759,l)
);
},
{
closed = 1;
nodes = (
(550,473,l),
(623,243,o),
(762,38,o),
(927,-61,c),
(950,-36,l),
(785,54,o),
(647,257,o),
(577,480,c)
);
},
{
closed = 1;
nodes = (
(564,682,l),
(553,443,o),
(527,97,o),
(214,-46,c),
(236,-66,l),
(554,83,o),
(581,430,o),
(594,682,c)
);
}
);
vertWidth = 1000;
width = 1000;
},
{
layerId = "5029AEDF-C899-4409-998A-C73D58F94579";
shapes = (
{
closed = 1;
nodes = (
(187,812,l),
(187,672,l),
(953,672,l),
(953,812,l)
);
},
{
closed = 1;
nodes = (
(102,812,l),
(102,501,ls),
(102,346,o),
(96,124,o),
(14,-23,c),
(144,-96,l),
(233,66,o),
(248,328,o),
(248,501,cs),
(248,812,l)
);
},
{
closed = 1;
nodes = (
(518,425,l),
(580,183,o),
(682,4,o),
(882,-88,c),
(976,33,l),
(794,103,o),
(692,259,o),
(643,451,c)
);
},
{
closed = 1;
nodes = (
(522,650,l),
(512,430,o),
(510,171,o),
(224,27,c),
(324,-88,l),
(636,84,o),
(662,386,o),
(676,650,c)
);
}
);
vertWidth = 1000;
width = 1000;
}
);
note = cid09761;
unicode = 20164;
}
{
color = 4;
glyphname = uni4EC5;
layers = (
{
layerId = m01;
shapes = (
{
closed = 1;
nodes = (
(353,716,l),
(353,686,l),
(874,686,l),
(874,716,l)
);
},
{
closed = 1;
nodes = (
(410,692,l),
(490,328,o),
(650,48,o),
(934,-69,c),
(956,-46,l),
(672,63,o),
(513,343,o),
(435,698,c)
);
},
{
closed = 1;
nodes = (
(861,716,l),
(861,708,l),
(781,303,o),
(539,51,o),
(291,-45,c),
(310,-70,l),
(580,41,o),
(810,303,o),
(891,716,c)
);
},
{
closed = 1;
nodes = (
(205,580,l),
(205,-68,l),
(234,-68,l),
(234,609,l),
(234,610,l)
);
},
{
closed = 1;
nodes = (
(323,823,l),
(257,657,o),
(151,497,o),
(37,393,c),
(59,370,l),
(174,480,o),
(280,642,o),
(351,816,c)
);
}
);
vertWidth = 1000;
width = 1000;
},
{
layerId = "5029AEDF-C899-4409-998A-C73D58F94579";
shapes = (
{
closed = 1;
nodes = (
(380,753,l),
(380,618,l),
(853,618,l),
(853,753,l)
);
},
{
closed = 1;
nodes = (
(396,624,l),
(468,263,o),
(607,30,o),
(901,-85,c),
(994,36,l),
(724,128,o),
(583,344,o),
(531,653,c)
);
},
{
closed = 1;
nodes = (
(802,753,l),
(802,724,l),
(755,355,o),
(582,122,o),
(309,26,c),
(395,-93,l),
(684,29,o),
(878,196,o),
(948,753,c)
);
},
{
closed = 1;
nodes = (
(156,549,l),
(156,-93,l),
(300,-93,l),
(300,689,l),
(298,691,l)
);
},
{
closed = 1;
nodes = (
(250,850,l),
(196,706,o),
(103,564,o),
(6,475,c),
(90,319,l),
(209,436,o),
(325,627,o),
(395,803,c)
);
}
);
vertWidth = 1000;
width = 1000;
}
);
note = cid09762;
unicode = 20165;
}
{
color = 4;
glyphname = uni4EC6;
layers = (
{
layerId = m01;
shapes = (
{
closed = 1;
nodes = (
(571,817,l),
(571,-69,l),
(600,-69,l),
(600,817,l)
);
},
{
closed = 1;
nodes = (
(639,529,l),
(733,452,o),
(850,344,o),
(909,280,c),
(930,302,l),
(871,365,o),
(755,471,o),
(661,547,c)
);
},
{
closed = 1;
nodes = (
(315,827,l),
(251,651,o),
(150,480,o),
(39,369,c),
(61,345,l),
(173,465,o),
(275,636,o),
(343,819,c)
);
},
{
closed = 1;
nodes = (
(207,585,l),
(207,-71,l),
(236,-71,l),
(236,612,l),
(234,613,l)
);
}
);
vertWidth = 1000;
width = 1000;
},
{
layerId = "5029AEDF-C899-4409-998A-C73D58F94579";
shapes = (
{
closed = 1;
nodes = (
(495,844,l),
(495,-92,l),
(654,-92,l),
(654,844,l)
);
},
{
closed = 1;
nodes = (
(609,489,l),
(692,404,o),
(821,287,o),
(878,215,c),
(988,340,l),
(926,409,o),
(790,520,o),
(710,596,c)
);
},
{
closed = 1;
nodes = (
(250,851,l),
(198,713,o),
(108,575,o),
(15,489,c),
(95,326,l),
(212,442,o),
(326,631,o),
(394,803,c)
);
},
{
closed = 1;
nodes = (
(152,565,l),
(152,-93,l),
(302,-93,l),
(302,714,l),
(302,715,l)
);
}
);
vertWidth = 1000;
width = 1000;
}
);
note = cid09764;
unicode = 20166;
}
{
color = 4;
glyphname = uni4EC7;
layers = (
{
layerId = m01;
shapes = (
{
closed = 1;
nodes = (
(308,584,l),
(308,555,l),
(776,555,l),
(776,584,l)
);
},
{
closed = 1;
nodes = (
(517,831,l),
(516,476,o),
(515,112,o),
(258,-55,c),
(282,-71,l),
(542,101,o),
(545,468,o),
(546,831,c)
);
},
{
closed = 1;
nodes = (
(763,584,l),
(763,44,ls),
(763,-26,o),
(767,-38,o),
(780,-48,cs),
(793,-56,o),
(811,-59,o),
(826,-59,cs),
(834,-59,o),
(865,-59,o),
(874,-59,cs),
(893,-59,o),
(909,-56,o),
(920,-50,cs),
(931,-43,o),
(939,-32,o),
(943,-12,cs),
(947,6,o),
(950,66,o),
(950,115,c),
(922,129,l),
(922,71,o),
(920,27,o),
(917,7,cs),
(916,-11,o),
(910,-20,o),
(903,-24,cs),
(897,-28,o),
(884,-30,o),
(871,-30,cs),
(858,-30,o),
(837,-30,o),
(827,-30,cs),
(817,-30,o),
(809,-29,o),
(802,-26,cs),
(794,-21,o),
(792,-2,o),
(792,31,cs),
(792,584,l)
);
},
{
closed = 1;
nodes = (
(292,829,l),
(236,669,o),
(146,511,o),
(48,407,c),
(71,383,l),
(169,494,o),
(260,654,o),
(321,821,c)
);
},
{
closed = 1;
nodes = (
(187,585,l),
(187,-71,l),
(217,-71,l),
(217,612,l),
(215,613,l)
);
}
);
vertWidth = 1000;
width = 1000;
},
{
layerId = "5029AEDF-C899-4409-998A-C73D58F94579";
shapes = (
{
closed = 1;
nodes = (
(316,640,l),
(316,499,l),
(740,499,l),
(740,640,l)
);
},
{
closed = 1;
nodes = (
(445,850,l),
(444,459,o),
(458,184,o),
(268,12,c),
(374,-101,l),
(589,98,o),
(591,426,o),
(592,850,c)
);
},
{
closed = 1;
nodes = (
(669,640,l),
(669,86,ls),
(669,2,o),
(680,-25,o),
(702,-48,cs),
(722,-69,o),
(757,-79,o),
(787,-79,cs),
(806,-79,o),
(834,-79,o),
(856,-79,cs),
(879,-79,o),
(908,-74,o),
(927,-61,cs),
(948,-48,o),
(962,-29,o),
(970,1,cs),
(978,30,o),
(984,94,o),
(986,148,c),
(872,210,l),
(872,155,o),
(870,110,o),
(869,90,cs),
(867,70,o),
(865,62,o),
(861,58,cs),
(858,55,o),
(853,54,o),
(849,54,cs),
(844,54,o),
(836,54,o),
(831,54,cs),
(826,54,o),
(822,56,o),
(820,60,cs),
(817,64,o),
(817,74,o),
(817,94,cs),
(817,640,l)
);
},
{
closed = 1;
nodes = (
(228,851,l),
(180,713,o),
(97,575,o),
(11,488,c),
(87,335,l),
(196,451,o),
(301,637,o),
(365,808,c)
);
},
{
closed = 1;
nodes = (
(130,564,l),
(130,-94,l),
(274,-94,l),
(274,707,l),
(274,708,l)
);
}
);
vertWidth = 1000;
width = 1000;
}
);
note = cid09765;
unicode = 20167;
}
{
color = 4;
glyphname = uni4EC9;
layers = (
{
layerId = m01;
shapes = (
{
closed = 1;
nodes = (
(473,774,l),
(473,745,l),
(773,745,l),
(773,774,l)
);
},
{
closed = 1;
nodes = (
(456,774,l),
(456,456,ls),
(456,297,o),
(441,94,o),
(302,-52,c),
(325,-72,l),
(467,79,o),
(485,292,o),
(485,456,cs),
(485,774,l)
);
},
{
closed = 1;
nodes = (
(756,774,l),
(756,58,ls),
(756,-27,o),
(760,-40,o),
(775,-49,cs),
(790,-58,o),
(808,-61,o),
(822,-61,cs),
(833,-61,o),
(862,-61,o),
(872,-61,cs),
(894,-61,o),
(909,-59,o),
(921,-51,cs),
(934,-43,o),
(942,-29,o),
(946,-2,cs),
(950,20,o),
(952,97,o),
(953,156,c),
(922,173,l),
(922,98,o),
(920,41,o),
(918,17,cs),
(916,-8,o),
(911,-17,o),
(904,-23,cs),
(896,-29,o),
(883,-32,o),
(870,-32,cs),
(856,-32,o),
(834,-32,o),
(823,-32,cs),
(813,-32,o),
(805,-30,o),
(796,-26,cs),
(788,-21,o),
(785,2,o),
(785,42,cs),
(785,774,l)
);
},
{
closed = 1;
nodes = (
(297,827,l),
(235,666,o),
(135,508,o),
(29,405,c),
(50,381,l),
(158,491,o),
(259,650,o),
(326,819,c)
);
},
{
closed = 1;
nodes = (
(185,588,l),
(185,-68,l),
(215,-68,l),
(215,615,l),
(213,616,l)
);
}
);
vertWidth = 1000;
width = 1000;
},
{
layerId = "5029AEDF-C899-4409-998A-C73D58F94579";
shapes = (
{
closed = 1;
nodes = (
(489,797,l),
(489,660,l),
(737,660,l),
(737,797,l)
);
},
{
closed = 1;
nodes = (
(387,797,l),
(387,428,ls),
(387,290,o),
(379,120,o),
(268,8,c),
(380,-95,l),
(511,34,o),
(533,265,o),
(533,427,cs),
(533,797,l)
);
},
{
closed = 1;
nodes = (
(668,797,l),
(668,96,ls),
(668,9,o),
(679,-20,o),
(701,-43,cs),
(720,-63,o),
(754,-74,o),
(783,-74,cs),
(801,-74,o),
(829,-74,o),
(849,-74,cs),
(873,-74,o),
(902,-68,o),
(920,-53,cs),
(940,-38,o),
(952,-17,o),
(959,15,cs),
(966,47,o),
(972,121,o),
(973,177,c),
(870,234,l),
(869,173,o),
(868,125,o),
(866,103,cs),
(865,81,o),
(863,71,o),
(859,66,cs),
(856,62,o),
(851,61,o),
(847,61,cs),
(842,61,o),
(833,61,o),
(829,61,cs),
(824,61,o),
(820,63,o),
(818,67,cs),
(815,71,o),
(815,83,o),
(815,106,cs),
(815,797,l)
);
},
{
closed = 1;
nodes = (
(232,851,l),
(184,713,o),
(101,575,o),
(15,488,c),
(91,335,l),
(200,451,o),
(305,637,o),
(369,808,c)
);
},
{
closed = 1;
nodes = (
(134,564,l),
(134,-94,l),
(272,-94,l),
(272,701,l),
(272,702,l)
);
}
);
vertWidth = 1000;
width = 1000;
}
);
note = cid09769;
unicode = 20169;
}
{
color = 4;
glyphname = uni4ECA;
layers = (
{
layerId = m01;
shapes = (
{
closed = 1;
nodes = (
(168,331,l),
(168,302,l),
(804,302,l),
(804,331,l)
);
},
{
closed = 1;
nodes = (
(399,559,l),
(467,509,o),
(549,437,o),
(589,392,c),
(614,412,l),
(573,457,o),
(490,526,o),
(423,575,c)
);
},
{
closed = 1;
nodes = (
(487,791,l),
(592,651,o),
(785,500,o),
(932,429,c),
(955,454,l),
(806,520,o),
(614,668,o),
(513,804,c)
);
},
{
closed = 1;
nodes = (
(509,833,l),
(408,686,o),
(230,535,o),
(45,449,c),
(67,428,l),
(250,517,o),
(431,669,o),
(534,821,c)
);
},
{
closed = 1;
nodes = (
(798,331,l),
(798,326,l),
(482,-58,l),
(510,-71,l),
(832,322,l),
(819,331,l)
);
}
);
vertWidth = 1000;
width = 1000;
},
{
layerId = "5029AEDF-C899-4409-998A-C73D58F94579";
shapes = (
{
closed = 1;
nodes = (
(151,374,l),
(151,225,l),
(750,225,l),
(750,374,l)
);
},
{
closed = 1;
nodes = (
(376,493,l),
(439,444,o),
(528,372,o),
(567,327,c),
(668,432,l),
(624,476,o),
(531,542,o),
(470,585,c)
);
},
{
closed = 1;
nodes = (
(435,745,l),
(547,610,o),
(717,473,o),
(866,392,c),
(981,527,l),
(829,591,o),
(652,705,o),
(560,808,c)
);
},
{
closed = 1;
nodes = (
(472,869,l),
(373,710,o),
(193,588,o),
(19,515,c),
(132,378,l),
(316,475,o),
(494,614,o),
(618,800,c)
);
},
{
closed = 1;
nodes = (
(735,374,l),
(735,359,l),
(428,-32,l),
(581,-102,l),
(901,327,l),
(801,374,l)
);
}
);
vertWidth = 1000;
width = 1000;
}
);
note = cid09771;
unicode = 20170;
}
{
color = 4;
glyphname = uni4ECB;
layers = (
{
layerId = m01;
shapes = (
{
closed = 1;
nodes = (
(672,455,l),
(672,-74,l),
(702,-74,l),
(702,455,l)
);
},
{
closed = 1;
nodes = (
(299,454,l),
(299,310,ls),
(299,186,o),
(280,50,o),
(81,-51,c),
(101,-72,l),
(306,33,o),
(329,176,o),
(329,310,cs),
(329,454,l)
);
},
{
closed = 1;
nodes = (
(503,831,l),
(414,665,o),
(228,501,o),
(43,433,c),
(61,407,l),
(247,481,o),
(432,646,o),
(526,817,c)
);
},
{
closed = 1;
nodes = (
(490,785,l),
(588,635,o),
(778,481,o),
(945,417,c),
(966,442,l),
(799,501,o),
(607,653,o),
(512,796,c)
);
}
);
vertWidth = 1000;
width = 1000;
},
{
layerId = "5029AEDF-C899-4409-998A-C73D58F94579";
shapes = (
{
closed = 1;
nodes = (
(621,433,l),
(621,-94,l),
(776,-94,l),
(776,433,l)
);
},
{
closed = 1;
nodes = (
(243,431,l),
(243,329,ls),
(243,230,o),
(224,105,o),
(54,13,c),
(178,-96,l),
(375,18,o),
(397,192,o),
(397,325,cs),
(397,431,l)
);
},
{
closed = 1;
nodes = (
(492,872,l),
(398,731,o),
(203,600,o),
(8,545,c),
(97,404,l),
(295,481,o),
(500,629,o),
(610,788,c)
);
},
{
closed = 1;
nodes = (
(437,734,l),
(541,584,o),
(697,475,o),
(891,420,c),
(995,559,l),
(810,597,o),
(650,680,o),
(569,786,c)
);
}
);
vertWidth = 1000;
width = 1000;
}
);
note = cid09774;
unicode = 20171;
}
{
color = 4;
glyphname = uni4ECD;
layers = (
{
layerId = m01;
shapes = (
{
closed = 1;
nodes = (
(316,755,l),
(316,725,l),
(762,725,l),
(762,755,l)
);
},
{
closed = 1;
nodes = (
(705,457,l),
(701,427,l),
(882,427,l),
(882,457,l)
);
},
{
closed = 1;
nodes = (
(874,457,l),
(863,234,o),
(850,15,o),
(807,-25,cs),
(797,-35,o),
(784,-37,o),
(764,-37,cs),
(741,-37,o),
(673,-36,o),
(602,-29,c),
(612,-59,l),
(677,-64,o),
(738,-65,o),
(769,-65,cs),
(800,-64,o),
(817,-59,o),
(832,-42,cs),
(879,5,o),
(890,223,o),
(904,457,c)
);
},
{
closed = 1;
nodes = (
(460,744,l),
(456,486,o),
(441,112,o),
(237,-57,c),
(262,-72,l),
(469,103,o),
(484,475,o),
(489,744,c)
);
},
{
closed = 1;
nodes = (
(250,822,l),
(201,668,o),
(123,514,o),
(35,413,c),
(58,389,l),
(146,497,o),
(226,653,o),
(279,816,c)
);
},
{
closed = 1;
nodes = (
(168,606,l),
(168,-71,l),
(197,-71,l),
(197,632,l),
(196,634,l)
);
},
{
closed = 1;
nodes = (
(748,755,l),
(683,427,l),
(715,427,l),
(779,755,l)
);
}
);
vertWidth = 1000;
width = 1000;
},
{
layerId = "5029AEDF-C899-4409-998A-C73D58F94579";
shapes = (
{
closed = 1;
nodes = (
(334,789,l),
(334,658,l),
(749,658,l),
(749,789,l)
);
},
{
closed = 1;
nodes = (
(720,518,l),
(702,387,l),
(851,387,l),
(851,518,l)
);
},
{
closed = 1;
nodes = (
(807,518,l),
(801,341,o),
(795,101,o),
(762,63,cs),
(750,51,o),
(740,48,o),
(723,48,cs),
(700,48,o),
(657,48,o),
(610,52,c),
(655,-89,l),
(708,-90,o),
(759,-90,o),
(792,-84,cs),
(831,-77,o),
(858,-66,o),
(885,-30,cs),
(929,26,o),
(937,295,o),
(949,518,c)
);
},
{
closed = 1;
nodes = (
(413,737,l),
(410,465,o),
(416,186,o),
(263,6,c),
(374,-100,l),
(547,112,o),
(559,429,o),
(564,737,c)
);
},
{
closed = 1;
nodes = (
(197,855,l),
(156,713,o),
(85,571,o),
(8,480,c),
(76,320,l),
(180,442,o),
(274,639,o),
(331,815,c)
);
},
{
closed = 1;
nodes = (
(118,564,l),
(118,-94,l),
(256,-94,l),
(256,696,l),
(252,698,l)
);
},
{
closed = 1;
nodes = (
(695,789,l),
(609,387,l),
(742,387,l),
(834,789,l)
);
}
);
vertWidth = 1000;
width = 1000;
}
);
note = cid09777;
unicode = 20173;
}
{
color = 4;
glyphname = uni4ECE;
layers = (
{
layerId = m01;
shapes = (
{
closed = 1;
nodes = (
(267,486,l),
(343,386,o),
(431,249,o),
(473,162,c),
(496,181,l),
(457,268,o),
(367,404,o),
(288,505,c)
);
},
{
closed = 1;
nodes = (
(636,456,l),
(671,289,o),
(753,59,o),
(922,-64,c),
(943,-40,l),
(772,75,o),
(691,306,o),
(658,480,c)
);
},
{
closed = 1;
nodes = (
(289,800,l),
(269,425,o),
(228,131,o),
(58,-53,c),
(84,-72,l),
(253,125,o),
(295,408,o),
(320,798,c)
);
},
{
closed = 1;
nodes = (
(670,802,l),
(641,410,o),
(583,127,o),
(370,-47,c),
(396,-66,l),
(609,119,o),
(668,393,o),
(700,800,c)
);
}
);
vertWidth = 1000;
width = 1000;
},
{
layerId = "5029AEDF-C899-4409-998A-C73D58F94579";
shapes = (
{
closed = 1;
nodes = (
(250,415,l),
(318,340,o),
(393,234,o),
(425,165,c),
(534,272,l),
(498,340,o),
(422,437,o),
(350,509,c)
);
},
{
closed = 1;
nodes = (
(618,488,l),
(654,304,o),
(726,58,o),
(874,-73,c),
(984,63,l),
(843,163,o),
(771,383,o),
(739,548,c)
);
},
{
closed = 1;
nodes = (
(218,845,l),
(210,482,o),
(171,176,o),
(14,15,c),
(159,-87,l),
(318,108,o),
(366,441,o),
(379,840,c)
);
},
{
closed = 1;
nodes = (
(608,845,l),
(598,472,o),
(551,171,o),
(372,15,c),
(517,-88,l),
(697,101,o),
(753,430,o),
(770,839,c)
);
}
);
vertWidth = 1000;
width = 1000;
}
);
note = cid09779;
unicode = 20174;
}
{
color = 4;
glyphname = uni4ED3;
layers = (
{
layerId = m01;
shapes = (
{
closed = 1;
nodes = (
(265,473,l),
(265,443,l),
(733,443,l),
(733,473,l)
);
},
{
closed = 1;
nodes = (
(249,473,l),
(249,47,ls),
(249,-25,o),
(281,-39,o),
(387,-39,cs),
(412,-39,o),
(690,-39,o),
(716,-39,cs),
(821,-39,o),
(837,-1,o),
(847,145,c),
(817,159,l),
(809,19,o),
(797,-10,o),
(719,-10,cs),
(661,-10,o),
(424,-10,o),
(382,-10,cs),
(296,-10,o),
(279,2,o),
(279,46,cs),
(279,473,l)
);
},
{
closed = 1;
nodes = (
(517,829,l),
(414,671,o),
(229,511,o),
(42,422,c),
(65,400,l),
(250,491,o),
(436,655,o),
(542,817,c)
);
},
{
closed = 1;
nodes = (
(487,782,l),
(613,616,o),
(764,507,o),
(938,413,c),
(960,435,l),
(786,525,o),
(630,631,o),
(511,793,c)
);
},
{
closed = 1;
nodes = (
(723,473,l),
(718,355,o),
(714,235,o),
(692,211,cs),
(685,204,o),
(676,203,o),
(657,203,cs),
(640,203,o),
(582,203,o),
(524,209,c),
(532,180,l),
(586,177,o),
(640,176,o),
(664,177,cs),
(690,178,o),
(704,181,o),
(716,193,cs),
(741,221,o),
(746,334,o),
(753,473,c)
);
}
);
vertWidth = 1000;
width = 1000;
},
{
layerId = "5029AEDF-C899-4409-998A-C73D58F94579";
shapes = (
{
closed = 1;
nodes = (
(275,503,l),
(275,366,l),
(672,366,l),
(672,503,l)
);
},
{
closed = 1;
nodes = (
(197,503,l),
(197,123,ls),
(197,-35,o),
(252,-78,o),
(435,-78,cs),
(476,-78,o),
(629,-78,o),
(672,-78,cs),
(830,-78,o),
(878,-31,o),
(900,136,c),
(754,193,l),
(743,85,o),
(731,67,o),
(661,67,cs),
(620,67,o),
(483,67,o),
(446,67,cs),
(364,67,o),
(352,73,o),
(352,125,cs),
(352,503,l)
);
},
{
closed = 1;
nodes = (
(463,861,l),
(371,690,o),
(200,574,o),
(15,507,c),
(117,375,l),
(318,467,o),
(490,600,o),
(604,801,c)
);
},
{
closed = 1;
nodes = (
(437,734,l),
(574,568,o),
(713,473,o),
(890,390,c),
(987,519,l),
(819,579,o),
(679,659,o),
(560,793,c)
);
},
{
closed = 1;
nodes = (
(632,503,l),
(629,391,o),
(628,277,o),
(608,253,cs),
(599,244,o),
(589,241,o),
(572,241,cs),
(551,241,o),
(507,242,o),
(459,247,c),
(493,120,l),
(551,117,o),
(607,117,o),
(641,122,cs),
(677,125,o),
(711,135,o),
(737,165,cs),
(771,211,o),
(776,323,o),
(782,503,c)
);
}
);
vertWidth = 1000;
width = 1000;
}
);
note = cid09785;
unicode = 20179;
}
{
color = 4;
glyphname = uni4ED4;
layers = (
{
layerId = m01;
shapes = (
{
closed = 1;
nodes = (
(291,832,l),
(234,671,o),
(142,514,o),
(43,410,c),
(65,386,l),
(166,497,o),
(258,656,o),
(320,824,c)
);
},
{
closed = 1;
nodes = (
(180,585,l),
(180,-71,l),
(209,-71,l),
(209,612,l),
(207,613,l)
);
},
{
closed = 1;
nodes = (
(365,759,l),
(365,729,l),
(890,729,l),
(890,759,l)
);
},
{
closed = 1;
nodes = (
(303,392,l),
(303,363,l),
(952,363,l),
(952,392,l)
);
},
{
closed = 1;
nodes = (
(611,544,l),
(611,-13,ls),
(611,-30,o),
(606,-35,o),
(587,-36,cs),
(568,-37,o),
(504,-37,o),
(424,-35,c),
(436,-65,l),
(527,-66,o),
(580,-66,o),
(606,-61,cs),
(630,-55,o),
(640,-43,o),
(640,-12,cs),
(640,544,l)
);
},
{
closed = 1;
nodes = (
(880,759,l),
(880,751,l),
(819,680,o),
(706,593,o),
(611,544,c),
(618,540,o),
(626,532,o),
(631,525,c),
(726,577,o),
(845,664,o),
(917,746,c),
(897,759,l)
);
}
);
vertWidth = 1000;
width = 1000;
},
{
layerId = "5029AEDF-C899-4409-998A-C73D58F94579";
shapes = (
{
closed = 1;
nodes = (
(228,851,l),
(181,713,o),
(100,576,o),
(15,488,c),
(91,335,l),
(199,451,o),
(302,638,o),
(365,808,c)
);
},
{
closed = 1;
nodes = (
(130,564,l),
(130,-94,l),
(268,-94,l),
(268,701,l),
(268,702,l)
);
},
{
closed = 1;
nodes = (
(389,786,l),
(389,652,l),
(853,652,l),
(853,786,l)
);
},
{
closed = 1;
nodes = (
(326,428,l),
(326,288,l),
(975,288,l),
(975,428,l)
);
},
{
closed = 1;
nodes = (
(586,562,l),
(586,73,ls),
(586,57,o),
(579,53,o),
(560,53,cs),
(540,52,o),
(469,53,o),
(412,55,c),
(460,-92,l),
(549,-92,o),
(619,-89,o),
(668,-67,cs),
(718,-45,o),
(733,-6,o),
(733,70,cs),
(733,562,l)
);
},
{
closed = 1;
nodes = (
(806,786,l),
(806,757,l),
(769,700,o),
(671,612,o),
(586,562,c),
(611,540,o),
(652,495,o),
(672,466,c),
(775,528,o),
(889,629,o),
(966,722,c),
(885,786,l)
);
}
);
vertWidth = 1000;
width = 1000;
}
);
note = cid09787;
unicode = 20180;
}
{
color = 4;
glyphname = uni4ED5;
layers = (
{
layerId = m01;
shapes = (
{
closed = 1;
nodes = (
(608,818,l),
(608,-11,l),
(637,-11,l),
(637,818,l)
);
},
{
closed = 1;
nodes = (
(302,499,l),
(302,470,l),
(960,470,l),
(960,499,l)
);
},
{
closed = 1;
nodes = (
(326,4,l),
(326,-25,l),
(944,-25,l),
(944,4,l)
);
},
{
closed = 1;
nodes = (
(205,580,l),
(205,-68,l),
(234,-68,l),
(234,609,l),
(234,610,l)
);
},
{
closed = 1;
nodes = (
(323,827,l),
(255,661,o),
(145,501,o),
(29,397,c),
(51,374,l),
(168,484,o),
(278,645,o),
(350,819,c)
);
}
);
vertWidth = 1000;
width = 1000;
},
{
layerId = "5029AEDF-C899-4409-998A-C73D58F94579";
shapes = (
{
closed = 1;
nodes = (
(589,834,l),
(589,-12,l),
(739,-12,l),
(739,834,l)
);
},
{
closed = 1;
nodes = (
(334,560,l),
(334,419,l),
(974,419,l),
(974,560,l)
);
},
{
closed = 1;
nodes = (
(361,81,l),
(361,-59,l),
(956,-59,l),
(956,81,l)
);
},
{
closed = 1;
nodes = (
(156,549,l),
(156,-93,l),
(300,-93,l),
(300,689,l),
(298,691,l)
);
},
{
closed = 1;
nodes = (
(258,854,l),
(204,711,o),
(111,568,o),
(14,479,c),
(96,328,l),
(214,444,o),
(329,633,o),
(399,809,c)
);
}
);
vertWidth = 1000;
width = 1000;
}
);
note = cid09788;
unicode = 20181;
}
{
color = 4;
glyphname = uni4ED7;
layers = (
{
layerId = m01;
shapes = (
{
closed = 1;
nodes = (
(316,612,l),
(316,582,l),
(952,582,l),
(952,612,l)
);
},
{
closed = 1;
nodes = (
(395,471,l),
(470,173,o),
(639,-7,o),
(947,-72,c),
(966,-46,l),
(660,13,o),
(492,190,o),
(422,478,c)
);
},
{
closed = 1;
nodes = (
(664,832,l),
(664,550,ls),
(664,338,o),
(631,114,o),
(282,-49,c),
(305,-72,l),
(658,95,o),
(694,328,o),
(694,550,cs),
(694,832,l)
);
},
{
closed = 1;
nodes = (
(205,580,l),
(205,-68,l),
(234,-68,l),
(234,609,l),
(234,610,l)
);
},
{
closed = 1;
nodes = (
(323,823,l),
(255,657,o),
(145,497,o),
(29,393,c),
(51,370,l),
(168,480,o),
(278,641,o),
(350,816,c)
);
}
);
vertWidth = 1000;
width = 1000;
},
{
layerId = "5029AEDF-C899-4409-998A-C73D58F94579";
shapes = (
{
closed = 1;
nodes = (
(344,655,l),
(344,516,l),
(970,516,l),
(970,655,l)
);
},
{
closed = 1;
nodes = (
(381,471,l),
(459,170,o),
(589,-16,o),
(888,-97,c),
(980,34,l),
(705,93,o),
(573,255,o),
(514,498,c)
);
},
{
closed = 1;
nodes = (
(656,841,l),
(656,556,ls),
(656,385,o),
(627,154,o),
(320,23,c),
(420,-98,l),
(759,55,o),
(802,336,o),
(802,556,cs),
(802,841,l)
);
},
{
closed = 1;
nodes = (
(156,549,l),
(156,-93,l),
(300,-93,l),
(300,689,l),
(298,691,l)
);
},
{
closed = 1;
nodes = (
(250,850,l),
(196,707,o),
(103,564,o),
(6,475,c),
(89,322,l),
(207,439,o),
(322,629,o),
(392,804,c)
);
}
);
vertWidth = 1000;
width = 1000;
}
);
note = cid09791;
unicode = 20183;
}
{
color = 4;
glyphname = uni4ED9;
layers = (
{
layerId = m01;
shapes = (
{
closed = 1;
nodes = (
(289,830,l),
(232,670,o),
(140,512,o),
(41,408,c),
(63,384,l),
(164,495,o),
(256,654,o),
(318,822,c)
);
},
{
closed = 1;
nodes = (
(187,586,l),
(187,-70,l),
(217,-70,l),
(217,613,l),
(215,614,l)
);
},
{
closed = 1;
nodes = (
(623,817,l),
(623,-16,l),
(653,-16,l),
(653,817,l)
);
},
{
closed = 1;
nodes = (
(881,602,l),
(881,-30,l),
(911,-30,l),
(911,602,l)
);
},
{
closed = 1;
nodes = (
(373,601,l),
(373,-30,l),
(905,-30,l),
(905,0,l),
(402,0,l),
(402,601,l)
);
}
);
vertWidth = 1000;
width = 1000;
},
{
layerId = "5029AEDF-C899-4409-998A-C73D58F94579";
shapes = (
{
closed = 1;
nodes = (
(228,851,l),
(181,713,o),
(100,576,o),
(15,488,c),
(91,335,l),
(199,451,o),
(302,638,o),
(365,808,c)
);
},
{
closed = 1;
nodes = (
(130,564,l),
(130,-94,l),
(268,-94,l),
(268,701,l),
(268,702,l)
);
},
{
closed = 1;
nodes = (
(560,836,l),
(560,6,l),
(706,6,l),
(706,836,l)
);
},
{
closed = 1;
nodes = (
(784,626,l),
(784,-63,l),
(930,-63,l),
(930,626,l)
);
},
{
closed = 1;
nodes = (
(343,618,l),
(343,-63,l),
(877,-63,l),
(877,71,l),
(486,71,l),
(486,618,l)
);
}
);
vertWidth = 1000;
width = 1000;
}
);
note = cid09794;
unicode = 20185;
}
{
color = 4;
glyphname = uni4EDD;
layers = (
{
layerId = m01;
shapes = (
{
closed = 1;
nodes = (
(105,-6,l),
(105,-35,l),
(900,-35,l),
(900,-6,l)
);
},
{
closed = 1;
nodes = (
(195,392,l),
(195,363,l),
(809,363,l),
(809,392,l)
);
},
{
closed = 1;
nodes = (
(485,381,l),
(485,-20,l),
(515,-20,l),
(515,381,l)
);
},
{
closed = 1;
nodes = (
(521,831,l),
(419,666,o),
(235,494,o),
(50,399,c),
(73,378,l),
(257,475,o),
(441,650,o),
(546,819,c)
);
},
{
closed = 1;
nodes = (
(486,772,l),
(600,622,o),
(751,497,o),
(941,379,c),
(963,401,l),
(773,515,o),
(619,637,o),
(510,783,c)
);
}
);
vertWidth = 1000;
width = 1000;
},
{
layerId = "5029AEDF-C899-4409-998A-C73D58F94579";
shapes = (
{
closed = 1;
nodes = (
(91,82,l),
(91,-65,l),
(911,-65,l),
(911,82,l)
);
},
{
closed = 1;
nodes = (
(194,441,l),
(194,294,l),
(800,294,l),
(800,441,l)
);
},
{
closed = 1;
nodes = (
(420,338,l),
(420,18,l),
(579,18,l),
(579,338,l)
);
},
{
closed = 1;
nodes = (
(494,865,l),
(387,698,o),
(196,568,o),
(11,490,c),
(117,361,l),
(312,462,o),
(500,607,o),
(631,798,c)
);
},
{
closed = 1;
nodes = (
(438,729,l),
(583,552,o),
(720,451,o),
(889,361,c),
(990,491,l),
(829,557,o),
(689,647,o),
(563,790,c)
);
}
);
vertWidth = 1000;
width = 1000;
}
);
note = cid09800;
unicode = 20189;
}
{
color = 4;
glyphname = uni4EDF;
layers = (
{
layerId = m01;
shapes = (
{
closed = 1;
nodes = (
(308,423,l),
(308,393,l),
(953,393,l),
(953,423,l)
);
},
{
closed = 1;
nodes = (
(867,789,l),
(754,744,o),
(528,704,o),
(343,678,c),
(353,655,l),
(542,679,o),
(766,719,o),
(894,767,c)
);
},
{
closed = 1;
nodes = (
(615,715,l),
(615,-70,l),
(644,-70,l),
(644,715,l)
);
},
{
closed = 1;
nodes = (
(291,827,l),
(230,666,o),
(130,508,o),
(23,405,c),
(44,381,l),
(152,491,o),
(253,650,o),
(320,819,c)
);
},
{
closed = 1;
nodes = (
(180,588,l),
(180,-68,l),
(209,-68,l),
(209,615,l),
(207,616,l)
);
}
);
vertWidth = 1000;
width = 1000;
},
{
layerId = "5029AEDF-C899-4409-998A-C73D58F94579";
shapes = (
{
closed = 1;
nodes = (
(315,461,l),
(315,319,l),
(973,319,l),
(973,461,l)
);
},
{
closed = 1;
nodes = (
(836,832,l),
(713,786,o),
(524,750,o),
(347,731,c),
(390,606,l),
(575,623,o),
(784,656,o),
(948,713,c)
);
},
{
closed = 1;
nodes = (
(581,715,l),
(581,-95,l),
(729,-95,l),
(729,715,l)
);
},
{
closed = 1;
nodes = (
(228,851,l),
(180,713,o),
(97,575,o),
(11,488,c),
(87,335,l),
(196,451,o),
(301,637,o),
(365,808,c)
);
},
{
closed = 1;
nodes = (
(130,564,l),
(130,-94,l),
(272,-94,l),
(272,705,l),
(272,706,l)
);
}
);
vertWidth = 1000;
width = 1000;
}
);
note = cid09803;
unicode = 20191;
}
{
color = 4;
glyphname = uni4EE1;
layers = (
{
layerId = m01;
shapes = (
{
closed = 1;
nodes = (
(299,827,l),
(237,666,o),
(137,508,o),
(31,405,c),
(52,381,l),
(160,491,o),
(261,650,o),
(328,819,c)
);
},
{
closed = 1;
nodes = (
(187,588,l),
(187,-68,l),
(217,-68,l),
(217,615,l),
(215,616,l)
);
},
{
closed = 1;
nodes = (
(451,662,l),
(451,632,l),
(941,632,l),
(941,662,l)
);
},
{
closed = 1;
nodes = (
(430,465,l),
(430,435,l),
(819,435,l),
(819,465,l)
);
},
{
closed = 1;
nodes = (
(510,829,l),
(472,694,o),
(409,566,o),
(329,480,c),
(355,462,l),
(432,551,o),
(497,682,o),
(538,823,c)
);
},
{
closed = 1;
nodes = (
(815,465,l),
(401,115,o),
(385,56,o),
(385,14,cs),
(385,-30,o),
(421,-54,o),
(501,-54,cs),
(860,-54,ls),
(927,-54,o),
(943,-34,o),
(950,124,c),
(920,135,l),
(917,-4,o),
(908,-25,o),
(860,-25,cs),
(497,-25,ls),
(449,-25,o),
(416,-13,o),
(416,16,cs),
(416,77,o),
(584,229,o),
(848,456,c),
(831,465,l),
(819,465,l)
);
}
);
vertWidth = 1000;
width = 1000;
},
{
layerId = "5029AEDF-C899-4409-998A-C73D58F94579";
shapes = (
{
closed = 1;
nodes = (
(228,851,l),
(180,713,o),
(97,575,o),
(11,488,c),
(87,335,l),
(196,451,o),
(301,637,o),
(365,808,c)
);
},
{
closed = 1;
nodes = (
(130,564,l),
(130,-94,l),
(268,-94,l),
(268,701,l),
(268,702,l)
);
},
{
closed = 1;
nodes = (
(442,723,l),
(442,588,l),
(942,588,l),
(942,723,l)
);
},
{
closed = 1;
nodes = (
(423,503,l),
(423,369,l),
(757,369,l),
(757,503,l)
);
},
{
closed = 1;
nodes = (
(469,855,l),
(433,737,o),
(366,621,o),
(287,551,c),
(401,457,l),
(484,542,o),
(563,680,o),
(609,820,c)
);
},
{
closed = 1;
nodes = (
(736,503,l),
(371,215,o),
(353,148,o),
(353,76,cs),
(353,-15,o),
(420,-76,o),
(569,-76,cs),
(766,-76,ls),
(892,-76,o),
(946,-35,o),
(960,153,c),
(833,199,l),
(829,78,o),
(812,64,o),
(775,64,cs),
(565,64,ls),
(524,64,o),
(501,72,o),
(501,96,cs),
(501,148,o),
(622,248,o),
(892,448,c),
(803,503,l),
(759,503,l)
);
}
);
vertWidth = 1000;
width = 1000;
}
);
note = cid09805;
unicode = 20193;
}
{
color = 4;
glyphname = uni4EE3;
layers = (
{
layerId = m01;
shapes = (
{
closed = 1;
nodes = (
(713,780,l),
(780,731,o),
(860,661,o),
(900,617,c),
(920,635,l),
(880,679,o),
(800,748,o),
(732,796,c)
);
},
{
closed = 1;
nodes = (
(308,481,l),
(312,454,l),
(944,528,l),
(939,556,l)
);
},
{
closed = 1;
nodes = (
(341,818,l),
(271,652,o),
(155,494,o),
(32,392,c),
(53,369,l),
(177,477,o),
(293,636,o),
(369,810,c)
);
},
{
closed = 1;
nodes = (
(218,572,l),
(218,-69,l),
(247,-69,l),
(247,600,l)
);
},
{
closed = 1;
nodes = (
(569,817,l),
(594,339,o),
(667,-61,o),
(880,-71,cs),
(929,-73,o),
(956,-16,o),
(973,137,c),
(947,149,l),
(934,26,o),
(914,-40,o),
(880,-39,cs),
(700,-27,o),
(619,346,o),
(598,817,c)
);
}
);
vertWidth = 1000;
width = 1000;
},
{
layerId = "5029AEDF-C899-4409-998A-C73D58F94579";
shapes = (
{
closed = 1;
nodes = (
(717,788,l),
(764,737,o),
(819,666,o),
(840,619,c),
(958,693,l),
(933,741,o),
(875,808,o),
(827,855,c)
);
},
{
closed = 1;
nodes = (
(349,521,l),
(370,381,l),
(971,466,l),
(951,604,l)
);
},
{
closed = 1;
nodes = (
(268,848,l),
(209,701,o),
(107,555,o),
(3,465,c),
(83,315,l),
(208,432,o),
(332,624,o),
(407,802,c)
);
},
{
closed = 1;
nodes = (
(170,549,l),
(170,-93,l),
(321,-93,l),
(321,696,l)
);
},
{
closed = 1;
nodes = (
(515,839,l),
(530,276,o),
(585,-67,o),
(829,-92,cs),
(887,-96,o),
(949,-53,o),
(977,153,c),
(858,237,l),
(852,130,o),
(842,82,o),
(822,85,cs),
(717,103,o),
(666,423,o),
(663,839,c)
);
}
);
vertWidth = 1000;
width = 1000;
},
{
associatedMasterId = m01;
layerId = "8C2A1698-ADF5-42CB-8807-0D402589D3E7";
name = "24年4月16日 23:35";
shapes = (
{
closed = 1;
nodes = (
(379,491,l),
(383,464,l),
(845,528,l),
(840,556,l)
);
},
{
closed = 1;
nodes = (
(644,780,l),
(700,731,o),
(767,661,o),
(801,617,c),
(821,635,l),
(787,679,o),
(720,748,o),
(663,796,c)
);
},
{
closed = 1;
nodes = (
(392,818,l),
(331,652,o),
(230,494,o),
(123,392,c),
(144,369,l),
(252,477,o),
(354,636,o),
(420,810,c)
);
},
{
closed = 1;
nodes = (
(279,572,l),
(279,-69,l),
(308,-69,l),
(308,600,l),
(308,601,l)
);
},
{
closed = 1;
nodes = (
(540,817,l),
(562,339,o),
(605,-62,o),
(791,-71,cs),
(840,-73,o),
(867,-16,o),
(884,137,c),
(858,149,l),
(845,26,o),
(825,-40,o),
(791,-39,cs),
(636,-29,o),
(587,346,o),
(569,817,c)
);
}
);
vertWidth = 1000;
width = 1000;
}
);
note = cid09807;
unicode = 20195;
}
{
color = 4;
glyphname = uni4EE4;
layers = (
{
layerId = m01;
shapes = (
{
closed = 1;
nodes = (
(330,174,l),
(438,101,o),
(566,-5,o),
(628,-73,c),
(652,-52,l),
(588,17,o),
(461,120,o),
(353,191,c)
);
},
{
closed = 1;
nodes = (
(178,364,l),
(178,334,l),
(796,334,l),
(796,364,l)
);
},
{
closed = 1;
nodes = (
(411,585,l),
(473,538,o),
(542,470,o),
(574,423,c),
(598,440,l),
(566,486,o),
(495,554,o),
(433,600,c)
);
},
{
closed = 1;
nodes = (
(485,778,l),
(593,646,o),
(791,502,o),
(939,433,c),
(961,459,l),
(812,522,o),
(615,663,o),
(511,792,c)
);
},
{
closed = 1;
nodes = (
(515,829,l),
(413,685,o),
(232,537,o),
(47,454,c),
(69,433,l),
(253,519,o),
(436,668,o),
(540,817,c)
);
},
{
closed = 1;
nodes = (
(791,364,l),
(791,358,l),
(495,62,l),
(522,45,l),
(826,352,l),
(811,364,l)
);
}
);
vertWidth = 1000;
width = 1000;
},
{
layerId = "5029AEDF-C899-4409-998A-C73D58F94579";
shapes = (
{
closed = 1;
nodes = (
(270,115,l),
(386,54,o),
(555,-42,o),
(632,-103,c),
(743,24,l),
(657,84,o),
(482,172,o),
(372,225,c)
);
},
{
closed = 1;
nodes = (
(153,401,l),
(153,261,l),
(775,261,l),
(775,401,l)
);
},
{
closed = 1;
nodes = (
(384,517,l),
(430,474,o),
(491,412,o),
(517,373,c),
(627,469,l),
(597,507,o),
(532,564,o),
(487,603,c)
);
},
{
closed = 1;
nodes = (
(439,740,l),
(554,616,o),
(730,495,o),
(884,426,c),
(994,559,l),
(837,613,o),
(655,711,o),
(560,803,c)
);
},
{
closed = 1;
nodes = (
(503,867,l),
(394,728,o),
(194,616,o),
(17,550,c),
(122,420,l),
(307,505,o),
(501,632,o),
(638,795,c)
);
},
{
closed = 1;
nodes = (
(742,401,l),
(742,386,l),
(441,84,l),
(571,10,l),
(903,344,l),
(816,401,l)
);
}
);
vertWidth = 1000;
width = 1000;
}
);
note = cid09809;
unicode = 20196;
}
{
color = 4;
glyphname = uni4EE5;
layers = (
{
guides = (
{
angle = 203.4365;
pos = (489,205);
}
);
layerId = m01;
shapes = (
{
closed = 1;
nodes = (
(390,735,l),
(451,662,o),
(518,560,o),
(548,494,c),
(574,508,l),
(544,572,o),
(476,672,o),
(415,747,c)
);
},
{
closed = 1;
nodes = (
(670,211,l),
(767,127,o),
(876,6,o),
(926,-69,c),
(952,-51,l),
(900,25,o),
(790,142,o),
(693,227,c)
);
},
{
closed = 1;
nodes = (
(781,796,l),
(753,328,o),
(681,80,o),
(339,-53,c),
(360,-78,l),
(705,69,o),
(780,314,o),
(812,794,c)
);
},
{
closed = 1;
nodes = (
(143,55,l),
(489,205,l),
(480,230,l),
(171,97,l),
(148,77,l)
);
},
{
closed = 1;
nodes = (
(173,82,ls),
(189,96,o),
(206,116,o),
(206,137,cs),
(206,744,l),
(177,744,l),
(177,143,ls),
(177,104,o),
(144,82,o),
(130,75,c),
(143,55,l)
);
}
);
vertWidth = 1000;
width = 1000;
},
{
guides = (
{
angle = 209.0841;
pos = (498,202);
}
);
layerId = "5029AEDF-C899-4409-998A-C73D58F94579";
shapes = (
{
closed = 1;
nodes = (
(349,677,l),
(403,605,o),
(464,504,o),
(488,440,c),
(621,521,l),
(591,585,o),
(531,677,o),
(474,746,c)
);
},
{
closed = 1;
nodes = (
(621,204,l),
(705,114,o),
(814,-10,o),
(860,-90,c),
(989,7,l),
(936,87,o),
(820,204,o),
(738,287,c)
);
},
{
closed = 1;
nodes = (
(730,810,l),
(718,399,o),
(648,149,o),
(358,29,c),
(470,-98,l),
(775,56,o),
(865,340,o),
(886,803,c)
);
},
{
closed = 1;
nodes = (
(121,-8,l),
(498,202,l),
(461,342,l),
(143,175,l),
(99,128,l)
);
},
{
closed = 1;
nodes = (
(246,109,ls),
(274,135,o),
(294,186,o),
(294,224,cs),
(294,792,l),
(134,792,l),
(134,221,ls),
(134,163,o),
(84,115,o),
(52,93,c),
(121,-8,l)
);
}
);
vertWidth = 1000;
width = 1000;
}
);
note = cid09812;
unicode = 20197;
}
{
color = 4;
glyphname = uni4EE8;
layers = (
{
layerId = m01;
shapes = (
{
closed = 1;
nodes = (
(354,703,l),
(354,673,l),
(919,673,l),
(919,703,l)
);
},
{
closed = 1;
nodes = (
(387,381,l),
(387,352,l),
(882,352,l),
(882,381,l)
);
},
{
closed = 1;
nodes = (
(317,11,l),
(317,-18,l),
(953,-18,l),
(953,11,l)
);
},
{
closed = 1;
nodes = (
(205,580,l),
(205,-68,l),
(234,-68,l),
(234,609,l),
(234,610,l)
);
},
{
closed = 1;
nodes = (
(323,823,l),
(255,657,o),
(145,497,o),
(29,393,c),
(51,370,l),
(168,480,o),
(278,641,o),
(350,816,c)
);
}
);
vertWidth = 1000;
width = 1000;
},
{
layerId = "5029AEDF-C899-4409-998A-C73D58F94579";
shapes = (
{
closed = 1;
nodes = (
(384,739,l),
(384,599,l),
(943,599,l),
(943,739,l)
);
},
{
closed = 1;
nodes = (
(412,430,l),
(412,291,l),
(912,291,l),
(912,430,l)
);
},
{
closed = 1;
nodes = (
(345,100,l),
(345,-40,l),
(976,-40,l),
(976,100,l)
);
},
{
closed = 1;
nodes = (
(156,549,l),
(156,-93,l),
(300,-93,l),
(300,689,l),
(298,691,l)
);
},
{
closed = 1;
nodes = (
(250,850,l),
(196,707,o),
(103,564,o),
(6,475,c),
(89,323,l),
(206,439,o),
(322,629,o),
(391,804,c)
);
}
);
vertWidth = 1000;
width = 1000;
}
);
note = cid09815;
unicode = 20200;
}
{
color = 4;
glyphname = uni4EEA;
layers = (
{
layerId = m01;
shapes = (
{
closed = 1;
nodes = (
(375,754,l),
(451,340,o),
(603,51,o),
(931,-72,c),
(954,-46,l),
(628,68,o),
(476,357,o),
(404,759,c)
);
},
{
closed = 1;
nodes = (
(547,789,l),
(597,722,o),
(651,630,o),
(675,575,c),
(701,592,l),
(677,646,o),
(623,735,o),
(573,802,c)
);
},
{
closed = 1;
nodes = (
(863,776,l),
(793,385,o),
(663,101,o),
(266,-49,c),
(284,-72,l),
(685,82,o),
(819,370,o),
(893,769,c)
);
},
{
closed = 1;
nodes = (
(291,827,l),
(230,666,o),
(130,508,o),
(23,405,c),
(44,381,l),
(152,491,o),
(253,650,o),
(320,819,c)
);
},
{
closed = 1;
nodes = (
(180,588,l),
(180,-68,l),
(209,-68,l),
(209,615,l),
(207,616,l)
);
}
);
vertWidth = 1000;
width = 1000;
},
{
layerId = "5029AEDF-C899-4409-998A-C73D58F94579";
shapes = (
{
closed = 1;
nodes = (
(348,760,l),
(418,344,o),
(543,47,o),
(883,-97,c),
(986,29,l),
(672,146,o),
(541,423,o),
(486,780,c)
);
},
{
closed = 1;
nodes = (
(530,783,l),
(566,722,o),
(605,641,o),
(618,590,c),
(740,655,l),
(725,707,o),
(682,784,o),
(644,841,c)
);
},
{
closed = 1;
nodes = (
(800,792,l),
(750,452,o),
(638,152,o),
(279,17,c),
(367,-96,l),
(752,65,o),
(878,390,o),
(945,769,c)
);
},
{
closed = 1;
nodes = (
(228,851,l),
(180,713,o),
(97,575,o),
(11,488,c),
(87,335,l),
(196,451,o),
(301,637,o),
(365,808,c)
);
},
{
closed = 1;
nodes = (
(135,564,l),
(135,-94,l),
(273,-94,l),
(273,701,l),
(273,702,l)
);
}
);
vertWidth = 1000;
width = 1000;
}
);
note = cid09817;
unicode = 20202;
}
{
color = 4;
glyphname = uni4EEB;
layers = (
{
guides = (
{
angle = 186.848;
pos = (885,36);
}
);
layerId = m01;
shapes = (
{
closed = 1;
nodes = (
(210,580,l),
(210,-68,l),
(239,-68,l),
(239,609,l),
(239,610,l)
);
},
{
closed = 1;
nodes = (
(328,823,l),
(263,658,o),
(158,497,o),
(46,393,c),
(68,370,l),
(181,481,o),
(286,642,o),
(356,816,c)
);
},
{
closed = 1;
nodes = (
(737,320,l),
(806,198,o),
(880,33,o),
(914,-62,c),
(942,-48,l),
(909,44,o),
(832,207,o),
(764,329,c)
);
},
{
closed = 1;
nodes = (
(377,-15,o),
(407,-11,o),
(407,-11,c),
(407,-10,l),
(525,147,o),
(643,368,o),
(739,585,c),
(709,598,l),
(625,390,o),
(492,167,o),
(452,108,cs),
(414,48,o),
(385,5,o),
(368,-1,c),
(377,-25,l)
);
},
{
closed = 1;
nodes = (
(377,-25,l),
(885,36,l),
(882,43,o),
(879,55,o),
(877,63,c),
(409,9,l),
(380,-7,l)
);
},
{
closed = 1;
nodes = (
(554,789,l),
(506,639,o),
(431,490,o),
(345,391,c),
(371,373,l),
(456,474,o),
(531,625,o),
(583,782,c)
);
}
);
vertWidth = 1000;
width = 1000;
},
{
guides = (
{
angle = 186.8074;
pos = (874,17);
}
);
layerId = "5029AEDF-C899-4409-998A-C73D58F94579";
shapes = (
{
closed = 1;
nodes = (
(156,549,l),
(156,-93,l),
(300,-93,l),
(300,689,l),
(298,691,l)
);
},
{
closed = 1;
nodes = (
(250,850,l),
(196,706,o),
(103,564,o),
(6,475,c),
(90,319,l),
(209,436,o),
(325,627,o),
(395,803,c)
);
},
{
closed = 1;
nodes = (
(697,315,l),
(756,189,o),
(815,25,o),
(832,-78,c),
(971,-23,l),
(950,83,o),
(885,240,o),
(823,361,c)
);
},
{
closed = 1;
nodes = (
(382,-16,o),
(498,19,o),
(498,19,c),
(498,22,l),
(604,170,o),
(721,372,o),
(811,594,c),
(657,637,l),
(587,434,o),
(473,226,o),
(431,171,cs),
(393,115,o),
(371,88,o),
(337,77,c),
(382,-42,l)
);
},
{
closed = 1;
nodes = (
(382,-42,l),
(874,17,l),
(866,49,o),
(857,107,o),
(854,147,c),
(458,108,l),
(383,60,l)
);
},
{
closed = 1;
nodes = (
(513,832,l),
(467,690,o),
(386,542,o),
(299,454,c),
(430,358,l),
(516,462,o),
(608,630,o),
(665,792,c)
);
}
);
vertWidth = 1000;
width = 1000;
}
);
note = cid09819;
unicode = 20203;
}
